<svg width="25" height="25" viewBox="0 0 25 25" fill="none" xmlns="http://www.w3.org/2000/svg">
<path d="M24.2838 13.7688L22.1213 11.1362C21.5188 5.63125 17.5001 1.25 11.2501 1.25C4.20381 1.25 0.0288086 6.16 0.0288086 12.5C0.0288086 17.0475 2.38756 19.1213 3.34881 22.29C3.83381 23.8875 5.27756 25 6.94631 25H17.7313C19.5176 25 21.0563 23.7387 21.4076 21.9875L22.0626 18.72L23.4676 17.9562C24.9938 17.125 25.3863 15.1113 24.2838 13.7688Z" fill="#965CFF"/>
<circle cx="10" cy="15" r="3.75" fill="white"/>
<circle cx="20" cy="21.25" r="2.5" fill="white"/>
<path d="M10 0C9.31 0 8.75 0.56 8.75 1.25V12.5H11.25V1.25C11.25 0.56 10.69 0 10 0Z" fill="white"/>
<path d="M20.1486 22.4999H17.2848C16.2836 22.4999 15.3411 22.1099 14.6336 21.4012L9.11607 15.8837C8.62732 15.3949 8.62732 14.6049 9.11607 14.1162C9.60482 13.6274 10.3948 13.6274 10.8836 14.1162L16.4011 19.6337C16.6348 19.8674 16.9561 19.9999 17.2848 19.9999H20.1486C20.8398 19.9999 21.3986 20.5587 21.3986 21.2499C21.3986 21.9412 20.8398 22.4999 20.1486 22.4999Z" fill="white"/>
</svg>
