<svg width="22" height="22" viewBox="0 0 22 22" fill="none" xmlns="http://www.w3.org/2000/svg">
<path d="M21.0717 16.5891L14.7863 10.2905C14.2682 9.77127 13.4289 9.76907 12.9075 10.285L12.6952 10.4951L6.69909 4.49897C6.34049 3.42427 5.66399 2.48487 4.75759 1.80507L2.72589 0.281572C2.16489 -0.138628 1.38059 -0.0836282 0.885594 0.412472L0.412594 0.885472C-0.0835061 1.38047 -0.138506 2.16477 0.281694 2.72577L1.80519 4.75747C2.48499 5.66387 3.42439 6.34037 4.49909 6.69897L10.4853 12.6852L10.295 12.8733C9.77139 13.3914 9.76919 14.2373 10.2895 14.7587L16.5903 21.0716C17.8278 22.3091 19.8342 22.3091 21.0728 21.0716C22.3092 19.8341 22.3092 17.8277 21.0717 16.5891Z" fill="white"/>
<path d="M0.931913 21.0683C2.17381 22.3102 4.18791 22.3102 5.42981 21.0683L15.4002 11.1188L10.9232 6.59888L0.931913 16.5715C-0.309987 17.8123 -0.309987 19.8264 0.931913 21.0683Z" fill="#965CFF"/>
<path d="M17.8354 7.27537C16.9235 8.18727 15.4099 8.13117 14.5717 7.10707C13.8435 6.21607 13.9986 4.88947 14.8126 4.07547L17.2997 1.58837C17.7595 1.12857 17.5483 0.329969 16.9158 0.178169C15.9951 -0.0418311 15.0007 -0.0693311 13.9689 0.153969C11.407 0.710569 9.3654 2.80937 8.9078 5.38997C8.0938 9.97697 12.023 13.9062 16.61 13.0922C19.1917 12.6346 21.2894 10.593 21.8449 8.02997C22.0682 6.99817 22.0418 6.00377 21.8207 5.08307C21.6689 4.45057 20.8714 4.23937 20.4116 4.69807C19.3083 5.80357 18.0774 7.03337 17.8354 7.27537Z" fill="#965CFF"/>
</svg>
