<svg width="31" height="25" viewBox="0 0 31 25" fill="none" xmlns="http://www.w3.org/2000/svg">
<path d="M5.375 16.625C4.125 16.625 3.125 15.75 2.875 14.5C2.75 13.875 2.75 13.125 2.75 12.5C2.75 5.625 8.375 0 15.25 0C17.5 0 19.625 0.625 21.5 1.625C22.75 2.375 23.125 3.875 22.375 5C21.75 6.25 20.25 6.75 19 6C17.875 5.375 16.625 5 15.25 5C11.125 5 7.75 8.375 7.75 12.5C7.75 12.875 7.75 13.25 7.875 13.625C8.125 15 7.125 16.25 5.75 16.5C5.625 16.5 5.5 16.625 5.375 16.625Z" fill="#965CFF"/>
<path d="M15.25 25C13 25 10.875 24.375 9.00005 23.375C7.75005 22.625 7.37505 21.125 8.12505 20C8.75005 18.75 10.25 18.25 11.5 19C12.625 19.625 13.875 20 15.25 20C19.375 20 22.75 16.625 22.75 12.5C22.75 12.25 22.75 12 22.75 11.625C22.625 10.25 23.625 8.99999 25 8.87499C26.375 8.74999 27.625 9.74999 27.75 11.125C27.75 11.625 27.875 12 27.875 12.5C27.75 19.375 22.125 25 15.25 25Z" fill="#965CFF"/>
<path d="M1.37478 12.5H9.12478C10.1248 12.5 10.6248 13.625 9.99978 14.375L6.87478 18.125C5.99978 19.125 4.49978 19.125 3.62478 18.125L0.499777 14.375C-0.125223 13.625 0.374777 12.5 1.37478 12.5Z" fill="white"/>
<path d="M29.1248 12.5H21.3748C20.3748 12.5 19.8748 11.375 20.4998 10.625L23.6248 6.875C24.4998 5.875 25.9998 5.875 26.8748 6.875L29.9998 10.625C30.6248 11.375 30.1248 12.5 29.1248 12.5Z" fill="white"/>
</svg>
