<svg width="30" height="30" viewBox="0 0 30 30" fill="none" xmlns="http://www.w3.org/2000/svg">
<path fill-rule="evenodd" clip-rule="evenodd" d="M25 5H3.75C3.05 5 2.5 5.55 2.5 6.25V8.75C2.5 9.4375 3.05 10 3.75 10H25C25.6875 10 26.25 9.4375 26.25 8.75V6.25C26.25 5.55 25.6875 5 25 5ZM25 12.5H12.5C11.8 12.5 11.25 13.05 11.25 13.75V23.75C11.25 24.4375 11.8 25 12.5 25H25C25.6875 25 26.25 24.4375 26.25 23.75V13.75C26.25 13.05 25.6875 12.5 25 12.5Z" fill="#965CFF"/>
<rect x="2.5" y="12.5" width="6.25" height="12.5" rx="1.25" fill="white"/>
</svg>
