<svg xmlns="http://www.w3.org/2000/svg" viewBox="0 0 454.1 132.1"><defs><style>.cls-1{fill:#fff;}.cls-2{fill:#1d1e21;}.cls-3{fill:#1e1e1e;}</style></defs><title>Asset 1</title><g id="Layer_2" data-name="Layer 2"><g id="Layer_1-2" data-name="Layer 1"><path class="cls-1" d="M233.36,103.21c-6.06,17.37-19.48,24.41-35,26.65a149.12,149.12,0,0,1-36.75.2c-14-1.5-25.19-9-33.32-21.61,0,5-.18,10,.06,15,.17,3.65-1.05,5.16-4.83,5a164.9,164.9,0,0,0-16.49,0c-4.47.26-6.67-1-5.92-5.82a20.36,20.36,0,0,0-.39-4C83.08,132.37,64.06,135,43.8,128.34c-13.61-4.48-24.21-13.21-32.33-24.84-16-22.86-15.18-56.18,1.78-77.2C23.84,13.18,37,4,54,1.16s32.26,1.41,46,11.39c.57-.75.9-1,.94-1.27,1.2-7.71,1.2-7.72,9.16-7.72,4.16,0,8.35.23,12.49-.06s6.14,1,5.79,5.55-.08,9.3-.08,14c.58,0,1.08.16,1.12.07,6.87-14.4,19.56-19.76,34.23-21.73,12.47-1.67,24.92-1.79,37.1,2.17C213.3,7.62,222.46,15.44,227.21,28c.75,2,1.43,4,2.39,6.69C243.71,13.1,262.25.15,288.36.45c25.86.29,44.38,13,57.9,34.44.41-.55.87-.89.91-1.26,1.28-15.82,10.51-25.31,24.95-29.7,16.78-5.1,33.87-5.51,50.63.37C436.9,9.25,445.53,19.44,449,34c.37,1.57.43,3.21.72,5.42-9.3,0-18.07.09-26.82-.15-.85,0-2-2-2.41-3.23-4.95-14.5-23.67-21.06-36.67-12.79-7.52,4.79-8.34,15.64-.93,20.7,4.41,3,9.81,4.84,15,6.43,10.17,3.13,20.82,4.89,30.69,8.72,18.52,7.17,27.24,21.63,25.22,39.68-1.49,13.33-9.48,21.85-21.27,26.78-19.33,8.07-39.32,8.42-59.21,2.51-12.87-3.83-21.71-12.64-26.29-25.45-.38-1.07-.84-2.11-1.57-3.91-13.2,20-30.62,32.21-54.75,32.94C267,132.36,248.2,122.68,233.36,103.21Z"/><path class="cls-2" d="M252.91,66.17c1.42-13.2,4.78-25,15.65-33.25,18.89-14.29,46.06-6.67,54.07,15.58,6.35,17.66,5.56,35.13-7.83,49.61C298,116.26,266,109.63,257.48,86.47,255.1,80,254.39,73,252.91,66.17Z"/><path class="cls-3" d="M98.08,67.64c-1,5.41-1.39,11.65-3.24,17.44-4.61,14.41-15.18,22-30,23.19s-26.25-5-33.58-18c-10.07-17.91-6.46-42.8,7.86-55.72,19-17.17,50.35-7.79,56.54,17.06C96.9,56.55,97.22,61.74,98.08,67.64Z"/><path class="cls-3" d="M139.29,51.85c8.94,14.76,23.66,18.4,38.51,21.88,7.92,1.86,16,3.4,23.69,5.91,10.83,3.51,14.84,10,12.71,18.81-1.49,6.14-5.71,9.76-11.4,11.48A35,35,0,0,1,177,108.17,20.69,20.69,0,0,1,165.38,93.4c-.77-3.39-2.43-4.58-5.88-4.46A158.57,158.57,0,0,1,143,88.65c-1.3-.09-3.56-1.68-3.58-2.62C139.21,74.65,139.29,63.25,139.29,51.85Z"/><path class="cls-3" d="M357.85,91.41c1-10.4,2-20,2.95-29.56,2.53,1.79,5.26,4.63,8.59,5.87,9.15,3.41,18.51,6.27,27.86,9.12,7.46,2.28,15.23,3.69,22.49,6.45,8.12,3.08,11.12,8,10.57,14.55-.65,7.63-5.11,13-13.26,14.9-9.73,2.26-19.55,2-27.63-4.41-3.65-2.91-6.31-7.7-8-12.17-1.42-3.68-2.94-5-6.68-4.81C369,91.59,363.17,91.41,357.85,91.41Z"/><path class="cls-3" d="M222.28,42.74c-1.27.93-2.43,2.36-3.84,2.7a24.1,24.1,0,0,0-15.37,11,4.91,4.91,0,0,1-4.19,1.59c-8.58-1.93-17.16-4-25.59-6.44-5-1.48-10.29-3.15-14.63-6C150,40,151,28.46,160.18,23.71a25.2,25.2,0,0,1,35.53,13.7,6.12,6.12,0,0,0,4.48,3.17c7.08.34,14.19.15,21.29.15Z"/></g></g></svg>