<svg width="20" height="20" viewBox="0 0 20 20" fill="none" xmlns="http://www.w3.org/2000/svg">
<path fill-rule="evenodd" clip-rule="evenodd" d="M0 10C0 4.47715 4.47715 0 10 0C12.6522 0 15.1957 1.05357 17.0711 2.92893C18.9464 4.8043 20 7.34784 20 10C20 15.5228 15.5228 20 10 20C4.47715 20 0 15.5228 0 10ZM11 11H13C13.5523 11 14 10.5523 14 10C14 9.44771 13.5523 9 13 9H11V7C11 6.44772 10.5523 6 10 6C9.44771 6 9 6.44772 9 7V9H7C6.44772 9 6 9.44771 6 10C6 10.5523 6.44772 11 7 11H9V13C9 13.5523 9.44771 14 10 14C10.5523 14 11 13.5523 11 13V11Z" fill="#FF7523"/>
</svg>
