<svg id="Livello_1" data-name="Livello 1" xmlns="http://www.w3.org/2000/svg" viewBox="0 0 700 700"><defs><style>.cls-1{fill:#fff;fill-rule:evenodd;}</style></defs><path class="cls-1" d="M473.62,393.44c-9.7,10.37-22.15,15.62-37,15.62s-27.31-5.25-37-15.62c-9.26-9.87-14.58-25.65-14.58-43.3,0-17.21,5.38-32.78,14.75-42.72,9.78-10.37,22.18-15.65,36.83-15.69s27.06,5.32,36.85,15.69c9.37,9.94,14.75,25.51,14.75,42.72,0,17.65-5.32,33.43-14.58,43.3ZM343.5,350.14c0,.8,0,1.59.05,2.37C328.68,339,307.18,334,294,331.39c-24.3-5.1-42.86-9.83-42.86-27.06,0-12.19,10.93-21,31.93-19.54,19.19,1.4,27.27,13.08,29.49,24.35.31,1.87,1.18,3.21,3.29,3.22l34.51.31.45,0a94,94,0,0,0-7.35,37.42Zm-58.7,63.25c-16.69,0-35.09-5.91-39.32-28.76-.37-2.18-1.4-3.09-3.08-3.13L209,381.06V322.3c4.42,17.22,18.91,29.14,50.33,36.18,21,5,57.49,8.2,57.49,29.7,0,15-11.08,25.57-32,25.22ZM118.6,409.1C91.68,409.1,67,388,67,350.19c0-29.68,18.48-58.42,51.76-58.42,14.4,0,50.94,4.91,50.94,58.42S131.58,409.1,118.6,409.1Zm410.12-73.36c7.67,10.18,21.49,17.72,43.95,22.75,21,5,57.54,8.2,57.54,29.71,0,14.95-11.07,25.57-32,25.19-16.67,0-35.09-5.91-39.32-28.77-.32-2.18-1.36-3.09-3-3.13l-31-.38a96.06,96.06,0,0,0,4.91-30.95,106.07,106.07,0,0,0-1-14.41Zm67.11,107.58c37,0,80.66-13.74,77.24-58.27-3.77-39.54-45.07-49.55-65.71-53.66-24.31-5.1-42.88-9.83-42.88-27.06,0-12.19,10.94-21,31.94-19.54,19.19,1.4,27.28,13.08,29.49,24.35.31,1.87,1.19,3.21,3.3,3.22l34.5.3c2.63,0,3.45-1.34,3.11-3.21-6.75-41.11-41.3-52.77-73.11-52.77s-70,8.9-72.73,48.24c-.09,1.53-.13,3-.13,4.49a94.7,94.7,0,0,0-84.26-52.73h-.79a89.46,89.46,0,0,0-32.73,6.16,95.09,95.09,0,0,0-28.93,18,93.36,93.36,0,0,0-20.9,26.92c-7.53-39.71-41.5-51.05-72.86-51.05-29.15,0-63.78,7.52-71.36,39.23V264.43a3,3,0,0,0-3-3h-32.5a3.06,3.06,0,0,0-3,3.05v8.48c0,1.43-1,1.93-2.14,1.09-11.56-8.34-28.66-17.31-49.24-17.31a89.86,89.86,0,0,0-32.83,6,96.81,96.81,0,0,0-28.86,18.17,92.87,92.87,0,0,0-23,31.16,98.72,98.72,0,0,0-.88,74,92,92,0,0,0,20.32,30.05,92.24,92.24,0,0,0,29.89,20.38,92,92,0,0,0,35.46,6.78c21.84,0,38.26-9.28,49-17.73,1.18-.89,2.12-.41,2.12,1.06v8.93a3.06,3.06,0,0,0,3,3.05h32.53a3.06,3.06,0,0,0,3.05-3.05V405.5c15.41,35.95,54.44,37.82,73.56,37.82,32,0,68.8-10.25,76.11-41.68a97,97,0,0,0,12,14.49C388,433.6,410.85,443,436.67,443.27h1.06a90.65,90.65,0,0,0,35.13-7,92.11,92.11,0,0,0,29.8-20.17,94.65,94.65,0,0,0,16.14-21.34c11.57,46.28,56.21,48.53,77.06,48.53Z"/></svg>
