<svg width="181" height="38" viewBox="0 0 181 38" fill="none" xmlns="http://www.w3.org/2000/svg">
<path fill-rule="evenodd" clip-rule="evenodd" d="M11.22 23.8799L10.68 24.0599C10.4775 24.2624 9.97124 24.8361 9.71811 25.123C9.63374 25.2186 9.57749 25.2824 9.56999 25.2899L8.57999 25.6499L9.77999 27.9299L11.01 29.2499L12.24 30.0899L12.27 29.1299C12.27 29.1299 11.49 25.9199 11.49 25.8899L11.22 23.8799ZM32.61 30.9899L33.21 30.5399L36.72 27.1199L35.94 26.2799L33.93 25.2899L32.61 30.9899Z" fill="white"/>
<path fill-rule="evenodd" clip-rule="evenodd" d="M44.97 26.16L42.69 22.98C41.7 22.26 39.93 20.61 39.93 20.61L39.21 19.68L35.85 17.37C35.85 17.37 32.94 16.05 31.56 15.39C30.5432 14.9037 29.8684 14.7106 29.2117 14.5226L29.2116 14.5226L29.2116 14.5226L29.2116 14.5226L29.2116 14.5226L29.2116 14.5226L29.2116 14.5226L29.2115 14.5226L29.2115 14.5226L29.2115 14.5225L29.2115 14.5225L29.2115 14.5225L29.2115 14.5225L29.2114 14.5225L29.2114 14.5225L29.2114 14.5225L29.2114 14.5225L29.2114 14.5225C28.9769 14.4554 28.7447 14.3889 28.5 14.31C28.3343 14.2515 28.2984 14.2184 28.2566 14.1797C28.1697 14.0993 28.0569 13.995 26.7 13.59C25.32 13.17 26.13 12.87 27 12.63C27.87 12.39 28.05 12.21 28.08 11.85C28.11 11.49 27.78 11.13 27.78 11.13L27.81 10.71L28.29 9.99C28.08 9.27 28.08 8.61 28.08 8.61C28.65 8.37 28.71 8.31 28.71 8.31L28.89 7.95L28.74 7.56L27.87 6.81C27.9149 5.88925 27.6404 5.10299 27.4744 4.6274L27.4744 4.62736C27.4186 4.46764 27.3751 4.34297 27.36 4.26C27.3 3.93 27.93 2.55 27.93 2.55C27.93 2.55 27.6 1.17 27.51 1.14L27.12 0.810003L25.77 0.900003C25.5 0.660003 24.21 0.300003 23.7 0.240003C23.3264 0.196054 22.8241 0.345254 22.3463 0.487176C22.1718 0.539011 22.0005 0.589874 21.84 0.630003C21.24 0.780003 20.25 0.780003 20.25 0.780003L19.38 1.5L18.24 2.1C17.61 3.45 16.95 3.63 16.95 3.63L16.38 5.25L17.61 9.84L18.75 11.46L19.29 12V12.96L18.99 12.99L17.61 14.07C15.99 14.46 13.41 14.67 13.41 14.67L8.27999 17.31L3.33 20.28L0.839995 22.14L0.179995 23.28L0.119995 25.14L1.41 27.72L3.63 29.97L12.48 35.34L13.11 36.09L12.63 37.44H14.31C14.52 36.87 14.67 36.33 14.64 35.55C14.61 34.77 14.19 34.11 14.19 34.11H12.21L10.95 33.48C9.83197 32.6619 9.14151 32.2652 8.459 31.8731C7.63977 31.4024 6.83199 30.9383 5.31 29.76C2.52 27.6 1.47 25.65 1.47 25.65L1.23 24.66L1.32 23.49L1.62 22.86L2.88 21.66L5.00999 20.52L5.31 20.55L5.75999 21.24C5.00999 22.11 3.69 22.29 3.69 22.29L3.45 22.59L3.42 23.13L4.02 25.32C4.02 25.32 4.64999 26.52 5.06999 27.24C5.49 27.9 9.80999 31.2 9.80999 31.2C9.80999 31.2 10.98 32.46 11.07 32.58C11.16 32.67 11.88 32.76 12 32.67C13.08 31.8 13.89 31.65 13.89 31.65L13.98 28.83L13.38 24.63V20.28L13.59 17.43L14.22 16.56C13.95 18.42 14.19 19.29 14.19 19.29V32.64L14.76 33.51C14.8804 31.7848 14.9471 30.2608 15.005 28.938L15.005 28.9377L15.005 28.9376L15.005 28.9373L15.005 28.9368C15.0337 28.2819 15.0602 27.6763 15.09 27.12C15.36 22.02 15.24 20.61 15.24 20.61L15.09 18.96L15.33 17.82L16.23 16.53C16.1915 16.8689 16.1569 17.1485 16.1248 17.4084L16.1247 17.4088L16.1247 17.4095L16.1246 17.4098C16.0317 18.1614 15.9591 18.7485 15.87 20.13C15.8203 21.1572 15.8072 22.6603 15.7953 24.0226V24.0227C15.7857 25.1271 15.7769 26.139 15.75 26.73C15.69 28.05 15.36 33.87 15.27 34.5C15.18 35.1 14.88 37.41 14.88 37.41H16.08C16.2357 36.0087 16.2525 35.0619 16.2697 34.0946C16.279 33.5709 16.2884 33.0412 16.32 32.43C16.3709 31.445 16.4411 30.8253 16.5088 30.2281C16.5606 29.7703 16.6109 29.3258 16.65 28.74C16.664 28.417 16.6682 28.0052 16.6733 27.5031V27.503V27.5029V27.5028V27.5027V27.5026V27.5025V27.5025V27.5024C16.69 25.8595 16.7165 23.25 17.13 19.62C17.34 17.85 17.67 16.71 17.85 16.17C17.97 15.72 18.21 15.81 18.18 16.14C18.15 16.59 18.21 17.1 18.21 17.1L18.24 19.62L17.64 27.69L17.58 32.25L17.22 34.62L17.31 37.44H18.6L19.32 26.61L20.22 17.01L21.24 16.62L19.89 37.44H21.69L23.04 17.01L23.58 16.29L24.15 16.83L23.19 37.41H24.72L25.08 27.45L26.16 27.87L25.95 37.41H27.54V30.87L27.96 28.05C28.29 28.05 28.65 27.54 28.65 27.54L28.08 37.41H29.13C29.13 37.41 30.09 23.46 30.18 20.94C30.27 18.45 29.46 16.05 29.46 16.05L30.3 16.77L30.9 21.45L29.97 35.19L29.7 37.38H30.66L30.72 36.72L32.1 36.33C32.1 36.33 33.33 35.22 42.12 30.36L45.15 27.27L44.97 26.16ZM6.66 19.08L9.77999 17.25L13.05 15.66L12.75 16.26L8.49 18.75L6.81 19.47L6.66 19.08ZM11.91 20.25L8.84999 22.65L8.7 22.98L8.93999 23.22L9.09 22.95L10.47 22.35L11.94 21.24L12.63 20.94L12.81 20.61L12.72 20.16L11.91 20.25ZM8.34 21.39L7.83 21.57L7.44 21.3L7.47 20.85L8.18999 20.16L12.75 17.7L12.81 18.12L12.57 18.42L8.34 21.39ZM12.75 31.17L13.2 30.96L13.26 28.98L12.45 25.68L12.21 23.91L12.3 22.62L12.18 22.44L10.11 23.16L9.02999 24.36L7.47 24.93L7.25999 25.2L8.97 28.47L10.35 29.97L12.06 31.17H12.75ZM28.17 17.55L28.92 17.07L28.8 21.75H28.05L28.17 17.55ZM26.76 18.33L26.01 16.8L25.83 16.86L25.5 21.75H26.7L26.82 19.35L26.76 18.33ZM21.9 20.85C21.75 20.85 21.6 20.73 21.6 20.55C21.6 20.4 21.72 20.25 21.9 20.25C22.05 20.25 22.2 20.37 22.2 20.55C22.2 20.73 22.08 20.85 21.9 20.85ZM21.84 17.31C21.84 17.43 21.93 17.55 22.08 17.55C22.23 17.55 22.35 17.46 22.32 17.31C22.32 17.19 22.23 17.07 22.08 17.07C21.96 17.07 21.84 17.16 21.84 17.31ZM24.69 11.31L22.47 11.37L21.6 11.91V12.27L22.74 13.17C22.74 13.17 22.65 14.43 22.65 14.76C22.65 15.09 22.08 14.7 22.08 14.7L19.86 13.35L19.92 12L20.19 11.94L20.73 9.36L19.98 8.31L19.92 7.17L20.28 6.72L21.06 6.57L22.08 7.41H22.59L22.83 6.36L24.93 5.07H26.34C26.34 5.07 26.61 5.37 26.64 5.43C26.67 5.49 26.46 5.64 26.46 5.64L24.87 6.39L25.23 7.02L26.64 7.26L27.54 7.05L28.17 7.62L27.63 8.01L27.15 8.22L27.63 8.73V8.97L26.85 9.12L26.4 9.63C26.4 9.63 26.37 9.96 26.43 10.02C26.49 10.08 26.88 9.99 27.06 9.9C27.27 9.81 27.45 9.93 27.42 10.08C27.3941 10.2096 27.1667 10.2496 27.0085 10.2774C26.9836 10.2818 26.9604 10.2859 26.94 10.29C26.79 10.32 26.64 10.74 26.67 10.83C26.7 10.92 26.88 10.83 26.88 10.83C26.88 10.83 27.09 11.19 27.15 11.4C27.21 11.61 26.7 11.7 26.7 11.7L24.69 11.31ZM25.47 23.4H29.1V23.1H25.47V23.4ZM29.1 22.68H25.47V22.29H29.1V22.68ZM36.51 18.93L32.52 16.38L31.32 16.17L31.38 16.74C32.1633 16.8663 32.7764 17.2055 33.0937 17.3811C33.1531 17.4139 33.2021 17.4411 33.24 17.46C33.51 17.61 34.71 18.42 35.25 18.84C35.79 19.26 37.02 20.13 37.02 20.13L37.95 20.4L38.22 20.19L36.51 18.93ZM31.71 22.23C31.71 22.23 31.71 21.75 32.01 22.11C32.19 22.32 32.25 23.16 32.25 23.16L31.95 26.31L31.38 28.53L31.47 26.19L31.71 23.94V22.23ZM35.79 22.83L31.95 20.43L33.18 22.47L35.64 23.67L36.09 23.34L35.79 22.83ZM32.79 19.47L32.22 19.44L31.62 18.99L31.47 18.24H31.92L33.24 18.81L37.05 21.45L36.99 21.78L36.72 21.87L36.24 21.81L32.79 19.47ZM32.91 25.2L31.83 30.15L31.02 32.52L32.52 32.28L33.87 31.26L37.83 27.42L38.04 27L36.57 25.44L34.32 24.33L32.97 24L32.91 25.2ZM41.61 27.24L37.29 31.23L31.05 34.71L31.11 33.09L32.88 32.85L35.76 30.51L39.24 27.06L37.11 24.9L38.46 22.95L39.03 22.98L41.73 26.49L41.61 27.24ZM21.51 7.65L21.24 7.05L20.82 6.96L20.34 6.99L20.13 7.41L20.28 7.71L20.58 7.68L20.73 8.04L21.06 8.34L21.36 8.28L21.51 7.65Z" fill="white"/>
<path d="M94.53 32.7C93.93 32.7 93.48 32.22 93.48 31.65V28.56H95.28V24.27H93.48L93.45 20.01H88.71V24.27H86.79V28.56H88.71V34.62C88.71 35.94 89.79 36.99 91.08 36.99H96.15V32.7H94.53Z" fill="white"/>
<path d="M110.37 31.65V18.78H105.6V34.62C105.6 35.94 106.65 36.99 107.97 36.99H114.96V32.7H111.42C110.85 32.7 110.37 32.25 110.37 31.65Z" fill="white"/>
<path d="M173.58 23.9099C172.26 23.9099 171.21 24.9599 171.21 26.2799V36.9899H175.98V29.2499C175.98 28.6499 176.46 28.1999 177.03 28.1999H179.55V23.9099H173.58V23.9099Z" fill="white"/>
<path d="M55.14 23.1301H58.68V18.8401H51.69C50.37 18.8401 49.32 19.9201 49.32 21.2101V36.9901H54.09V30.5401H56.64V26.2501H54.09V24.1801C54.09 23.6101 54.57 23.1301 55.14 23.1301Z" fill="white"/>
<path fill-rule="evenodd" clip-rule="evenodd" d="M64.5 23.79C60.81 23.79 57.81 26.79 57.81 30.48C57.81 34.17 60.81 37.17 64.5 37.17C68.19 37.17 71.19 34.17 71.19 30.48C71.19 26.79 68.19 23.79 64.5 23.79ZM66.42 30.48C66.42 31.53 65.58 32.4 64.5 32.4C63.42 32.4 62.55 31.53 62.58 30.48C62.58 29.43 63.42 28.56 64.5 28.56C65.55 28.56 66.42 29.4 66.42 30.48Z" fill="white"/>
<path fill-rule="evenodd" clip-rule="evenodd" d="M79.17 23.79C75.48 23.79 72.48 26.79 72.48 30.48C72.48 34.17 75.48 37.17 79.17 37.17C82.86 37.17 85.86 34.17 85.86 30.48C85.86 26.79 82.86 23.79 79.17 23.79ZM81.09 30.48C81.09 31.53 80.25 32.4 79.17 32.4C78.12 32.4 77.25 31.53 77.25 30.48C77.25 29.43 78.09 28.56 79.17 28.56C80.22 28.56 81.09 29.4 81.09 30.48Z" fill="white"/>
<path fill-rule="evenodd" clip-rule="evenodd" d="M122.73 23.79C119.04 23.79 116.04 26.79 116.04 30.48C116.04 34.17 119.04 37.17 122.73 37.17C126.42 37.17 129.42 34.17 129.42 30.48C129.42 26.79 126.42 23.79 122.73 23.79ZM124.65 30.48C124.65 31.53 123.81 32.4 122.73 32.4C121.65 32.4 120.78 31.53 120.81 30.48C120.81 29.43 121.65 28.56 122.73 28.56C123.78 28.56 124.65 29.4 124.65 30.48Z" fill="white"/>
<path d="M139.2 31.5001C138.84 32.0401 138.27 32.4001 137.58 32.4001C136.5 32.4001 135.66 31.5301 135.66 30.4801C135.66 29.4001 136.53 28.5601 137.58 28.5601C138.27 28.5601 138.87 28.9201 139.2 29.4601L143.22 26.9101C142.02 25.0501 139.95 23.8201 137.58 23.8201C133.89 23.8201 130.89 26.8201 130.89 30.5101C130.89 34.2001 133.89 37.2001 137.58 37.2001C139.95 37.2001 142.02 35.9701 143.22 34.1101L139.2 31.5001Z" fill="white"/>
<path fill-rule="evenodd" clip-rule="evenodd" d="M178.92 34.53C178.23 34.53 177.69 35.07 177.69 35.76C177.69 36.45 178.23 36.99 178.92 36.99C179.61 36.99 180.15 36.45 180.15 35.76C180.15 35.07 179.61 34.53 178.92 34.53ZM178.89 34.74C179.46 34.74 179.94 35.19 179.94 35.76C179.94 36.36 179.46 36.81 178.89 36.78C178.32 36.78 177.84 36.33 177.84 35.76C177.84 35.19 178.32 34.74 178.89 34.74ZM179.49 36.42H179.28L178.89 35.79H178.65V36.42H178.47V35.1H179.04C179.28 35.1 179.52 35.16 179.52 35.46C179.52 35.73 179.34 35.82 179.1 35.82L179.49 36.42ZM178.911 35.6107C178.893 35.6104 178.876 35.61 178.86 35.61H178.62V35.28H178.98C179.13 35.28 179.31 35.28 179.31 35.43C179.31 35.6182 179.069 35.6137 178.911 35.6107Z" fill="white"/>
<path d="M157.8 37.0201L152.19 30.1801L156.66 24.7801H151.53L149.1 27.7501V18.8101H144.33V37.0201H149.1V33.1201L149.43 33.5101L152.31 37.0201H157.8Z" fill="white"/>
<path fill-rule="evenodd" clip-rule="evenodd" d="M162.45 32.5199C163.2 32.7899 163.98 32.6699 164.55 32.2199C164.76 32.0399 164.94 31.8599 165.06 31.6799L168.87 34.1099C168.45 34.7999 167.91 35.3699 167.28 35.8499C166.14 36.7199 164.73 37.2299 163.2 37.2299C159.48 37.2299 156.45 34.1999 156.45 30.4799C156.45 29.1599 156.81 27.8399 157.74 26.5199C158.97 24.8099 161.07 23.5799 163.65 23.7599C165.81 23.9099 167.61 25.1399 168.54 26.3699C169.44 27.5999 169.89 29.1299 169.92 29.9099L161.46 31.7999C161.7 32.0999 162.03 32.3699 162.45 32.5199ZM162.6 28.3799C161.67 28.6799 161.31 29.2199 161.1 29.8499L164.85 29.0099C164.46 28.5599 163.53 28.0799 162.6 28.3799Z" fill="white"/>
</svg>
