<svg width="181" height="21" viewBox="0 0 181 21" fill="none" xmlns="http://www.w3.org/2000/svg">
<path d="M15 5.12993H10.92V3.38993H6.02999V9.05993H9.98999V11.7899H6.02999V17.8499H7.40999V20.3399H0.179993V17.8499H1.25999V3.38993H0.179993V0.179932H15V5.12993Z" fill="white"/>
<path d="M69.66 6.35993H66.54V3.38993H62.94V17.8499H63.93V20.3399H57.09V17.8499H58.08V3.38993H54.48V6.35993C53.64 6.35993 52.2 6.35993 51.39 6.35993V0.179932H69.66V6.35993Z" fill="white"/>
<path fill-rule="evenodd" clip-rule="evenodd" d="M84.24 12.1799C86.46 12.1799 87.78 10.7699 87.78 8.3999V4.0799C87.78 1.5299 86.52 0.149902 84.24 0.149902H72.39V3.3599H73.47V17.8199H72.39V20.3099H79.47V17.8199H78.3V12.1799H84.24ZM78.3 9.7199V3.3899H82.32H83.04V9.7199H78.3Z" fill="white"/>
<path fill-rule="evenodd" clip-rule="evenodd" d="M105.12 20.34V17.85H104.4C104.4 17.85 101.25 1.31996 101.04 0.209961H92.13C91.92 1.31996 88.74 17.85 88.74 17.85H87.9V20.34H93.21C93.36 19.38 93.9 15.63 93.9 15.63H98.94C98.94 15.63 99.51 19.41 99.66 20.34H105.12ZM94.47 12.27L95.76 3.83996H97.2L98.46 12.27H94.47Z" fill="white"/>
<path fill-rule="evenodd" clip-rule="evenodd" d="M138.06 20.34H142.56C142.56 19.2 142.59 13.74 142.59 13.8C142.59 10.11 139.92 10.17 139.92 10.17L139.98 9.80996C139.98 9.80996 142.59 9.26996 142.59 7.43996V3.98996C142.59 1.61996 141.27 0.209961 139.02 0.209961H127.11V3.41996H128.19V17.85H127.11V20.34H133.02V11.94H138.09C138.09 11.94 138.06 19.62 138.06 20.34ZM133.02 9.20996V3.38996H137.1H137.85V9.20996H133.02Z" fill="white"/>
<path fill-rule="evenodd" clip-rule="evenodd" d="M28.17 0.209961C30.39 0.209961 31.77 1.64996 31.77 3.98996H31.74V16.56C31.74 18.87 30.39 20.34 28.17 20.34H21C18.78 20.37 17.4 18.9 17.4 16.56V3.98996C17.4 1.64996 18.78 0.209961 21 0.209961H28.17ZM22.44 17.25H27.03V3.23996H22.44V17.25Z" fill="white"/>
<path d="M124.23 6.35993H121.11V3.38993H117.51V17.8499H118.53V20.3399H111.63V17.8499H112.65V3.38993H109.05V6.35993H105.93V0.179932H124.23V6.35993Z" fill="white"/>
<path fill-rule="evenodd" clip-rule="evenodd" d="M45.3 0.209961C47.49 0.209961 48.87 1.64996 48.87 3.98996H48.84V16.56C48.84 18.87 47.49 20.34 45.27 20.34H38.1C35.91 20.37 34.53 18.9 34.53 16.56V3.98996C34.53 1.64996 35.88 0.209961 38.1 0.209961H45.3ZM39.54 17.25H44.13V3.23996H39.54V17.25Z" fill="white"/>
<path fill-rule="evenodd" clip-rule="evenodd" d="M156.57 0.179932C158.76 0.179932 160.14 1.61993 160.14 3.95993L160.17 16.5299C160.17 18.8699 158.82 20.3099 156.6 20.3099H149.43C147.21 20.3399 145.83 18.8699 145.83 16.5299V3.95993C145.83 1.61993 147.18 0.179932 149.4 0.179932H156.57ZM150.81 17.2199H155.4V3.20993H150.81V17.2199Z" fill="white"/>
<path d="M178.5 20.3399H163.86V17.4599H164.94V3.38993H163.86V0.179932H170.82V3.38993H169.71V17.4599H174.54V14.5499H178.5V20.3399Z" fill="white"/>
<path d="M178.89 11.7901L176.79 10.2301L174.69 11.7901L175.5 9.30006L173.4 7.77006L175.98 7.80006L176.79 5.31006L177.6 7.80006H180.18L178.08 9.30006L178.89 11.7901Z" fill="white"/>
</svg>
