<svg width="23" height="23" viewBox="0 0 23 23" fill="none" xmlns="http://www.w3.org/2000/svg">
<path d="M7.5 10H2.5C1.11875 10 0 8.88125 0 7.5V2.5C0 1.11875 1.11875 0 2.5 0H7.5C8.88125 0 10 1.11875 10 2.5V7.5C10 8.88125 8.88125 10 7.5 10Z" fill="#FF7523"/>
<path d="M20 10H15C13.6187 10 12.5 8.88125 12.5 7.5V2.5C12.5 1.11875 13.6187 0 15 0H20C21.3813 0 22.5 1.11875 22.5 2.5V7.5C22.5 8.88125 21.3813 10 20 10Z" fill="white"/>
<path d="M7.5 22.5H2.5C1.11875 22.5 0 21.3813 0 20V15C0 13.6187 1.11875 12.5 2.5 12.5H7.5C8.88125 12.5 10 13.6187 10 15V20C10 21.3813 8.88125 22.5 7.5 22.5Z" fill="white"/>
<path d="M20 22.5H15C13.6187 22.5 12.5 21.3813 12.5 20V15C12.5 13.6187 13.6187 12.5 15 12.5H20C21.3813 12.5 22.5 13.6187 22.5 15V20C22.5 21.3813 21.3813 22.5 20 22.5Z" fill="#FF7523"/>
</svg>
