<svg width="52" height="69" viewBox="0 0 52 69" fill="none" xmlns="http://www.w3.org/2000/svg">
<path fill-rule="evenodd" clip-rule="evenodd" d="M25.3699 0.307729C25.0267 0.446329 24.8182 0.708949 21.4056 5.30165C18.5157 9.19109 14.6529 14.3821 11.0457 19.2236C9.66258 21.0797 6.9534 24.7184 5.02524 27.3095C3.09708 29.9004 1.2078 32.4318 0.826924 32.9345C-0.463136 34.6371 -1.44216 32.93 8.3682 46.083C10.618 49.0992 13.5328 53.0123 14.8455 54.7784C25.5281 69.1514 25.1356 68.6532 25.7798 68.6532C26.2606 68.6532 26.8056 68.0156 29.9864 63.7314C32.7154 60.0558 34.2029 58.0568 40.504 49.5986C42.0021 47.5876 44.1461 44.7083 45.2684 43.2001C46.3905 41.6919 48.2461 39.2075 49.3916 37.6793C52.0515 34.1308 52.0639 34.763 49.2593 31.0307C47.2408 28.3445 41.9522 21.2504 33.9577 10.5047C25.5101 -0.849851 26.2021 -0.0283307 25.3699 0.307729ZM27.4468 3.71963C28.3221 4.89917 30.996 8.49035 33.3889 11.7001C35.7818 14.9099 38.5625 18.6434 39.568 19.997C40.5734 21.3505 42.7621 24.2893 44.4314 26.5276C46.1007 28.7659 48.0825 31.4236 48.8354 32.4338C49.5884 33.4439 50.2054 34.3473 50.2065 34.4413C50.2087 34.6003 49.1029 36.1072 41.5618 46.2236C40.0052 48.3117 37.7894 51.2861 36.6377 52.833C35.4861 54.3797 32.8939 57.8602 30.8772 60.5672C28.8607 63.2743 26.9271 65.8839 26.5808 66.3665C26.2343 66.849 25.8791 67.2287 25.7915 67.2101C25.623 67.1749 24.6539 65.8893 14.2106 51.8486C9.66636 45.7387 8.2998 43.9037 4.8051 39.219L1.25856 34.4647L1.88766 33.594C2.23362 33.1152 3.771 31.046 5.30424 28.9956C6.8373 26.9452 9.26838 23.6861 10.7068 21.7533C12.1453 19.8206 15.0206 15.9611 17.0968 13.1766C19.1727 10.3922 21.7145 6.97511 22.7452 5.58299C24.9264 2.63657 25.7371 1.57511 25.8061 1.57511C25.8332 1.57511 26.5716 2.54009 27.4468 3.71963ZM21.8025 15.2861C21.8025 15.5672 21.8729 15.6376 22.154 15.6376H22.5056V17.3348C22.5056 19.0146 22.5088 19.0317 22.822 18.9872C23.1269 18.9438 23.1399 18.8826 23.1781 17.29C23.215 15.7537 23.2371 15.6376 23.4945 15.6376C23.6959 15.6376 23.7713 15.542 23.7713 15.2861C23.7713 14.9446 23.7431 14.9345 22.7869 14.9345C21.8306 14.9345 21.8025 14.9446 21.8025 15.2861ZM24.5057 16.9385C24.5435 18.8823 24.554 18.9437 24.8542 18.9863C25.1413 19.0272 25.1667 18.9665 25.2058 18.1425C25.2632 16.9322 25.8651 16.6728 25.902 17.8426C25.9139 18.2154 25.9297 18.6153 25.9373 18.7314C25.9448 18.8474 26.0933 18.9626 26.2674 18.9872C26.5831 19.032 26.5838 19.0279 26.5838 16.9736C26.5838 14.919 26.5831 14.9151 26.2674 14.9599C25.9871 14.9997 25.9461 15.0971 25.9088 15.8135C25.8422 17.0888 25.1775 17.0567 25.1775 15.7782C25.1775 14.9696 25.1627 14.9345 24.822 14.9345H24.4667L24.5057 16.9385ZM27.5213 15.0283C27.4696 15.0798 27.4275 15.9974 27.4275 17.0673V19.0126H28.4119C29.6212 19.0126 29.9531 18.5066 28.7986 18.4231C28.0044 18.3655 27.7396 17.1845 28.521 17.1845C28.9969 17.1845 29.1244 17.0911 29.02 16.8191C28.9784 16.7108 28.7573 16.622 28.5289 16.622C28.0588 16.622 27.945 15.584 28.4119 15.5535C28.5278 15.546 28.7653 15.5301 28.9391 15.5184C29.1548 15.5039 29.2556 15.4074 29.2556 15.2157C29.2556 14.932 27.7772 14.7722 27.5213 15.0283ZM17.7914 21.2909C17.7523 21.3927 17.737 23.5004 17.7575 25.9748L17.7946 30.4736H18.4275H19.0604L19.0991 28.3235L19.138 26.1732L20.2945 26.2141L21.451 26.2547V28.3642V30.4736L22.1189 30.5164L22.7869 30.5592V25.8405V21.122H22.154C21.6468 21.122 21.5204 21.1708 21.517 21.3681C21.5147 21.5035 21.4988 22.4053 21.4817 23.372L21.451 25.1297L20.2946 25.1706L19.1385 25.2113L19.0994 23.2017L19.0604 21.1922L18.4613 21.149C18.0628 21.1202 17.8387 21.1676 17.7914 21.2909ZM25.0369 25.833V30.5439H25.6696H26.3025V25.833V21.122H25.6696H25.0369V25.833ZM28.5858 25.7977L28.6229 30.4736H29.2556H29.8885L29.9273 28.3291L29.966 26.1845H30.7404C32.5111 26.1845 33.1229 25.5522 33.1229 23.7225C33.1229 21.5909 32.5715 21.1226 30.0623 21.1222L28.5487 21.122L28.5858 25.7977ZM31.6111 22.6054C32.2679 23.3537 31.9781 24.8135 31.1256 25.0502C29.9428 25.3787 29.9588 25.3979 29.9588 23.6341V22.0681L30.6266 22.1565C31.0957 22.2186 31.3889 22.3523 31.6111 22.6054ZM11.4269 32.408C9.49554 33.0269 9.54234 35.4646 11.5164 37.0564C13.7038 38.8204 14.2375 39.8168 13.3337 40.4499C12.4709 41.0543 11.3963 40.2737 11.3963 39.0425C11.3963 38.6457 11.4269 38.653 10.6117 38.8582C9.12168 39.2334 10.5896 41.5612 12.4362 41.7518C15.5831 42.0767 15.9377 38.865 13.0174 36.4888C11.3353 35.1201 10.897 34.1439 11.7088 33.5753C12.4373 33.065 13.6463 33.6786 13.6463 34.5588C13.6463 34.9275 13.6645 34.9363 14.2439 34.8436C15.0671 34.7122 15.1362 34.6004 14.8531 33.859C14.3525 32.5482 12.9038 31.9346 11.4269 32.408ZM23.9209 34.5097C22.9878 35.7629 22.2286 36.8861 22.2336 37.0058C22.2458 37.2939 25.4968 41.583 25.7029 41.583C25.9655 41.583 29.2824 37.029 29.162 36.8339C28.9177 36.438 25.7332 32.2314 25.6777 32.2314C25.6444 32.2314 24.8539 33.2567 23.9209 34.5097ZM16.5994 32.9239V33.483L17.408 33.5251L18.2165 33.5672L18.2538 37.6102L18.2912 41.6532H18.9218H19.5525V37.5751V33.497H20.4048H21.2569L21.2134 32.9696L21.1696 32.4422L18.8845 32.4037L16.5994 32.365V32.9239ZM30.9431 37.0126V41.6532H31.5724H32.2015L32.2402 39.5087L32.279 37.3641H32.7665H33.2539L33.9349 39.5087L34.6156 41.6532H35.2404C35.9966 41.6532 36.0045 41.8895 35.1607 39.2655L34.4606 37.0886L34.8766 36.7629C35.8274 36.019 35.8092 33.6381 34.8476 32.9457C34.2598 32.5225 33.6789 32.3933 32.3141 32.3826L30.9431 32.372V37.0126ZM37.8338 37.0126V41.6532H39.6619H41.49V41.1611V40.6689H40.2903H39.0904L39.13 39.0165L39.1696 37.3641L39.9866 37.3217L40.8037 37.2794L40.7601 36.8295C40.7173 36.3866 40.7045 36.3792 39.908 36.3376L39.0994 36.2955V34.826V33.3564H40.2946H41.49V32.8641V32.372H39.6619H37.8338V37.0126ZM33.6103 33.5649C34.8458 34.2039 34.337 36.2138 32.9351 36.2311L32.279 36.2392L32.238 34.9847C32.1818 33.2625 32.463 32.9716 33.6103 33.5649ZM26.7415 35.5397C27.8944 37.0735 27.9009 36.8521 26.654 38.5358C25.6214 39.9302 25.8003 39.9448 24.6177 38.3714C23.4301 36.7914 23.4284 37.1341 24.6321 35.5325C25.8313 33.9371 25.5362 33.9361 26.7415 35.5397ZM21.5213 44.958V45.4501H25.6696H29.8181V44.958V44.4657H25.6696H21.5213V44.958ZM18.0056 50.0907V51.7782H18.779C19.6641 51.7782 19.924 51.4101 19.0955 51.3302C18.4696 51.2697 18.2966 50.372 18.9108 50.372C19.1776 50.372 19.2713 50.2988 19.2713 50.0907C19.2713 49.8844 19.1776 49.8095 18.9196 49.8095C18.6228 49.8095 18.5681 49.7438 18.5681 49.3876C18.5681 48.9992 18.6071 48.9657 19.0604 48.9657C19.4587 48.9657 19.5525 48.9122 19.5525 48.6845C19.5525 48.4374 19.4587 48.4032 18.779 48.4032H18.0056V50.0907ZM20.4766 48.6242C20.0635 49.0373 20.1994 49.6983 20.8181 50.2845C21.1275 50.5778 21.3806 50.9091 21.3806 51.0211C21.3806 51.33 20.9455 51.4384 20.7938 51.1671C20.6512 50.9126 20.115 50.8449 20.115 51.0816C20.115 51.4428 20.8298 51.9465 21.2119 51.8543C22.1004 51.6403 22.1697 50.8928 21.3806 50.0367C20.8073 49.4146 20.6564 48.9657 21.0208 48.9657C21.1322 48.9657 21.2625 49.029 21.3104 49.1064C21.456 49.3423 21.8025 49.2631 21.8025 48.9939C21.8025 48.4239 20.9223 48.1786 20.4766 48.6242ZM22.365 48.6746C22.365 48.8492 22.478 48.9623 22.6814 48.9911C22.9864 49.0345 22.9972 49.0856 22.9784 50.4071C22.9604 51.6644 22.981 51.7782 23.2245 51.7782C23.4662 51.7782 23.49 51.658 23.49 50.4291C23.49 49.1982 23.5147 49.0735 23.7713 49.0065C24.4744 48.8226 24.0835 48.4032 23.2088 48.4032C22.4689 48.4032 22.365 48.4367 22.365 48.6746ZM27.1775 48.6221C26.8177 48.8742 26.7691 49.1064 27.076 49.1064C27.2486 49.1064 27.2869 49.3485 27.2869 50.4422C27.2869 51.6844 27.3065 51.7782 27.5681 51.7782C27.8338 51.7782 27.8494 51.6844 27.8494 50.0907C27.8494 48.2887 27.8019 48.1848 27.1775 48.6221ZM28.9258 48.6604C28.3648 49.2805 28.6963 50.5126 29.4244 50.5126C29.768 50.5126 29.8181 50.5662 29.8181 50.9345C29.8181 51.2627 29.7556 51.3564 29.5369 51.3564C29.3807 51.3564 29.2556 51.2627 29.2556 51.1455C29.2556 51.0294 29.1607 50.9345 29.0446 50.9345C28.8119 50.9345 28.7674 51.3152 28.9642 51.6259C29.149 51.918 29.9606 51.877 30.1896 51.5638C30.4682 51.1829 30.4481 49.1246 30.1617 48.7159C29.8915 48.3299 29.2509 48.3011 28.9258 48.6604ZM31.2203 48.619C31.1218 48.7378 31.0558 49.0384 31.0734 49.287C31.1139 49.8585 31.1056 50.0263 31.001 50.7452C30.9317 51.2218 30.9704 51.3836 31.2109 51.6241C31.8326 52.2458 32.5548 51.8577 32.528 50.9162C32.5183 50.5781 32.5071 49.9616 32.5031 49.5462C32.4927 48.4829 31.768 47.9591 31.2203 48.619ZM33.2192 48.6493C33.25 48.8123 33.4219 48.9104 33.728 48.9399C34.085 48.9743 34.1746 49.0386 34.1212 49.2213C34.083 49.3514 33.9502 49.8693 33.826 50.372C33.7018 50.8748 33.5677 51.3968 33.5279 51.5321C33.4759 51.7085 33.5351 51.7782 33.7367 51.7782C33.8913 51.7782 34.0515 51.6675 34.0927 51.5321C34.2113 51.1417 34.74 48.7024 34.74 48.5454C34.74 48.4665 34.3904 48.4032 33.9563 48.4032C33.2858 48.4032 33.1792 48.4388 33.2192 48.6493ZM29.7479 49.4697C29.7479 49.8655 29.6885 50.0205 29.5369 50.0205C29.313 50.0205 29.1731 49.3835 29.3155 49.0125C29.4678 48.6158 29.7479 48.9119 29.7479 49.4697ZM32.0461 49.1682C32.0728 49.3054 32.0252 49.4868 31.9406 49.5712C31.711 49.8011 31.4564 49.4828 31.574 49.1128C31.6843 48.7648 31.9745 48.7988 32.0461 49.1682ZM32.0681 50.9516C32.0681 51.2627 32.0029 51.3565 31.7869 51.3565C31.5059 51.3565 31.3607 50.5637 31.5981 50.3263C31.772 50.1524 32.0681 50.5465 32.0681 50.9516ZM24.4274 51.3095C24.2339 51.5032 24.3439 51.7782 24.615 51.7782C24.8026 51.7782 24.8963 51.6844 24.8963 51.497C24.8963 51.2259 24.6211 51.116 24.4274 51.3095Z" fill="white"/>
</svg>
