<svg width="115" height="26" viewBox="0 0 115 26" fill="none" xmlns="http://www.w3.org/2000/svg">
<path fill-rule="evenodd" clip-rule="evenodd" d="M3.2 0.541095C3.2 0.618695 2.75 1.92309 2.2 3.43949C1.65 4.95589 1.2 6.24229 1.2 6.29829C1.2 6.35429 2.2664 6.39989 3.5696 6.39989H5.9396L5.122 8.69989C3.218 14.0583 0 23.6899 0 24.0307C0 24.2347 2.0368 24.3999 4.5516 24.3999H9.1028L9.5344 23.2999C9.9932 22.1311 14.74 8.28389 15.0876 7.09989C15.2548 6.53069 15.756 6.39989 17.768 6.39989H20.2424L21.1212 3.67149C21.6044 2.1711 22 0.821095 22 0.671495C22 0.522295 17.77 0.399895 12.6 0.399895C7.43 0.399895 3.2 0.463495 3.2 0.541095ZM23.0456 2.49989C22.66 3.65469 22.2524 4.8251 22.1392 5.0999C21.9812 5.48349 23.046 5.5999 26.7124 5.5999H31.4912L32.1132 3.89989C33.5216 0.0502948 33.8824 0.399895 28.5 0.399895H23.746L23.0456 2.49989ZM34.7492 1.49989C33.4836 4.73069 28.4 19.9999 28.4 20.5711C28.4 26.1207 45.676 26.7191 48.8888 21.2807C49.5244 20.2047 52.7888 11.3655 52.7964 10.6999C52.7984 10.5351 50.6852 10.4015 48.1 10.4039L43.4 10.4075L42.4468 13.3039C40.3104 19.7935 40.0136 20.3999 38.9712 20.3999C37.6988 20.3999 37.702 20.3771 39.8188 14.2591C42.056 7.79309 41.1644 8.44349 47.9744 8.31149L53.732 8.19989L54.4348 6.19989C55.5524 3.0207 55.8444 3.19989 49.5556 3.19989H43.9108L44.1736 1.79989L44.4364 0.399895H39.8084H35.18L34.7492 1.49989ZM61.6784 1.15869C57.812 2.49429 57.4056 3.1363 53.7568 13.6719C51.9912 18.7691 51.6488 20.9967 52.412 22.4219C54.552 26.4211 68.6264 25.5779 71.4728 21.2803C73.9844 17.4879 77.3792 4.62949 76.3676 2.73949C75.1296 0.426295 66.4912 -0.503305 61.6784 1.15869ZM79.6704 4.3003C78.1588 8.7327 73.1816 23.1423 72.9 23.8999C72.7556 24.2887 74.3548 24.3999 80.0784 24.3999H87.4424L88.3212 21.6715C88.8044 20.1711 89.2 18.8211 89.2 18.6715C89.2 18.5223 88.12 18.3999 86.8 18.3999C85.48 18.3999 84.4 18.3283 84.4 18.2407C84.4 18.1531 85.75 14.1687 87.4 9.38669C89.05 4.60469 90.4 0.626295 90.4 0.545895C90.4 0.465495 88.2848 0.400295 85.7 0.400295L81 0.400695L79.6704 4.3003ZM99.2784 1.15869C95.412 2.49429 95.0056 3.1363 91.3568 13.6719C89.5912 18.7691 89.2488 20.9967 90.012 22.4219C92.1324 26.3843 106.225 25.5831 109.032 21.3407C111.55 17.5355 114.976 4.62349 113.968 2.73949C112.73 0.426295 104.091 -0.503305 99.2784 1.15869ZM68 5.26109C68 6.38949 63.0104 20.0979 62.5328 20.2811C60.708 20.9811 60.7912 20.1343 63.2556 12.9175C64.5924 9.00269 65.8688 5.57509 66.092 5.29989C66.602 4.67189 68 4.64309 68 5.26109ZM105.6 5.16749C105.6 6.26349 100.604 20.0999 100.145 20.2763C98.3132 20.9795 98.3912 20.1459 100.832 12.9367C102.155 9.0323 103.43 5.60429 103.667 5.31869C104.159 4.72629 105.6 4.61349 105.6 5.16749ZM20.3736 10.2999C19.8832 11.7851 18.6084 15.4971 17.5408 18.5487C16.4732 21.6007 15.6 24.1655 15.6 24.2487C15.6 24.3319 17.7368 24.3999 20.3484 24.3999H25.0964L27.8144 16.4999C29.3096 12.1547 30.612 8.3751 30.7092 8.0999C30.844 7.7179 29.7512 7.5999 26.0756 7.5999H21.2652L20.3736 10.2999Z" fill="white"/>
</svg>
