<svg width="72" height="56" viewBox="0 0 72 56" fill="none" xmlns="http://www.w3.org/2000/svg">
<path fill-rule="evenodd" clip-rule="evenodd" d="M33.0278 0.125608C31.1821 0.313708 29.8791 0.533848 28.1389 0.951268C25.1896 1.65885 22.2205 2.87547 19.3889 4.53687C19.0985 4.70733 18.8528 4.86555 18.8426 4.88877C18.8323 4.91199 18.8012 4.93107 18.7731 4.93107C18.7295 4.93107 17.7556 5.58105 16.8055 6.24417C14.8864 7.58373 12.2607 10.0983 10.5485 12.2365C9.10548 14.0389 7.1937 17.0791 6.5835 18.5421C6.5007 18.7408 6.4134 18.9282 6.38964 18.9588C6.3342 19.0301 5.61114 20.6789 5.61114 20.734C5.61114 20.7568 5.57442 20.8542 5.5296 20.9505C5.3892 21.2522 4.9122 22.5997 4.73004 23.2088C4.6341 23.5297 4.53168 23.8672 4.50234 23.9589C4.09302 25.2401 3.54708 27.9988 3.34854 29.7901C3.30588 30.1741 3.30408 30.1775 3.11112 30.2259C1.1448 30.7197 0 32.1138 0 34.0144C0 35.7859 1.3113 37.4702 2.90286 37.7429C3.10248 37.7771 3.11148 37.7881 3.11814 38.0077C3.1221 38.1335 3.13128 38.2937 3.13848 38.3634C3.14568 38.4332 3.16872 38.6832 3.18942 38.919C3.37338 41.0063 4.39812 43.4685 5.82966 45.2628C5.93856 45.3994 6.07716 45.5743 6.13746 45.6517C6.77304 46.4655 8.70138 48.1611 9.88884 48.9501C10.2402 49.1835 10.5529 49.3941 10.5833 49.4181C12.2915 50.7571 18.5582 53.2053 21.9134 53.8441C21.9458 53.8502 22.0597 53.8732 22.1666 53.8954C22.3492 53.933 22.4897 53.9641 23.0695 54.0959C23.467 54.1861 25.0479 54.4735 25.6945 54.5729C26.0305 54.6247 26.3556 54.6766 26.4166 54.6883C26.4778 54.7 26.9278 54.7581 27.4167 54.8175C28.1997 54.9127 28.7201 54.9694 29.75 55.0722C29.9029 55.0875 30.1403 55.1127 30.2778 55.1284C32.9346 55.4302 39.236 55.3849 42.25 55.0422C42.4944 55.0144 42.8695 54.9761 43.0834 54.9568C43.952 54.8791 46.3126 54.5445 47.1944 54.3742C50.2828 53.7777 51.9907 53.3543 54 52.6867C55.3766 52.2293 56.6881 51.737 57.4322 51.3981C57.5935 51.3244 57.7386 51.2643 57.7544 51.2643C57.9262 51.2643 60.8659 49.6852 61.5742 49.2123C61.7832 49.073 61.9954 48.9339 62.0456 48.9033C62.9757 48.3388 65.3879 46.2232 65.8152 45.5974C65.8672 45.5212 66.0141 45.3339 66.1417 45.181C66.3836 44.8914 67.1112 43.8557 67.1112 43.8008C67.1112 43.7835 67.1744 43.6761 67.2518 43.5619C67.6559 42.9665 68.2232 41.5917 68.4751 40.5977C68.6824 39.7794 68.7731 39.2304 68.8093 38.575C68.848 37.875 68.8705 37.7643 68.9731 37.7643C69.1076 37.7643 69.7318 37.5368 69.9946 37.3921C73.064 35.6997 72.4466 31.0597 69.0491 30.2869C68.8027 30.231 68.6666 30.1726 68.6666 30.1231C68.6666 30.0562 68.4999 28.755 68.4108 28.1255C68.35 27.6962 67.9928 25.9529 67.853 25.4034C67.7754 25.0977 67.7029 24.8031 67.6921 24.7483C67.5682 24.1277 66.8349 21.8743 66.4947 21.07C66.469 21.0088 66.3746 20.7714 66.2854 20.5421C65.8906 19.5303 64.9679 17.6101 64.4297 16.6811C63.4216 14.9407 62.3574 13.3842 61.1676 11.91C61.1213 11.8526 61.0247 11.7401 60.9529 11.66C60.8812 11.5799 60.7187 11.3931 60.5918 11.2449C58.9336 9.30759 56.8996 7.46151 54.8055 5.99325C54.4084 5.71479 54.0509 5.45973 54.0112 5.42661C53.9716 5.39331 53.8841 5.33679 53.8168 5.30097C53.7494 5.26515 53.5444 5.13447 53.3612 5.01063C53.1778 4.88679 52.9153 4.72101 52.7778 4.64235C51.5547 3.94251 51.2033 3.75243 50.2659 3.28389C49.7551 3.02883 49.3227 2.82003 49.3051 2.82003C49.2874 2.82003 48.9301 2.67279 48.5114 2.49297C47.7967 2.18607 47.0318 1.89717 46.2532 1.64031C45.7745 1.48245 44.4931 1.09887 44.3612 1.07403C44.3 1.06251 44.05 1.00221 43.8055 0.939928C42.6064 0.634648 40.9081 0.335128 39.6389 0.205168C39.3334 0.174028 39.0208 0.133528 38.9444 0.115168C38.6397 0.0424477 33.7594 0.0510877 33.0278 0.125608ZM37.5989 25.5006C37.5221 25.5693 37.2141 25.813 36.9144 26.0422C36.6145 26.2713 36.1402 26.6463 35.8601 26.8756C35.5802 27.1047 35.2674 27.3547 35.165 27.4311C35.0627 27.5074 34.8149 27.7027 34.6145 27.8649C34.414 28.027 34.0501 28.3131 33.8056 28.5006C33.1202 29.026 33.1184 29.0221 33.9444 28.8142C34.2958 28.7258 34.6333 28.6435 34.6945 28.6315C34.8485 28.6011 36.8093 28.1304 37.7487 27.8983C38.1757 27.7929 38.5814 27.6962 38.6503 27.6838C38.7191 27.6714 38.9822 27.6103 39.235 27.5484C39.4877 27.4865 39.9694 27.3708 40.3056 27.2912C40.6417 27.2118 41.5917 26.9834 42.4166 26.7836C43.2416 26.584 43.9574 26.4124 44.0073 26.4025C44.057 26.3926 44.357 26.3221 44.6738 26.2458C44.9908 26.1694 45.6376 26.0146 46.1111 25.9018C46.5847 25.7887 47.27 25.624 47.6341 25.5357C47.9981 25.4473 48.3044 25.3837 48.3151 25.3942C48.337 25.4161 48.4151 25.3488 45.9167 27.4602C44.8778 28.3381 44.0152 29.0691 43.9999 29.0847C43.9643 29.1207 44.4096 29.0667 45.25 28.933C45.6167 28.8747 46.2667 28.7737 46.6945 28.7087C47.1222 28.6437 47.5472 28.578 47.6388 28.5627C47.8543 28.5269 50.015 28.2128 50.3055 28.1752C50.4277 28.1593 50.6653 28.1239 50.8333 28.0967C51.0014 28.0693 51.2388 28.0342 51.3612 28.0184C51.8213 27.9594 52.922 27.8125 53.0555 27.7925C54.749 27.5391 56.4696 27.3819 57.2202 27.412C60.1812 27.5306 62.2469 29.4912 63.0063 32.9032C63.1539 33.5673 63.2313 37.848 63.1121 38.7615C63.0212 39.4588 62.7934 40.3554 62.582 40.8477C62.5428 40.9393 62.4454 41.1708 62.3657 41.3618C61.7881 42.746 60.6276 44.2776 59.279 45.4356C59.0506 45.6318 58.8348 45.8172 58.7992 45.8478C58.2242 46.3422 56.9968 47.0878 55.7356 47.7086C55.2388 47.9532 54.8186 48.1534 54.8019 48.1534C54.7853 48.1534 54.6667 48.2006 54.5386 48.2581C54.1355 48.4396 53.7725 48.5811 53.0278 48.8471C52.6306 48.9891 52.1806 49.152 52.0277 49.2091C50.7404 49.6908 47.3092 50.5314 45.3611 50.8422C45.2695 50.857 44.957 50.9074 44.6666 50.9544C41.6538 51.4423 34.6621 51.8191 33.1666 51.5741C33.0903 51.5617 32.7154 51.5354 32.3334 51.516C31.676 51.4825 31.3987 51.4629 30.7499 51.404C28.8961 51.2357 27.5769 51.0553 25.5001 50.6863C24.3023 50.4734 22.4264 50.0286 21.2348 49.6747C20.9682 49.5955 20.675 49.5111 20.5834 49.4872C19.6258 49.2361 16.9625 48.1719 15.889 47.6116C14.1678 46.7134 13.2813 46.0884 12.1712 44.9908C10.9694 43.8022 10.6758 43.4124 9.82494 41.8755C9.72576 41.6962 9.3402 40.7712 9.27882 40.5653C8.83962 39.0895 8.838 39.0726 8.85042 35.9866L8.86104 33.2922L9.0171 32.8478C9.52056 31.4125 10.7055 30 12.278 28.9603C12.4153 28.8696 12.6002 28.737 12.6886 28.6657C12.7769 28.5944 12.9643 28.4743 13.1051 28.3989C13.2458 28.3235 13.4487 28.2087 13.5556 28.1437C13.9034 27.9324 15.0298 27.3897 15.611 27.1531C15.7486 27.0972 15.9586 27.0099 16.078 26.9591L16.2949 26.8669L16.092 27.1351C15.8431 27.4644 14.8045 28.899 14.3888 29.4876C14.2209 29.7257 13.95 30.1012 13.7871 30.322C13.4095 30.834 12.6601 31.0678 20.2777 28.2974C23.868 26.9917 27.0056 25.8512 27.25 25.763C27.7313 25.5895 27.7373 25.579 27.0556 26.0978C26.8348 26.2657 26.6256 26.429 26.5909 26.4603C26.5561 26.4918 26.3153 26.6794 26.0555 26.877C25.7958 27.0748 25.5708 27.2493 25.5555 27.2647C25.5402 27.2802 25.4277 27.3672 25.3055 27.4582C25.1833 27.5491 25.0459 27.6537 25 27.6904C24.9541 27.7272 24.7916 27.8508 24.6389 27.9651C24.2023 28.292 23.657 28.7128 23.4445 28.8869C23.1797 29.1036 23.1577 29.1202 22.9847 29.2336C22.7158 29.4098 22.8224 29.4267 23.3194 29.2869C23.9274 29.116 26.3306 28.4612 26.8889 28.3145C27.6388 28.1174 27.8431 28.0618 29.4167 27.6276C30.2722 27.3916 31.2597 27.124 31.6111 27.0331C31.9624 26.9422 32.5625 26.78 32.9445 26.6729C33.7468 26.4475 35.9017 25.8597 36.4721 25.7104C36.6862 25.6545 37.0361 25.5596 37.2499 25.4997C37.7624 25.356 37.7602 25.356 37.5989 25.5006ZM57.6666 33.4294C57.4987 33.4848 57.2112 33.5727 57.0278 33.6247C56.8444 33.6765 56.457 33.7921 56.1667 33.8812C55.8763 33.9705 55.5388 34.0718 55.4166 34.1064C55.2944 34.1409 55.0444 34.2144 54.8611 34.2693C54.4475 34.3935 53.5271 34.6629 53.0833 34.7898C52.9 34.8422 52.5625 34.9453 52.3334 35.0188C52.1042 35.0922 51.7417 35.1999 51.5277 35.2582C51.3139 35.3165 50.7013 35.4943 50.1667 35.6535C49.6319 35.8126 49.0819 35.9748 48.9445 36.014C48.807 36.0532 48.3444 36.1902 47.9167 36.3184C46.5718 36.7212 45.0983 37.1584 44.6944 37.2747C43.3055 37.6747 43.637 39.3915 45.0742 39.2412C45.232 39.2247 46.0611 39.1977 46.9166 39.1809C47.7722 39.1644 48.7222 39.1395 49.0279 39.1258C49.3333 39.1122 50.2333 39.087 51.0278 39.07C51.8222 39.0531 52.7598 39.0281 53.1112 39.0146C53.4625 39.0009 54.3251 38.9763 55.0278 38.9597C58.0216 38.8886 58.0727 38.8828 58.2435 38.5938C58.577 38.0289 58.145 37.6808 57.1723 37.7305C56.8179 37.7487 56.0653 37.7764 55.4999 37.792C54.4142 37.8223 53.2255 37.8619 52.1667 37.9033C51.8153 37.917 51.0028 37.942 50.3611 37.9589C49.7194 37.9758 48.982 38.0007 48.7222 38.0142L48.2501 38.0388L48.7778 37.8802C49.068 37.7931 49.6055 37.6335 49.9721 37.5255C51.2411 37.1516 52.1417 36.8845 52.8055 36.6847C53.7518 36.3999 54.0014 36.3259 54.2223 36.2647C54.5701 36.1681 55.4069 35.9231 55.8333 35.7928C56.0624 35.7228 56.3999 35.6225 56.5834 35.5703C56.7666 35.5179 57.2292 35.3793 57.6112 35.2625C57.9931 35.1455 58.3828 35.0344 58.4771 35.0157C58.9063 34.9308 59.2166 34.4005 59.1025 33.9472C58.961 33.3853 58.4068 33.1855 57.6666 33.4294ZM13.3333 33.476C12.8975 33.7239 12.8097 34.3992 13.1659 34.7637C13.3229 34.9241 13.7115 35.0667 14.8333 35.3748C15.032 35.4294 15.4069 35.5404 15.6667 35.6216C16.1235 35.7645 16.2459 35.8011 16.9819 36.0136C17.3092 36.1083 17.3225 36.1189 17.2735 36.2478C17.1086 36.6816 17.2825 37.3964 17.6517 37.8014C18.3721 38.5916 19.8997 38.2712 20.2196 37.2628C20.263 37.1262 20.3022 37.0081 20.3067 37.0006C20.3112 36.9928 20.4628 37.0342 20.6435 37.0924C20.8244 37.1507 21.3597 37.3123 21.8333 37.4518C22.3069 37.5913 23.1694 37.8464 23.7499 38.0185C24.3306 38.1907 24.8868 38.354 24.9862 38.3814C25.0853 38.4087 25.2479 38.4532 25.3472 38.4804C25.4466 38.5074 25.7278 38.5923 25.9722 38.669C26.5 38.8346 26.9545 38.9658 27.2223 39.0299C28.0462 39.227 28.6139 38.2968 28.0395 37.6905C27.8561 37.497 27.8077 37.4783 26.4722 37.0872C26.1666 36.9977 25.7666 36.8787 25.5834 36.8227C25.4 36.7669 25.1375 36.6906 25 36.653C24.8625 36.6156 24.6875 36.5646 24.611 36.5401C24.5347 36.5155 24.2473 36.4285 23.9722 36.3468C23.6972 36.2651 23.3222 36.1524 23.1388 36.0966C22.9556 36.0408 22.5056 35.9073 22.1389 35.8C21.4078 35.5861 20.8602 35.4249 19.7222 35.0875C19.3097 34.9655 18.8026 34.8186 18.5953 34.7616C18.3879 34.7043 17.9753 34.5832 17.6785 34.4923C17.3817 34.4014 16.789 34.2243 16.3611 34.0984C15.2942 33.7849 14.8304 33.6475 14.6666 33.5968C13.8694 33.3491 13.5995 33.3246 13.3333 33.476ZM40.8334 41.6133C40.8181 41.6273 40.545 41.6558 40.2264 41.6764C39.908 41.6973 39.6315 41.724 39.6122 41.736C39.5928 41.7479 39.4535 41.7722 39.3025 41.7898C39.1513 41.8075 38.9403 41.8372 38.8334 41.8561C38.5706 41.9022 38.5121 41.9117 38.2223 41.9567C37.9067 42.0057 36.5414 42.2848 36.0277 42.4056C35.8139 42.4558 35.6013 42.5046 35.5556 42.5142C35.2751 42.5723 33.8924 42.9049 33.4723 43.0155C33.1972 43.0878 32.4848 43.2727 31.8888 43.4264C31.293 43.5799 30.7181 43.7328 30.6112 43.7661C30.5042 43.7992 30.3667 43.8377 30.3055 43.8514C30.2445 43.8651 29.8069 43.9898 29.3333 44.1284C28.8598 44.2672 28.373 44.406 28.2517 44.4367C27.3888 44.6558 27.1705 45.6973 27.9072 46.0798C28.1725 46.2175 28.4512 46.1898 29.3056 45.9403C29.7333 45.8154 30.2209 45.6771 30.3889 45.6329C30.557 45.5886 30.982 45.4728 31.3333 45.3755C32.6311 45.0162 32.4673 45.0326 32.9989 45.2079C34.1482 45.5866 34.4333 45.6692 35.6666 45.9808C38.723 46.7528 40.8407 46.9863 42.2779 46.7092C42.4458 46.677 42.6469 46.6392 42.7244 46.6254C45.4678 46.1376 45.8665 42.7235 43.2778 41.8865C42.7036 41.7007 40.9513 41.5049 40.8334 41.6133ZM42.1112 44.1793V44.9728L41.9375 45.0075C41.8421 45.0266 41.7046 45.0423 41.632 45.0423H41.5001L41.4999 44.195V43.3477L41.8055 43.3668L42.1112 43.3857V44.1793ZM40.8888 44.2425C40.8888 45.0104 40.8789 45.1058 40.801 45.0759C40.7527 45.0574 40.6152 45.0423 40.4955 45.0423H40.2777V44.2459C40.2777 43.3391 40.2635 43.3755 40.6204 43.3755H40.8888V44.2425ZM39.6112 44.2366C39.6112 45.0707 39.6387 45.0221 39.2067 44.9506L38.9966 44.9161L39.0123 44.2431L39.0278 43.57L39.2778 43.5366C39.4153 43.5184 39.5465 43.4995 39.5694 43.495C39.5924 43.4903 39.6112 43.8242 39.6112 44.2366ZM43.2167 43.858C43.3436 44.1365 43.294 44.4053 43.0814 44.5919C42.7914 44.8466 42.7777 44.827 42.7777 44.1541V43.5439L42.9669 43.6341C43.0708 43.6836 43.1833 43.7844 43.2167 43.858ZM38.389 44.2681C38.389 44.7739 38.3796 44.8248 38.2916 44.8007C38.2381 44.7861 38.0997 44.758 37.984 44.7386L37.7734 44.703L37.7894 44.2476L37.8056 43.7922L38 43.7578C38.4147 43.6845 38.389 43.6507 38.389 44.2681ZM37.1666 44.2366C37.1666 44.5946 37.2188 44.5836 36.4336 44.3932C35.7991 44.2395 35.7754 44.2031 36.2599 44.1261C36.3767 44.1075 36.6097 44.0582 36.7778 44.0164C36.9459 43.9747 37.1021 43.9383 37.125 43.9358C37.1479 43.9333 37.1666 44.0686 37.1666 44.2366Z" fill="white"/>
<path fill-rule="evenodd" clip-rule="evenodd" d="M37.1282 44.2367C37.1286 44.4201 37.139 44.4883 37.1515 44.3884C37.1637 44.2887 37.1635 44.1386 37.1507 44.0552C37.1381 43.9717 37.1281 44.0534 37.1282 44.2367Z" fill="white"/>
</svg>
