<svg width="57" height="57" viewBox="0 0 57 57" fill="none" xmlns="http://www.w3.org/2000/svg">
<path fill-rule="evenodd" clip-rule="evenodd" d="M28.3504 56.6999C43.9988 56.6999 56.6875 44.0116 56.6875 28.3635C56.6875 12.7139 43.9977 0.0267216 28.3489 0.0270996C12.7 0.0286116 0.0132294 12.7158 0.0132294 28.3635C0.0132294 44.0134 12.7012 56.6999 28.3504 56.6999ZM22.2835 14.1983C22.2476 14.585 19.9573 32.8545 11.2984 34.0547C11.1932 34.0704 11.0932 34.0758 10.7328 34.095C10.5495 34.1047 10.2989 34.1181 9.94594 34.1382L9.13513 40.0777C9.13513 40.0777 10.0956 40.0959 10.5012 40.1174C12.3735 40.2198 18.1523 39.9696 22.7749 32.292C25.1151 28.402 27.0954 22.6394 28.3496 14.1964L22.2835 14.1983ZM38.5473 14.2342C43.8858 14.2342 47.4647 18.3045 48.2887 21.0216C48.9563 22.8609 49.0931 24.9898 48.7503 27.0964C47.69 33.5062 42.5443 39.8774 34.3163 39.8774H25.5959L29.831 14.2342H38.5473ZM32.4388 34.0906C32.4388 34.0906 41.0119 35.3841 42.6233 27.0541C44.294 18.4089 34.7805 19.9515 34.7805 19.9515L32.4388 34.0906Z" fill="white"/>
</svg>
