<svg xmlns="http://www.w3.org/2000/svg" viewBox="0 0 201.72 85.99"><defs><style>.cls-1{fill:#1e1e1e;}.cls-2{fill:#fff;}</style></defs><title>Asset 3</title><g id="Layer_2" data-name="Layer 2"><g id="Layer_1-2" data-name="Layer 1"><path class="cls-1" d="M201.72.05V86h-2.44Q100.93,86,2.56,86C.45,86,0,85.34,0,83.36Q.1,43,0,2.68C0,.5.63,0,2.74,0Q101,.08,199.23.05ZM187.83,71.89V14.19H175.38v22H155.86v-22H143.64V71.84H156V48.06h19.49V71.89ZM14.17,14.13V71.86H26.5v-2.5c0-4.37,0-8.74,0-13.11a3.81,3.81,0,0,1,.39-2.11c2-2.65,4.07-5.22,6.3-8,.54,1,.94,1.63,1.3,2.33,3.8,7.28,7.58,14.57,11.41,21.84.35.65,1,1.59,1.53,1.61,4.32.13,8.65.07,13.26.07-.5-1-.8-1.68-1.14-2.32-5.47-10.34-10.89-20.7-16.46-31-1-1.87-1-3.12.34-4.87,4.6-5.8,9-11.77,13.44-17.69.43-.56.81-1.16,1.45-2.09C54,14,50,14.07,46,14a3.59,3.59,0,0,0-3.32,1.62c-4.55,6.13-9.19,12.18-13.81,18.26l-2,2.57-.45-.14V14.13ZM119.29,71.85V24.64h14.45V14.16H92.33v10.6h14.4V71.85Zm-36.4,0V14.18H70.68v57.7Z"/><path class="cls-2" d="M187.83,71.86H175.47V48H156V71.81H143.64V14.1h12.22v22h19.52v-22h12.45Z"/><path class="cls-2" d="M14.86,14.19H27.18V36.34l.45.14c.66-.85,1.32-1.71,2-2.57,4.61-6.07,9.26-12.13,13.81-18.25A3.55,3.55,0,0,1,46.73,14c4,.09,7.94,0,12.29,0-.64.93-1,1.53-1.44,2.09-4.46,5.91-8.84,11.89-13.45,17.69-1.38,1.75-1.34,3-.33,4.87,5.56,10.28,11,20.64,16.46,31,.34.64.64,1.3,1.14,2.33-4.62,0-8.94.06-13.26-.07-.53,0-1.19-1-1.53-1.61C42.78,63.07,39,55.78,35.2,48.49c-.36-.69-.77-1.37-1.3-2.33-2.23,2.82-4.33,5.38-6.3,8a3.78,3.78,0,0,0-.4,2.1c0,4.37,0,8.74,0,13.12v2.49H14.86Z"/><path class="cls-2" d="M119.29,71.83H106.73V24.74H92.33V14.13h41.41V24.61H119.29Z"/><path class="cls-2" d="M82.89,71.88H70.68V14.18H82.89Z"/></g></g></svg>