<svg width="33" height="35" viewBox="0 0 33 35" fill="none" xmlns="http://www.w3.org/2000/svg">
<path d="M17.4555 21.6945L26.1225 14.7825L26.325 14.607C27.189 13.905 27.3375 12.636 26.649 11.7585C26.541 11.637 26.433 11.5155 26.3115 11.421L17.415 4.34699C16.6725 3.75299 15.6195 3.75299 14.8905 4.34699L5.98048 11.421C5.10298 12.1095 4.95448 13.3785 5.64298 14.256C5.73748 14.364 5.84548 14.472 5.95348 14.5665L6.15598 14.7285L14.8365 21.627C15.5655 22.2075 16.6185 22.2075 17.3475 21.6135L17.4555 21.6945Z" fill="#FF7523"/>
<path d="M14.9175 25.2044L7.18198 19.0619C6.64198 18.6299 5.88598 18.7244 5.46748 19.2509C5.45398 19.2509 5.45398 19.2509 5.45398 19.2509C5.03548 19.7774 5.12998 20.5469 5.66998 20.9654L14.931 28.0394C15.6465 28.5929 16.659 28.5929 17.388 28.0394L26.6355 20.9519C27.1755 20.5334 27.27 19.7504 26.865 19.2104C26.8515 19.1969 26.8515 19.1969 26.8515 19.1969C26.433 18.6569 25.65 18.5624 25.1235 18.9674C25.11 18.9674 25.11 18.9674 25.11 18.9674L17.3745 25.1099C16.632 25.6904 15.579 25.6904 14.85 25.1099L14.9175 25.2044Z" fill="white"/>
<path d="M14.9175 31.2044L7.18198 25.0619C6.64198 24.6299 5.88598 24.7244 5.46748 25.2509C5.45398 25.2509 5.45398 25.2509 5.45398 25.2509C5.03548 25.7774 5.12998 26.5469 5.66998 26.9654L14.931 34.0394C15.6465 34.5929 16.659 34.5929 17.388 34.0394L26.6355 26.9519C27.1755 26.5334 27.27 25.7504 26.865 25.2104C26.8515 25.1969 26.8515 25.1969 26.8515 25.1969C26.433 24.6569 25.65 24.5624 25.1235 24.9674C25.11 24.9674 25.11 24.9674 25.11 24.9674L17.3745 31.1099C16.632 31.6904 15.579 31.6904 14.85 31.1099L14.9175 31.2044Z" fill="white"/>
</svg>
