<svg xmlns="http://www.w3.org/2000/svg" viewBox="0 0 1080 1080"><g id="Livello_18" data-name="Livello 18"><path d="M909.89,592.29l18.83-104.58h15.74c22.07,0,33.74,12.79,33.74,39.5,0,33.87-20,65.08-51.59,65.08ZM833.28,644h76.89c93.33,0,136.76-49.34,136.76-116.81,0-63-40.48-91.23-102.47-91.23H870.25l-37,208Zm-175.14,0H817l10.12-56.79H735.31l4.5-24.32h79l9-48.49H748.38l4.22-21.65h90.24L853,436H695.11l-37,208Zm-209.86,0h67.61l8-44.56,33.73-34.72L578.58,644h67.9L609,511.75,682.88,436H606L540.07,508.8,552.86,436H485.25ZM360,514.7h.56l5.06,55.8H336.12C336.26,570.64,360,514.7,360,514.7ZM229.15,644h75.76l10.68-25.31h54.26L372.24,644h68.59l-31.9-208H334.71ZM33.07,644H96.32l18.13-106.69L166.88,644h55.38l37-208H196L177.56,542.39,123.87,436h-54Z" style="fill:#fff;fill-rule:evenodd"/></g></svg>