<svg xmlns="http://www.w3.org/2000/svg" viewBox="0 0 1080 1080"><g id="Livello_17" data-name="Livello 17"><path d="M62.07,591.31c15.35,13.36,32.57,19.92,51.78,19.92,21.68,0,40.3-7.5,55.65-22.49s23-33,23-54.48-7.61-39.48-22.84-54.59-33.51-22.73-54.71-22.73q-32.16,0-55.18,22.49c-15.23,15.11-23,33.16-23,54.13,0,23.78,8.44,43.11,25.31,57.75m13.36-97c10.66-10.78,23.78-16.17,39.24-16.17s28.59,5.39,39.13,16.17,15.93,24,15.93,39.83-5.38,28.94-16,39.83-23.9,16.17-39.48,16.17c-14.41,0-27.06-5.27-38.07-15.93s-16.52-24.13-16.52-40.54c-.23-15.58,5.15-28.7,15.82-39.36M243,608.42v-104L351.44,617.67V459.75H329.06V563.2L220.58,449.67V608.54H243ZM413.88,632.9h22.38V447.1H413.88Zm114.93-24.48h22.5V544.33L600,459.75H574.27l-34.09,59.51-34-59.51H480.43l48.62,84.47v64.32h-.24ZM644,632.9h22.38V447.1H644ZM805.3,552.18h37.13c-1,10.43-6,19.45-14.76,27a45.16,45.16,0,0,1-29.76,11.13c-13,0-25.07-4.92-36.08-14.88C750,564.6,744,551,744,534.38c0-16,5.39-29.41,16.05-40.07C770.74,483.41,784,478,799.67,478c17.58,0,32.45,8.08,44.64,24.36l16.05-15.34C851,476.39,841.61,468.77,831.89,464a76.45,76.45,0,0,0-32.57-7.15q-32.51,0-55.18,22.61c-15.11,15-22.61,33.39-22.61,54.95q0,31.62,22.26,54.36,22.32,22.49,53.54,22.49,32,0,52.72-23.31a63.16,63.16,0,0,0,13-22.38,103,103,0,0,0,4-29.64V531H805.53v21.2Zm107.54,39.13c15.35,13.36,32.57,19.92,51.79,19.92,21.67,0,40.3-7.5,55.64-22.49s23-33,23-54.48-7.62-39.48-22.85-54.59S987,456.94,965.8,456.94c-21.44,0-39.84,7.5-55.07,22.49s-23.07,33-23.07,54q-.18,35.85,25.18,57.87m13.36-97c10.66-10.78,23.78-16.17,39.25-16.17s28.58,5.39,39.12,16.17,15.94,24,15.94,39.83-5.39,28.94-16,39.83-23.9,16.17-39.48,16.17c-14.41,0-27.07-5.27-38.08-15.93s-16.52-24.13-16.52-40.54q-.17-23.37,15.82-39.36" style="fill:#fff"/></g></svg>