<svg xmlns="http://www.w3.org/2000/svg" xmlns:xlink="http://www.w3.org/1999/xlink" viewBox="0 0 1080 1080"><defs><mask id="mask" x="25.68" y="478.14" width="1028.64" height="149.04" maskUnits="userSpaceOnUse"><g id="mask-2"><polygon id="path-1" points="25.68 478.14 1054.32 478.14 1054.32 627.18 25.68 627.18 25.68 478.14" style="fill:#fff;fill-rule:evenodd"/></g></mask></defs><g id="Livello_16" data-name="Livello 16"><g id="Symbols"><g id="Brand-Graphics_Offspring-Logo" data-name="Brand-Graphics/Offspring-Logo"><g id="Logo"><g style="mask:url(#mask)"><path id="Fill-1" d="M80.82,594.91A31.65,31.65,0,0,1,70,585.32a43.23,43.23,0,0,1-6.54-14.48,76.9,76.9,0,0,1,0-36.36A44.42,44.42,0,0,1,70,519.9a31.33,31.33,0,0,1,10.79-9.69,30.79,30.79,0,0,1,14.94-3.5,30.83,30.83,0,0,1,14.95,3.5,31.42,31.42,0,0,1,10.79,9.69,43.07,43.07,0,0,1,6.43,14.58,80.49,80.49,0,0,1,0,36.36,42,42,0,0,1-6.43,14.48,31.74,31.74,0,0,1-10.79,9.59,30.72,30.72,0,0,1-14.95,3.5,30.68,30.68,0,0,1-14.94-3.5Zm43.75,26.68A63.51,63.51,0,0,0,146.64,606a70.11,70.11,0,0,0,14.06-23.67,91.4,91.4,0,0,0,0-59.34,70.11,70.11,0,0,0-14.06-23.67,63.49,63.49,0,0,0-22.07-15.58,72.51,72.51,0,0,0-29-5.6,72.46,72.46,0,0,0-29,5.6,62.45,62.45,0,0,0-22,15.58,70.88,70.88,0,0,0-14,23.67,91.4,91.4,0,0,0,0,59.34,70.88,70.88,0,0,0,14,23.67,62.48,62.48,0,0,0,22,15.59,72.63,72.63,0,0,0,29,5.59,72.68,72.68,0,0,0,29-5.59Zm45.83,2.19h35V568.24h58.79V539.68H205.44v-29h70.28V480.94H170.4Zm110.26,0h35V568.24h58.8V539.68H315.7v-29H386V480.94H280.66Zm189.56.3a56.66,56.66,0,0,0,18.41-9,42,42,0,0,0,12.27-14.58,43,43,0,0,0,4.46-19.88q0-11.39-4.16-19a37.54,37.54,0,0,0-11.09-12.59,59.16,59.16,0,0,0-15.93-8q-9-3-18.91-5.39-7.92-1.8-14-3.3a58.67,58.67,0,0,1-10-3.29,16.48,16.48,0,0,1-6-4.3,9.47,9.47,0,0,1-2.08-6.29q0-6,5.54-9.69t14.85-3.7q9.9,0,15.84,4.4t6.93,12.78h34.25a45.84,45.84,0,0,0-5.05-19.47,40.19,40.19,0,0,0-11.88-13.69A52.66,52.66,0,0,0,466.26,481a82.18,82.18,0,0,0-21.48-2.7,90.6,90.6,0,0,0-22.18,2.6,52,52,0,0,0-17.81,8,38.75,38.75,0,0,0-11.88,13.69q-4.37,8.28-4.36,19.67,0,11.19,4.46,18.58a38.33,38.33,0,0,0,11.58,12.19,61,61,0,0,0,16.13,7.59q9,2.8,18.32,5,7.32,1.8,13.06,3.29a49.49,49.49,0,0,1,9.7,3.5,16.69,16.69,0,0,1,6,4.79,11.4,11.4,0,0,1,2.08,7,11.91,11.91,0,0,1-2,6.89,15.29,15.29,0,0,1-5.15,4.69,23.77,23.77,0,0,1-7.22,2.6,43.72,43.72,0,0,1-8.42.8q-12.67,0-19.6-4.79t-8.11-15.59H384.2a47,47,0,0,0,4.85,20.88,43.05,43.05,0,0,0,12.87,15.18,57.7,57.7,0,0,0,19.79,9.19,99.38,99.38,0,0,0,25.64,3.1,81.41,81.41,0,0,0,22.87-3.1Zm38.5-.3h35.63V576h33.07a53.79,53.79,0,0,0,19.79-3.49,44,44,0,0,0,15.15-9.69,42.36,42.36,0,0,0,9.6-14.79,51.06,51.06,0,0,0,3.37-18.77,52,52,0,0,0-3.67-19.78,42.5,42.5,0,0,0-10.59-15.39,43.4,43.4,0,0,0-16-9.78q-9.51-3.4-22.57-3.4H508.72Zm35.63-75.72V510.71h25.94q9.5,0,14.65,4.89t5.15,13.49q0,8.6-5.15,13.78t-14.65,5.19Zm84.93,75.72h35V570.24h21.19q11.28,0,16.72,5.19t6.84,15.19c.52,3.6.92,7.22,1.18,10.89s.56,7.06.89,10.19.73,5.79,1.19,8,1.16,3.56,2.08,4.09h34.05V622c-1.18-.39-2.05-1.76-2.57-4.09a62.13,62.13,0,0,1-1.19-8.79q-.39-5.29-.69-12a109.9,109.9,0,0,0-1.49-13.68q-1.57-10.8-6.43-16.89t-14.16-9.28v-.6q12.48-4.39,18.51-13.19t6-21.38a39.76,39.76,0,0,0-3.76-17.68,36.57,36.57,0,0,0-10.39-12.88,46.76,46.76,0,0,0-15.74-7.89,68.68,68.68,0,0,0-19.6-2.7H629.28Zm35-79.71V508.91h27.13q10.09,0,15.14,5a17.2,17.2,0,0,1,5,12.79q0,8.19-5.25,12.79t-15.74,4.59Zm87.51,79.71h35V480.94h-35Zm41.56,0h34.25V557.26q0-1.8-.09-5.7t-.1-7.89c-.14-3.06-.2-6.32-.2-9.79h.39q2.18,4.39,4.16,8.19c1.06,2.27,2.15,4.43,3.27,6.5a48.47,48.47,0,0,0,2.67,4.49l41.58,70.72h35.23V480.94H880.3v73.32q0,3.6.2,7.39,0,4.4.2,9.19h-.4q-2-4-3.95-7.59-1.59-3-3.27-6t-2.48-4.6l-42-71.72H793.39Zm216.88-1.5q10.2-4.68,17.13-15.68h.39l2,17.18h24.55V547.07h-59v26h26.53v.4a28.19,28.19,0,0,1-2.87,9.29,27.34,27.34,0,0,1-6.14,8,29.45,29.45,0,0,1-9.3,5.59,34.21,34.21,0,0,1-12.37,2.1A31.57,31.57,0,0,1,965,585.52,45.3,45.3,0,0,1,958,571a63.62,63.62,0,0,1-2.48-18.18,70.72,70.72,0,0,1,2.18-18.08,43.52,43.52,0,0,1,6.53-14.38,31.14,31.14,0,0,1,11-9.59,32.41,32.41,0,0,1,15.34-3.5q11.68,0,18.61,5.79a26,26,0,0,1,8.91,14.59h34.05a65.52,65.52,0,0,0-6.63-20.38,50.63,50.63,0,0,0-12.77-15.68,56.56,56.56,0,0,0-18.81-10,80.15,80.15,0,0,0-24.55-3.5,71.4,71.4,0,0,0-27.51,5,63.19,63.19,0,0,0-21,14,69.34,69.34,0,0,0-15.54,24.48,87.05,87.05,0,0,0-5.44,31.26A90.18,90.18,0,0,0,924.75,583a69.06,69.06,0,0,0,14.15,24,61.45,61.45,0,0,0,21,14.79A68.54,68.54,0,0,0,987.21,627a54.55,54.55,0,0,0,23.06-4.7Z" style="fill:#fff;fill-rule:evenodd"/></g></g></g></g></g></svg>