<svg xmlns="http://www.w3.org/2000/svg" viewBox="0 0 1080 1080"><g id="Livello_19" data-name="Livello 19"><path d="M90,540V731.5H990v-383H90Zm117-77c0,28.3.3,51.5.8,51.5S226,491.3,247.4,463l38.9-51.5h30.9c16.9,0,30.8.2,30.8.5s-16.4,22.2-36.4,48.7l-36.5,48.2,1.6,3c.9,1.7,19.8,37.4,42,79.4S359,667.8,359,668s-13.6.4-30.2.3l-30.1-.3-30.1-57.7c-16.6-31.8-30.4-57.7-30.7-57.5s-7.5,8.7-15.7,19.2l-15.1,19-.1,38.7v38.8H153v-257h54Zm252,77V668.5H405v-257h54ZM686,434.5v23H620v211H566v-211H501v-46H686ZM784,461v49.5h89v-99h54v257H872v-108H784v108H730v-257h54Z" style="fill:#fff"/></g></svg>