<svg xmlns="http://www.w3.org/2000/svg" viewBox="0 0 1080 1080"><g id="Livello_20" data-name="Livello 20"><path d="M97.16,492.69v76.87h46.05V587H76.39V492.69ZM218.9,580.11c-7.2,6.36-17.08,9.37-29.47,9.37-12.73,0-23-3-29.81-9.37s-10.55-15.74-10.55-28.64V492.69h20.6v58.78c0,2.51.33,5.19.5,7.7a15.61,15.61,0,0,0,2.68,6.7c1.34,2,3.35,3.35,5.86,4.69a23.85,23.85,0,0,0,9.88,1.68c7.37,0,12.39-1.68,15.4-5,2.68-3.35,4.19-8.54,4.19-15.4V492.69h20.6v58.78C229.78,564.37,226.1,573.74,218.9,580.11Zm42-87.42V587h-20.6V492.69Zm29.64,71.17a14,14,0,0,0,4.69,5.19,18.72,18.72,0,0,0,6.7,3,41,41,0,0,0,8,.84c2,0,3.85-.34,5.86-.34a20.2,20.2,0,0,0,5.86-1.67,14.43,14.43,0,0,0,4.69-3.52,9.53,9.53,0,0,0,2-5.86,8.72,8.72,0,0,0-2.52-6.37c-1.67-1.67-3.85-2.67-6.36-3.85a46,46,0,0,0-8.87-2.68c-3.35-.83-6.87-1.67-10.22-2.68a71.25,71.25,0,0,1-10.21-3.34c-3.35-1.34-6.37-2.68-8.88-5a28.48,28.48,0,0,1-6.36-7.7,22.43,22.43,0,0,1-2.51-11c0-5,.83-9.05,3-12.73a24.78,24.78,0,0,1,8.2-8.88A30.87,30.87,0,0,1,295.09,492a47.58,47.58,0,0,1,12.73-1.67,58.58,58.58,0,0,1,14.4,1.67,34.4,34.4,0,0,1,12.06,5.19,27.45,27.45,0,0,1,8.2,9.38c2,3.52,3,8.54,3,14.07H325.4a23,23,0,0,0-1.67-6.87,9,9,0,0,0-3.85-4.35,11.37,11.37,0,0,0-5.87-2.18,62.27,62.27,0,0,0-7.7-.5,50.18,50.18,0,0,0-5,.5,17.1,17.1,0,0,0-4.36,2,10.71,10.71,0,0,0-3.35,3.35,9.38,9.38,0,0,0-1.33,5,8.12,8.12,0,0,0,1.17,4.69,12.76,12.76,0,0,0,4.18,3.35,47.26,47.26,0,0,0,8.54,2.68c3.52.67,8.21,2.18,14.41,3.85a46.94,46.94,0,0,1,7.36,2,38.9,38.9,0,0,1,9.38,4.36,28.86,28.86,0,0,1,8,8.2,23.39,23.39,0,0,1,3.35,12.9,27.81,27.81,0,0,1-9.88,21.6,39.12,39.12,0,0,1-12.39,6.36c-5,1.68-10.72,2.18-17.08,2.18a52.09,52.09,0,0,1-15.24-2,40,40,0,0,1-12.9-6,28.47,28.47,0,0,1-8.87-10.55,32.55,32.55,0,0,1-3.35-14.9h20.09A19,19,0,0,0,290.57,563.86Zm112.87-71.17L438.77,587H417.34L410.14,566H374.8L367.27,587H346.33l35.51-94.28Zm1,57.94L392.55,516h-.33l-12.39,34.66Zm43.88,36.68-32.83-94.62h21.27l23.11,66.48h.34l21.26-66.48h21.44L471.76,587H448.32Zm80.54-94.62V587H508.27V492.69Zm62.63,0L626.83,587H605.39L598.19,566H562.86L555.32,587H534.39l35.5-94.28Zm1,57.94L580.61,516h-.34l-12.22,34.66Zm117.55-30.14a48.48,48.48,0,0,1,9.05-15.74c3.85-4.69,8.87-8,14.57-10.72a49.29,49.29,0,0,1,19.59-3.85A48.69,48.69,0,0,1,772.85,494a37.55,37.55,0,0,1,14.57,10.72,52.09,52.09,0,0,1,9,15.74,57.07,57.07,0,0,1,3.35,19.93,54.38,54.38,0,0,1-3.35,19.09c-2.17,5.86-5.19,11.39-9,15.41-3.85,4.35-8.88,7.7-14.57,10.54a51.64,51.64,0,0,1-39.18,0,37.18,37.18,0,0,1-14.57-10.54,50.76,50.76,0,0,1-9.05-15.41,55.27,55.27,0,0,1-3.35-19.09A59.45,59.45,0,0,1,710.05,520.49ZM729,552a28,28,0,0,0,4.35,9.88,25.61,25.61,0,0,0,8,7.2c3.35,2,7.2,2.68,11.89,2.68s8.87-.83,11.89-2.68a25.61,25.61,0,0,0,8-7.2,30.68,30.68,0,0,0,4.35-9.88,54.16,54.16,0,0,0,1.34-11.55,45.58,45.58,0,0,0-1.34-11.89A37,37,0,0,0,773.19,518a22.07,22.07,0,0,0-8-7.2c-3.35-2-7.2-2.68-11.89-2.68s-8.88.84-11.89,2.68a25.61,25.61,0,0,0-8,7.2c-2.18,3-3.35,6.36-4.35,10.55a57.33,57.33,0,0,0-1.34,11.89A45.1,45.1,0,0,0,729,552Zm107.34-59.28,22.1,64.81h.34l20.76-64.81h29.31V587H889.57V520.32h-.34l-23.1,67H850.22l-23.11-66.48h-.34v66.48H807.18V492.69Zm132,0L1003.61,587H982.17L975,566H939.64L932.44,587H911.51L947,492.69Zm1.17,57.94L957.56,516h-.34l-12.39,34.66Z" style="fill:#fff"/><path d="M713.57,586.13h-22.1L670.2,545.94c-.34-.5-.84-1.17,0-1.67,9.38-6.36,19.93-15.41,15.91-26-3.35-8.87-12.39-11.38-22.94-11.55h-12.4v79.37H630.68V491.35h44c10.72-.5,25.12,6.37,28.13,19.93,1.68,7.37,3,24.78-11.89,36.17C691.3,547.28,713.57,586.13,713.57,586.13Z" style="fill:#fff"/></g></svg>