<svg xmlns="http://www.w3.org/2000/svg" viewBox="0 0 1080 1080"><g id="Livello_14" data-name="Livello 14"><path d="M159.11,444.53c-6.33-10.92-15.52-17.8-29.63-17.8-13.51,0-28.19,10.36-30.49,24.44-5.74,36.51,82.81,21.29,71.32,94-6.9,43.43-38.82,74.2-83.09,74.2-29.92,0-49.18-17.26-60.1-42.28l31.63-26.74C61.91,567,74.56,582,92.66,582c17.26,0,30.49-14.66,33.09-31.34,3.44-22.42-16.11-28.77-32.22-35.38-25.87-11.49-44.28-25.58-38.81-59.22,5.74-35.94,37.09-65,73.61-65,19.25,0,44.27,9.5,55.2,24.18l-24.42,29.29m72.39,27.91-12.08,76.47c-2.58,16.11-3.16,35.37,17.26,35.37s26.15-19.26,28.75-35.37l12.06-76.49h40.26l-13.22,83.09c-6.6,41.13-31.34,62.7-73.31,62.7S171.4,596.64,178,555.52l13.23-83.08H231.5m192.65,70.42c2.86-19-6.35-39.37-27-39.37s-36.81,20.4-39.68,39.37,6.31,39.68,27,39.68,36.8-20.68,39.68-39.68Zm-53.51-57.5c10.93-10.93,26.75-17.52,41.69-17.52,40,0,58.67,37.36,52.63,74.46-6,38.53-35.65,75.91-77.34,75.91-14.38,0-28.45-6.33-34.8-17.83h-.57l-13.81,88.56H298.2l34.19-216.5h40.25l-2,12.92m152.91,1.74h.57c10.06-12.36,23-19.28,38-19.28a41.11,41.11,0,0,1,16.09,3.47l-10.63,37.36a24.82,24.82,0,0,0-15.82-5.16c-27.89,0-34.78,24.72-38.25,46.57l-10.06,63.55H463.17l22.42-141.17h40.26l-2.3,14.66m138.58,37.38C662.41,510.1,655.51,496,640,496c-16.11,0-27.32,13.79-31.64,28.45Zm-58.94,25c-2.6,17.84.85,38,21.86,38,13.2,0,23-8,30.18-19.27l36.23,6c-14.37,28.18-41.69,44-71.31,44-43.71,0-65.27-31.05-58.65-73.9,6.89-42.84,34.78-76.49,80.5-76.49,46.3,0,61.54,34.22,54.92,76.78l-.86,4.9H603.17m151-64.42h.56a50.13,50.13,0,0,1,37.12-17.26c17.52,0,30.18,7.2,37.08,22.14,10.92-13.79,28.16-22.14,44.55-22.14,35.95,0,40.55,27,35.67,57.8l-13.81,88H855.06l11.77-74.19c2-13.8,7.2-39.38-12.64-39.38-21.86,0-26.45,29.6-28.75,44.27l-10.93,69.3H774.25L785.46,542c2.32-13.81,8.63-42-12.36-42-22.42,0-26.15,29.31-28.45,44.27l-10.93,69.3H693.46l22.42-141.17h40.26l-2,12.64m262.49,39.4c.3-14.38-6.6-28.47-22.14-28.47-16.09,0-27.32,13.79-31.62,28.45Zm-58.94,25c-2.58,17.84.87,38,21.86,38,13.22,0,23-8,30.18-19.27l36.23,6c-14.37,28.18-41.69,44-71.31,44-43.71,0-65.27-31.05-58.65-73.9,6.89-42.84,34.8-76.49,80.5-76.49,46.3,0,61.54,34.22,54.92,76.78l-.86,4.9H957.68" style="fill:#fff"/></g></svg>