<svg xmlns="http://www.w3.org/2000/svg" viewBox="0 0 1080 1080"><g id="Livello_9" data-name="Livello 9"><path d="M967.58,489.78c-.46-.76-1.87-2.27-5.34-1.14-1.21-1-3.16-1.38-5.93.06a21.5,21.5,0,0,1-6.37,1.85v-1.83H951a1.06,1.06,0,0,0,1-1.13,1,1,0,0,0-1-1.09h-1.06v-.83a1.11,1.11,0,0,0-1.11-1.11,1.05,1.05,0,0,0-1,1.11v.83h-1.1a1.11,1.11,0,0,0,0,2.22h1.1v1.83a21.49,21.49,0,0,1-6.48-1.85c-2.67-1.44-4.68-1.06-5.9-.06-3.52-1.12-4.92.38-5.3,1.15-1,1.64-.42,4.3,1.4,6.24a17,17,0,0,1,4.38,7.22,1.12,1.12,0,0,0,1.08.86h23.82l.15,0,.27-.12.09-.09.14-.12.18-.19.06-.24v-.06a17.85,17.85,0,0,1,4.4-7.22c1.83-1.94,2.45-4.6,1.45-6.25m-29.87,12.13a21.73,21.73,0,0,0-4.62-7.46c-1.26-1.28-1.57-2.82-1.18-3.5.34-.52,1.21-.66,2.37-.36a5.06,5.06,0,0,0,1.36,4.91c2.85,3,3.36,5.58,3.39,6.41Zm-.59-8a2.69,2.69,0,0,1-.63-3.27c.63-.93,2.16-.91,4,0a24.76,24.76,0,0,0,7.36,2.1V495a3.22,3.22,0,0,0-1.87,1.8h-6.66A19.34,19.34,0,0,0,937.12,493.93Zm10.72,8h-6.67a11.13,11.13,0,0,0-.69-2.92h5.38a3.25,3.25,0,0,0,2,2.26v.66Zm-.84-3.79a1.92,1.92,0,0,1,1.83-1.9,1.91,1.91,0,1,1-1.83,1.9Zm9.56,3.79h-6.62v-.66a3.28,3.28,0,0,0,1.94-2.26h5.38A11.72,11.72,0,0,0,956.56,501.91Zm-4.87-5.12a3.12,3.12,0,0,0-1.75-1.81V492.8a24.78,24.78,0,0,0,7.28-2.09c1.86-1,3.31-1,4,0a2.8,2.8,0,0,1-.64,3.26,19.75,19.75,0,0,0-2.26,2.86Zm13-2.34a22,22,0,0,0-4.74,7.46H958.7c.08-.83.5-3.38,3.39-6.41a5.22,5.22,0,0,0,1.38-4.91c1.14-.3,2-.16,2.36.36C966.21,491.63,965.86,493.17,964.66,494.45Zm-3.17,12.06a1.07,1.07,0,0,1-1,1.08H937.17a1.09,1.09,0,0,1-1-1.08,1.1,1.1,0,0,1,1-1.17H960.5A1.09,1.09,0,0,1,961.49,506.51Zm0,6.08a1.07,1.07,0,0,1-1,1.09H937.17a1.12,1.12,0,0,1,0-2.22H960.5A1.06,1.06,0,0,1,961.49,512.59Zm-21.76-3a1.16,1.16,0,0,1-1.08,1.15,1.12,1.12,0,0,1-1.06-1.15,1.08,1.08,0,0,1,1.06-1.1A1.11,1.11,0,0,1,939.73,509.59Zm4.07,0a1.1,1.1,0,0,1-1.06,1.15,1.07,1.07,0,0,1-1-1.15,1,1,0,0,1,1-1.1A1.06,1.06,0,0,1,943.8,509.59Zm4.07,0a1.1,1.1,0,0,1-1.06,1.15,1.06,1.06,0,0,1-1-1.15,1,1,0,0,1,1-1.1A1.05,1.05,0,0,1,947.87,509.59Zm4.09,0a1.07,1.07,0,1,1-2.14,0,1.07,1.07,0,1,1,2.14,0Zm4.08,0a1.14,1.14,0,0,1-1.07,1.15,1.12,1.12,0,0,1-1.06-1.15,1.08,1.08,0,0,1,1.06-1.1A1.09,1.09,0,0,1,956,509.59Zm3-1.1a1.06,1.06,0,0,0-1.06,1.1,1.1,1.1,0,0,0,1.06,1.15,1.07,1.07,0,0,0,1-1.15A1,1,0,0,0,959.08,508.49Z" style="fill:#11fa78"/><path d="M938.58,484.24a1.27,1.27,0,1,1-2.36.91,1.36,1.36,0,0,1,.8-1.69,1.17,1.17,0,0,1,1.56.78" style="fill:#11fa78"/><path d="M944.22,482.13a1.32,1.32,0,0,1-.76,1.68,1.32,1.32,0,1,1,.76-1.68" style="fill:#11fa78"/><path d="M949.82,480a1.39,1.39,0,0,1-.76,1.7,1.29,1.29,0,0,1-1.64-.81,1.34,1.34,0,0,1,.76-1.69,1.3,1.3,0,0,1,1.64.8" style="fill:#11fa78"/><path d="M958.63,484.24a1.3,1.3,0,0,0,.76,1.68,1.22,1.22,0,0,0,1.59-.77,1.34,1.34,0,0,0-.75-1.69,1.19,1.19,0,0,0-1.6.78" style="fill:#11fa78"/><path d="M953.07,482.13a1.28,1.28,0,0,0,.75,1.68,1.22,1.22,0,0,0,1.57-.85,1.32,1.32,0,0,0-.69-1.64,1.19,1.19,0,0,0-1.63.81" style="fill:#11fa78"/><path d="M1042.33,528.06c-1.64-.78-.5-6-5.23-6.28,0,0,4.23.41,6.22-3a4.44,4.44,0,0,0-.72-4.64,3.08,3.08,0,0,1-.07,3.14c-.58.81-1.88,1.49-4.13,1.2a14.39,14.39,0,0,0-4.5-.2,4.79,4.79,0,0,0-3.77,2.19,6.37,6.37,0,0,0-5.26,2.11c-1.49,1.6-5.49,5.86-1,11.52a40.71,40.71,0,0,0,3.91,4.32l.42.42c-.47,2.2-.47,3-.38,3.24-.9-.89-4.13-3.73-6.59-1.3-2.91,2.78,0,9.91,0,9.91-.31-6.06,1.1-6.81,2.61-6.45,1.72.45,5.47,6.35,9.09,6a4.38,4.38,0,0,0,2.89-1c.51,2,.62,4.8-1.29,6.15-2.63,1.94-10.83,3.21-16.2-1.35a17.32,17.32,0,0,1-3.46-6c-.74-2.25-.18-4.69,0-7a11.64,11.64,0,0,0-.43-5.32,5.07,5.07,0,0,1-.31-2.41c.31-.39,3.62,2.91,3.62,2.91-2-8.28.78-7.69,2.31-10.74.83-1.73.21-4.3-.09-5.55s-.8-3-.8-3a8.13,8.13,0,0,0,1.38,1.45,3.3,3.3,0,0,1,1.25,3.24c1.11-1.13.57-3.41.15-4.54a2.92,2.92,0,0,1-.08-1.5c.31.81,1.53,1.12,1.53,1.12a2.65,2.65,0,0,1-.84-1.36c-.52-2,.54-2,.73-3.21s-1.42-4-.73-4a7.17,7.17,0,0,0,1.94-.56c-1.4-.22-1.29-1-1.29-3a5.26,5.26,0,0,0-2.49-4.71c1.84-.38,1.72-1.84,1.72-1.84a11.11,11.11,0,0,0-.49-1.93c0,1.79-1.14,1.41-2.16,1.41a27.43,27.43,0,0,1-3-.46c-1.25,0-1.22-.76-2.33-1.07h-2.24a4.58,4.58,0,0,0-4.21,1.58c-1.09,1.17-4.91.85-5.32,1.34a1,1,0,0,0-.18,1.28c.18.23-2,1.94-2.26,2.8s-1.57,1-1.18,1.82c.22.52.46.71.46.8,0,.25-1,2.66.26,3.46a3.18,3.18,0,0,0,.69.21c.22.82,1.48,1.46,1.48,1.46a3.89,3.89,0,0,1-.15-1.37c1.53-.13,3.47-.53,4.3-.53.24,0,.73.47,1.08.94a9.77,9.77,0,0,0-3.63,1.1l-1.63.76a14.16,14.16,0,0,1-2.22.7c-3.46.54-3.62-2.35-4.34-3.13a1.26,1.26,0,0,0-1.57-.52,1.44,1.44,0,0,0-.3,1.49,4.92,4.92,0,0,0,2.09,2.44l.2.14a3.74,3.74,0,0,0,1.42.56,6,6,0,0,0,2.95-.16,15.35,15.35,0,0,0,2-.69l1.71-.74c1.67-.74,2.36-1.07,3.69-1-.07.75-1.71,1.56-2.67,1.77-2,.38-2.28,1.2-1.83,1.72s-1.9,2.21.69,3.68c0,0-.8-1.12.12-1.39a36.66,36.66,0,0,1,3.73-.72c0,2.23-2,2.94-3.81,3.39s-2.06.73-5,3c-2.21,1.77-5.26.6-6.41-.52A11.86,11.86,0,0,1,990.6,519a11.13,11.13,0,0,0,1.84,5.71L980,520.27l-.31-.12v-.89l-.82.48a4.81,4.81,0,0,1-1.08-.75c-.61-.7-1.49-.24-1.75-.24s-.42-.19-.83-.57-1.5.15-1.88.15-.34-.36-1-.36a7.33,7.33,0,0,0-2.86.59,15.66,15.66,0,0,0-1.64,1.48c-1,1-1.1,1.27-.57,2a3.15,3.15,0,0,0,.29,1.91,19.16,19.16,0,0,1-17.52-6.4l-1.18-1.27-1.14,1.27a19.14,19.14,0,0,1-17.44,6.4,3.79,3.79,0,0,0,.33-1.91c.52-.69.37-1-.54-2s-1.43-1.13-1.7-1.48a7.5,7.5,0,0,0-2.91-.59c-.61,0-.61.36-1,.36s-1.51-.5-1.88-.15-.5.57-.85.57-1.14-.46-1.78.24a4,4,0,0,1-1,.76l-.82-.49v.89l-.28.12-12.45,4.43a11.21,11.21,0,0,0,1.82-5.71,13.12,13.12,0,0,1-1.82,2.79c-1.19,1.12-4.14,2.29-6.41.52-2.94-2.3-3.27-2.52-5.07-3s-3.74-1.16-3.74-3.39c0,0,2.82.43,3.71.72s.06,1.39.06,1.39c2.68-1.47.27-3.17.74-3.68s.23-1.34-1.8-1.72c-1-.21-2.62-1-2.71-1.77,1.34,0,2,.29,3.74,1l1.75.74a16.4,16.4,0,0,0,2,.69,5.94,5.94,0,0,0,2.93.16,4,4,0,0,0,1.45-.56l.19-.14a5.19,5.19,0,0,0,2.1-2.44,1.55,1.55,0,0,0-.27-1.49,1.36,1.36,0,0,0-1.64.52c-.68.78-.87,3.67-4.35,3.13a12.88,12.88,0,0,1-2.14-.7l-1.66-.76a9.83,9.83,0,0,0-3.58-1.1c.3-.47.79-.94,1-.94.83,0,2.69.4,4.29.53a4.47,4.47,0,0,1-.16,1.37s1.3-.64,1.49-1.46a6.35,6.35,0,0,0,.73-.21c1.29-.8.19-3.21.19-3.46,0-.08.22-.27.49-.8.39-.83-.91-.94-1.14-1.82s-2.47-2.57-2.33-2.8A1,1,0,0,0,895,499c-.45-.49-4.24-.17-5.33-1.34a4.53,4.53,0,0,0-4.2-1.58h-2.24c-1.15.31-1,1.07-2.31,1.07-.93,0-1.43.46-2.95.46-1.08,0-2.22.38-2.22-1.41a10.29,10.29,0,0,0-.54,1.93s-.14,1.47,1.71,1.85a5.33,5.33,0,0,0-2.48,4.69c0,2,.17,2.75-1.28,3a7.1,7.1,0,0,0,2,.55c.64,0-.95,2.78-.77,4s1.26,1.26.69,3.22a2.48,2.48,0,0,1-.8,1.36s1.22-.31,1.52-1.12a3.67,3.67,0,0,1,0,1.5c-.46,1.12-1,3.41.08,4.54a3.33,3.33,0,0,1,1.33-3.24,14.34,14.34,0,0,0,1.33-1.45s-.5,1.74-.84,3-.91,3.82-.07,5.55c1.49,3.05,4.39,2.46,2.32,10.74,0,0,3.28-3.3,3.61-2.92a4.7,4.7,0,0,1-.33,2.42,12.81,12.81,0,0,0-.42,5.31c.24,2.28.76,4.71,0,7a16.69,16.69,0,0,1-3.47,6c-5.41,4.56-13.57,3.29-16.23,1.35-1.88-1.35-1.79-4.19-1.3-6.15a4.68,4.68,0,0,0,2.94,1c3.61.3,7.28-5.6,9.11-6,1.49-.37,2.81.38,2.58,6.45,0,0,2.9-7.14,0-9.91-2.47-2.43-5.63.41-6.56,1.3a10.09,10.09,0,0,0-.38-3.24l.42-.42c1.54-1.58,3-3.09,4-4.32,4.39-5.66.34-9.92-1.15-11.52a6.28,6.28,0,0,0-5.2-2.11,4.82,4.82,0,0,0-3.81-2.2,13.89,13.89,0,0,0-4.4.21c-2.33.29-3.62-.39-4.23-1.21a3.2,3.2,0,0,1,0-3.13,4.43,4.43,0,0,0-.71,4.63c2,3.46,6.17,3,6.17,3-4.72.31-3.54,5.49-5.15,6.28s-4.15-1.6-4.15-1.6c2.06,4.51,4.35,5,7.36,4.17,2.33-.64,3.7-4.13,4.24-3.53s-.05,2.46-1.42,3.91c-1,1-.32,2.81-.32,2.81s.21-2.45,3.67-3.36c2.37-.62,3.13-1.35,3.47-2.53.27-.83.16-1.81-.16-3.94s1.23-1.8,2.6-1c.23.24.64.46,1,.82,2.58,2.83,3.8,5.44,1,9.08a48.21,48.21,0,0,1-3.55,3.86c-1-5.46,3.78-5.49,3.78-5.49s-6.09-2-7.16,3.65a19.26,19.26,0,0,0,0,5.42c-2.36,2.55-4.5,5.23-5.22,7.77s-1.34,5.36.88,7.94c1.94,2.12,7.54,4.22,14.25,2.84a10.89,10.89,0,0,0-.84,3.5,1.39,1.39,0,0,1-.19,1,4.37,4.37,0,0,1-.85,1.29,8.39,8.39,0,0,1-1.78.8c-.69.17-1.11.06-1.11-.48,0,0-.72,1.85,2.06,1.54,0,0-1,2-1.45,2s-1.68.19-1.91,1.26c-.11.5-.16.7-.18.79s0,0,0,.24c-.15.67-.69,1.44-1.49,1a2,2,0,0,1-1-2.34,1.92,1.92,0,0,0-.55-2.14s.65,1.23.12,1.76a4.39,4.39,0,0,0-.91,2,6,6,0,0,0,1.15,2.68c.36.42-1.5-.75-3-.37s-2.47,1.5-3.66,3.39c-.82,1.28-2.09,1.28-2.53.77s1.37,2.51,3.31.86,3.24-1.33,3.24-1c0,0-3.13,2.34-3.13,4.2s-.5,2.62-1.65,2.62c0,0,1.95,1,3.44-1.89a12.77,12.77,0,0,0-.58,4.17c.12,1.68-2.36,2.39-2.36,2.39s2.33.58,3.32-.56c0,0,.46,1,.08,1.31s-1.45.74-2,1.82l0,.4-.11.1c-.73.55-.39,2.29-.39,2.29a2.42,2.42,0,0,1,1.23-1c.18,1,1.82-.22,3.2-.09s2.67,3.35,3,3.77a.85.85,0,0,0,.76,0,3.23,3.23,0,0,1,.65,1.64s1-1.36.65-2.19l.31-.09c.23,0,.34-.22.34-.85s1.37,0,1.37,0,.69,0,.69-.61a2.68,2.68,0,0,1,1.33.88s0-1.78-.8-2.18l-.31-.08v-.32c-.23-.21,1.11,0,1.11-.4V592a3.76,3.76,0,0,1,1.44-.22s-.79-1.1-1.63-1.2l-.08-.27c-.33-.36-1.63.34-2.4.34s-1.49.27-1.9-1,.18-6.88,2.06-8.38a30.42,30.42,0,0,1,5.33-3l3.5-1.26s-3.34,4.94,2.91,8.74a5,5,0,0,1,.49-6.36,7.22,7.22,0,0,0,2.06-6.07c0-1.51.67-2.53,1.14-3.92a30.07,30.07,0,0,0,1.11-6.6v-1.19s3,.55,4.14,2.39c.46.82.24,2.58.24,3.45a4.92,4.92,0,0,1-1.38,2.92,4,4,0,0,0-1.1,3.21,2.25,2.25,0,0,1-1.57,2.56c-.45,0,.59.42,3.21-.15s2.44-1.22,3.89-1.85l1.64.76s1.37.58,1,1.09c-.65.64-2.44,2-3.09,2,0,0,1.34.72,6.14.12,0,0-.37.89,0,1.29s1.3.6,1.75,1.08.66.91,1.15.45l.23-.25a4.12,4.12,0,0,1,.84,1.43s.76-1.6.22-2.31l-.22-.15c.26-.23.43-.41.43-.41a1.72,1.72,0,0,0,1,.48c.64,0,2.14,1.38,2.49,1.74s.59.11.86-.13a3.51,3.51,0,0,1,1,1.53s.72-1.57.19-2.33l0,0c.23-.22.46-.47.46-.71a1.65,1.65,0,0,0-.46-.94,1.89,1.89,0,0,0,.72-.42l.19-.21a3.2,3.2,0,0,1,1.76.09s-.69-1.48-1.45-1.61l-.15-.43a2.7,2.7,0,0,0-.62-1.11,1,1,0,0,0,.05-.57,3.75,3.75,0,0,1,1.06-.46s-1.33-1-2.06-.56h-.06a1.33,1.33,0,0,0-1.39.26c-.64.63-1.55,1.82-3,1.33s-4.39-2.38-4.58-4.69a10.29,10.29,0,0,1,.57-4.28c.11-.38.76-2,1.75-2s.07,2.15.07,2.15c2.13-.85,1.83-3.77,1.83-3.77,0-2.11-.68-2.43-2.36-3.62-2.24-1.74-3.93-1.59-3.93-2s-.72-.83-1.84-1a44,44,0,0,0-5.74-.19c-2.26,0-2.4-1-2.4-1a15.55,15.55,0,0,1,3.2-2.21c1-.4,4.06-1.1,5-2.15s2.4-4.78,2.4-4.78,2-.18,1.45,1.65a3.06,3.06,0,0,1-1.94,2.3s3.05-.27,3.46-1.73c0,0,3.48,3.2,1.41,4.95,0,0,1.68-.3,2-1.49,0,0,.23-.89.5-.55s1.4,1.34,1,2.36l-.85.92a4.63,4.63,0,0,0,1.75-.5,6.94,6.94,0,0,0-.42,1.29,20.76,20.76,0,0,1,.92,2.32c0,.49.07,1.33.42.94l.34-.14a4.3,4.3,0,0,1,.24,1.78s1.21-1,1.14-1.81l.37-.17a2.22,2.22,0,0,1,1.61-.86c.68,0,2.66,2.46,2.81,2.71s.36.72.66.72l.38,0a2.84,2.84,0,0,1,.43.86c.06,14.76,1.92,25.22,22.71,34.51l3,1.26a37.75,37.75,0,0,1,4.27,2l.83.6.92-.6a33.38,33.38,0,0,1,4.26-1.94l3-1.27c22.17-10,22.67-21.33,22.68-34.42a2.39,2.39,0,0,1,.5-1l.42,0c.27,0,.27-.55.5-.73s2.21-2.7,2.89-2.7a2.15,2.15,0,0,1,1.6.86l.36.16c0,.86,1.17,1.81,1.17,1.81a4,4,0,0,1,.24-1.78l.33.14c.35.39.42-.44.42-.94a21.9,21.9,0,0,1,.88-2.31,8,8,0,0,0-.35-1.29c.31.35,1.72.49,1.72.49l-.9-1c-.28-1,.79-2,1-2.27s.54.55.54.55c.38,1.2,2.06,1.5,2.06,1.5-2.06-1.75,1.36-4.95,1.36-4.95.47,1.46,3.47,1.73,3.47,1.73a3,3,0,0,1-1.94-2.3c-.46-1.84,1.53-1.66,1.53-1.66s1.37,3.78,2.36,4.78,4,1.75,5,2.15a17,17,0,0,1,3.19,2.22s-.15,1-2.43,1a41.6,41.6,0,0,0-5.72.2c-1.14.15-1.82.52-1.82,1s-1.69.29-4,2c-1.6,1.19-2.29,1.51-2.29,3.63,0,0-.27,2.92,1.79,3.76,0,0-.95-2.15.08-2.15s1.71,1.62,1.82,2a12.3,12.3,0,0,1,.5,4.28c-.15,2.32-3.09,4.16-4.57,4.69s-2.32-.69-3-1.33a1.26,1.26,0,0,0-1.35-.26c-.75-.45-2.17.57-2.17.57a2.36,2.36,0,0,1,1.11.45.91.91,0,0,0,0,.57,3.86,3.86,0,0,0-.62,1.11l-.07.43c-.83.14-1.46,1.61-1.46,1.61a3.16,3.16,0,0,1,1.72-.09l.17.21a1.86,1.86,0,0,0,.79.42,1.67,1.67,0,0,0-.48.94,1.11,1.11,0,0,0,.48.71l-.12,0c-.53.76.23,2.34.23,2.34a2.62,2.62,0,0,1,1-1.53c.26.23.65.38.84.13.38-.36,1.8-1.75,2.43-1.75a2,2,0,0,0,1.2-.48,5,5,0,0,1,.34.41l-.17.16c-.52.71.17,2.3.17,2.3a4.74,4.74,0,0,1,.87-1.43l.23.26c.46.45.69,0,1.14-.46s1.4-.68,1.79-1.08,0-1.29,0-1.29c4.7.61,6.08-.11,6.08-.11-.63,0-2.49-1.37-3-2s.91-1.09.91-1.09l1.68-.75c1.4.62,1.22,1.28,3.84,1.85s3.7.14,3.27.14a2.25,2.25,0,0,1-1.63-2.56,3.71,3.71,0,0,0-1.07-3.2,5.46,5.46,0,0,1-1.37-2.92c0-.87-.23-2.63.22-3.45,1.11-1.84,4.17-2.39,4.17-2.39v1.18a30.26,30.26,0,0,0,1.14,6.61,10.94,10.94,0,0,1,1.06,3.91,7.26,7.26,0,0,0,2.18,6.08c2.78,3,.42,6.35.42,6.35,6.29-3.8,3-8.73,3-8.73l3.46,1.26a29.56,29.56,0,0,1,5.3,3c1.92,1.5,2.56,7.09,2.07,8.37s-1.16,1-1.92,1-2-.7-2.38-.33l-.13.27c-.79.09-1.55,1.19-1.55,1.19a4.08,4.08,0,0,1,1.45.22v.63c0,.44,1.25.2,1.08.41l-.1.31-.27.09c-.76.4-.76,2.17-.76,2.17a3,3,0,0,1,1.3-.88c0,.63.76.61.76.61s1.36-.57,1.36,0,.08.86.32.86l.3.09c-.33.82.58,2.18.58,2.18a3.32,3.32,0,0,1,.71-1.64c.36.12.58.12.75,0,.4-.43,1.78-3.64,3.06-3.78s3,1,3.21.09a2.47,2.47,0,0,1,1.18,1s.31-1.75-.37-2.29l-.2-.11.16-.4c-.58-1.08-1.76-1.5-2.06-1.82s.11-1.3.11-1.3c1,1.13,3.4.64,3.32.55s-2.56-.7-2.37-2.38a11.23,11.23,0,0,0-.61-4.18c1.49,2.91,3.51,1.9,3.51,1.9-1.18,0-1.69-.77-1.69-2.63s-3.08-4.19-3.08-4.19c0-.36,1.3-.62,3.12,1,2,1.66,3.86-1.29,3.32-.85-.38.5-1.67.5-2.51-.78-1.18-1.88-2.17-3-3.58-3.39s-3.36.8-3,.37a5.6,5.6,0,0,0,1.14-2.67,4.41,4.41,0,0,0-.9-2c-.53-.54.16-1.76.16-1.76a1.83,1.83,0,0,0-.62,2.13,1.9,1.9,0,0,1-1,2.34c-.86.48-1.39-.28-1.5-1s.18.6-.2-1c-.22-1.06-1.53-1.26-1.87-1.26s-1.44-2-1.44-2c2.66.31,2-1.55,2-1.55,0,.55-.46.66-1.15.49a8.79,8.79,0,0,1-1.75-.81,6.76,6.76,0,0,1-.87-1.28,1.48,1.48,0,0,1-.15-1,13.28,13.28,0,0,0-.8-3.5c6.66,1.38,12.26-.73,14.19-2.84,2.28-2.59,1.71-5.5,1-7.95s-2.94-5.21-5.31-7.76a23.44,23.44,0,0,0,0-5.43c-1.11-5.63-7.2-3.65-7.2-3.65s4.78,0,3.77,5.49c-1.33-1.41-2.67-2.77-3.51-3.86-2.81-3.63-1.59-6.25,1-9.08a4.59,4.59,0,0,1,.91-.82c1.39-.81,3-1.24,2.6,1a10,10,0,0,0-.15,3.94c.38,1.17,1.11,1.91,3.51,2.52,3.4.92,3.58,3.37,3.58,3.37s.69-1.79-.27-2.82c-1.33-1.45-1.94-3.31-1.41-3.91s1.86,2.9,4.27,3.54c3,.87,5.3.34,7.36-4.18,0,0-2.48,2.4-4.15,1.61M865.89,542.64c.24,1.89.27,3.4-.33,4a3.52,3.52,0,0,1-3.29,1.31A22,22,0,0,1,865.89,542.64ZM918,553.09a.76.76,0,0,1-.2.06,4.24,4.24,0,0,1-3.46-2.06c-1.07-1.8-3.82-5.65-5-9.15a22.69,22.69,0,0,1-1.06-4.68c-.2-.88.26-2,.91.29a5.43,5.43,0,0,0-1.22-4.71s0-.4.72-1,1.18-.51,1.18-.51c1,1.1.49,3.18,2.74,3.71,0,0-2-2.61.47-4.23s3.16-3.31,3-.14c0,0,.68-.34,1.14-2,.27-.87.4-2.13.77-3.14v27.57Zm4.87,22.46c-1.7-4.77-1.7-9.84-1.7-15.22v-2.9a2.5,2.5,0,0,1,1.36.21s-.53-1.42-1.34-1.65a1.14,1.14,0,0,0,0-.82v-.78a1.55,1.55,0,0,1,.49.14,4.72,4.72,0,0,0-.49-.91v-29c.5.21,1.08.44,1.71.67v50.29Zm3.63,6.38a22,22,0,0,1-2.06-3V525.8c.64.19,1.33.38,2.06.56Zm3.58-44.41H930V538h.08v36.16H930v.39h.08v11.06c-.74-.64-1.44-1.27-2.06-1.92V526.7c.67.12,1.35.22,2.06.31Zm-3-14.2a1.7,1.7,0,0,0,0-.68.76.76,0,0,1,1,.15c.28.26.8.2,1.37-.07a4.14,4.14,0,0,1,.72,1.19A25.65,25.65,0,0,1,927.09,523.32Zm6.53,64.9c-.7-.47-1.39-1-2-1.42V574.51h2Zm0-16.36a3.7,3.7,0,0,1-.68,1.13,3,3,0,0,1-1.34.93V538.15a4,4,0,0,1,1.27.65,2.8,2.8,0,0,1,.75,1.13v31.93Zm0-34.34h-2V527.15c.67,0,1.34.06,2,.05Zm3.55,52.83c-.67-.37-1.32-.75-1.95-1.12V574.51h1.95Zm0-52.83h-1.95V527.1a18.57,18.57,0,0,0,1.95-.25Zm3.66,54.7c-.7-.33-1.37-.66-2-1V574.51h2Zm0-18.15a3.23,3.23,0,0,1-2-1.08l-.07-.07V556.61h2Zm-2-35.38h2v16.74h-2Zm2-1.17h-2v-11c.67-.16,1.34-.38,2-.61Zm3.66,56.28-2.14-.89V556.6H943a13,13,0,0,1,1.5.1Zm0-38.45c-.51,0-1,.08-1.5.08h-.64V538.69h2.14Zm0-17.83h-2.14V525.28a21,21,0,0,0,2.14-1.13ZM948,595.34c-.61-.3-1.28-.59-2-.9V557a3.05,3.05,0,0,1,1.32.66,4.53,4.53,0,0,1,.69,1.18Zm0-42.21a3.85,3.85,0,0,1-.77,1.33,2.76,2.76,0,0,1-1.24.61V538.69h0a4.13,4.13,0,0,1,2,.82Zm0-15.61h-2V523.16a24.9,24.9,0,0,0,2-1.64Zm3.58,56.93c-.73.3-1.44.6-2.06.89V541.87l2.06,5.89Zm0-56.93h-2.06v-16a25.22,25.22,0,0,0,2.06,1.65Zm3.59,55.41-2.07.88V552.07L955.2,558Zm0-45.9-2.07-5.93v-17a19.39,19.39,0,0,0,2.07,1.07Zm3.58,44.22c-.66.32-1.34.66-2.06,1V574.51h2.06Zm0-17.57-.15.09a9,9,0,0,1-1.91.31V562.37l2.06,6Zm0-16.42-2.06-5.88V525.84a18.53,18.53,0,0,0,2.06.62Zm3.62,32c-.66.4-1.32.79-2,1.18V574.51h2Zm0-21.63-2-5.89V526.8c.69.13,1.37.2,2,.26Zm3.54,19.3c-.63.46-1.28.91-2,1.37V574.51h2Zm0-13.22a4.68,4.68,0,0,1-1.53-1.36c-.13-.22-.29-.51-.45-.84V527.13c.67,0,1.34,0,2,0Zm3.62,10.13a26,26,0,0,1-2,1.84V574.51h.23v-.39l-.23,0V527c.7-.08,1.37-.18,2-.3Zm1-60.52a30.22,30.22,0,0,1-3,.59,3.08,3.08,0,0,1,.71-1.18c.61.27,1.1.33,1.36.07a.71.71,0,0,1,.93-.16A1.92,1.92,0,0,0,970.58,523.31Zm2.61,55.87a21.09,21.09,0,0,1-2.07,3v-55.8c.74-.17,1.41-.36,2.07-.55Zm3.31-25.56a4.42,4.42,0,0,0-.49.91,1.63,1.63,0,0,1,.49-.14V556c-.84.23-1.32,1.65-1.32,1.65a2.52,2.52,0,0,1,1.32-.22v2.91c0,5.77,0,10.86-1.74,15.53v-50.6c.64-.23,1.24-.46,1.74-.67Zm12-16.07c.6-2.33,1-1.17.88-.29a26.31,26.31,0,0,1-1.11,4.68c-1.07,3.5-3.89,7.34-4.95,9.15a4.28,4.28,0,0,1-3.44,2.06.84.84,0,0,1-.23-.07V525.42a28.89,28.89,0,0,1,.77,3.24c.49,1.68,1.22,2,1.22,2-.19-3.17.34-1.5,2.85.14s.54,4.23.54,4.23c2.23-.53,1.79-2.61,2.71-3.71,0,0,.41-.08,1.18.51s.8,1,.8,1A5.16,5.16,0,0,0,988.51,537.55Zm43.26,5.09a21.92,21.92,0,0,1,3.65,5.34,3.6,3.6,0,0,1-3.31-1.31C1031.51,546,1031.58,544.53,1031.77,542.64Z" style="fill:#11fa78"/><path d="M33.52,497.1h71.82v17.82H54.56v23.16H99.08v17.35H54.56V598h-21Z" style="fill:#fff"/><path d="M184.85,589.09q-11.46,11.8-33.11,11.81t-33.13-11.81q-15.36-14.49-15.36-41.77,0-27.83,15.36-41.77,11.45-11.82,33.13-11.82t33.11,11.82q15.3,13.95,15.3,41.77Q200.15,574.59,184.85,589.09Zm-13.14-15.31q7.39-9.31,7.39-26.46t-7.39-26.42q-7.36-9.33-19.91-9.33t-20,9.29q-7.47,9.32-7.48,26.46t7.48,26.45q7.47,9.3,20,9.3T171.71,573.78Z" style="fill:#fff"/><path d="M285.82,589.09q-11.46,11.8-33.12,11.81c-14.44,0-25.51-3.95-33.12-11.81q-15.35-14.49-15.36-41.77,0-27.83,15.36-41.77c7.61-7.88,18.68-11.82,33.12-11.82s25.49,3.94,33.12,11.82q15.3,13.95,15.29,41.77Q301.11,574.59,285.82,589.09ZM272.7,573.78q7.35-9.31,7.36-26.46T272.7,520.9c-4.93-6.22-11.55-9.33-19.93-9.33s-15,3.1-20,9.29-7.48,15-7.48,26.46,2.49,20.25,7.48,26.45,11.65,9.3,20,9.3S267.77,580,272.7,573.78Z" style="fill:#fff"/><path d="M379.77,496.79v17.83H349.39V598H328.34V514.62H298V496.79Z" style="fill:#fff"/><path d="M390.43,496.79h24L450.09,598H427.2l-6.67-20.88H383.35L376.44,598H354.3Zm-1.36,63H415l-12.75-39.84Z" style="fill:#fff"/><path d="M529.54,566.85q0,15.72-11.41,24.73c-7.62,6-18.1,9-31.37,9q-19.51,0-30.22-9.16a29,29,0,0,1-10.69-23q0-13.5,9-20.62,5.78-4.6,17.44-7.35l17.72-4.2c6.84-1.6,11.33-3,13.43-4.2a8.68,8.68,0,0,0,4.91-8.12,10.48,10.48,0,0,0-5-9.23c-3.32-2.2-7.78-3.32-13.34-3.32A27.79,27.79,0,0,0,477.43,514c-5.06,2.59-7.75,6.94-8.13,13H449.06q.56-16.12,11.95-24.62t27.58-8.48q19.35,0,29.36,9a29.16,29.16,0,0,1,10,22.6c0,10-3.43,17.23-10.28,21.9-4.07,2.79-11.44,5.38-22.19,7.77l-10.9,2.41q-9.6,2-14,4.73a8.62,8.62,0,0,0-4.45,7.73q0,8.58,9,11.72a38.3,38.3,0,0,0,12.35,1.64q12.73,0,18-6.22c1.92-2.28,3.19-5.72,3.85-10.33h20.24Z" style="fill:#fff"/><path d="M586.75,496.79h23.92l-33.78,63.3V598H555.83V560.19l-35-63.4h24.88l21,44.09Z" style="fill:#fff"/><path d="M652.18,598H580.83V579.86h50.29V496.79h21.06Z" style="fill:#fff"/><path d="M656.18,496.79H677.7V559c0,7,.83,12,2.45,15.25q3.86,8.52,16.7,8.52c8.54,0,14.07-2.84,16.64-8.52,1.64-3.2,2.44-8.29,2.44-15.25V496.79h21.54V559q0,16.14-5,25.13-9.3,16.46-35.61,16.48t-35.66-16.48q-5-9-5-25.13V496.79Z" style="fill:#fff"/><path d="M808.92,496.79h30.32V598h-19.6V529.54c0-2,0-4.71.08-8.27s.07-6.29.07-8.2L800.6,598H780.05l-19-84.94c0,1.91,0,4.66.06,8.2s.06,6.31.06,8.27V598h-19.6V496.79h30.69l18.41,79.59Z" style="fill:#fff"/></g></svg>