<svg xmlns="http://www.w3.org/2000/svg" viewBox="0 0 1080 1080"><g id="Livello_6" data-name="Livello 6"><rect x="724.81" y="407.24" width="2.04" height="265.23" style="fill:#fff"/><g id="g5"><path id="path7" d="M146.17,407.69q29.93,0,51.81,13.16a93.13,93.13,0,0,1,34.08,35.25l-36.25,27.45q-20.1-29.4-49.64-29.41-13.8,0-23,6.39c-6.19,4.26-9.26,10.41-9.26,18.39,0,6.71,2.28,12.06,6.89,16.07s12.4,8.46,23.44,13.35l29.56,12.78q32.7,14.32,48.47,31.55T238,595.83q0,34.84-25.62,55.75T147,672.48q-33.11,0-59.31-15.29A111.55,111.55,0,0,1,46.47,616l36.65-27.1Q110.32,626,147,626q17.32,0,27.18-7.54T184,597.77A22.2,22.2,0,0,0,179.46,584a32,32,0,0,0-10.25-9.09q-5.7-3.09-18.3-8.92l-28-12.38q-30.37-13.54-46.69-31t-16.35-42.6q0-32.5,24.42-52.45T146.17,407.69Z" style="fill:#fff"/></g><g id="g9"><path id="path11" d="M593,407.69h59.88L537,672.48H519.26L403,407.69h60.29l65,157.62Z" style="fill:#fff"/></g><path id="path13" d="M891.68,407.69q63,0,102.45,36.14t39.4,95.59q0,58.65-39.6,96T891.68,672.76H821.93V407.69Zm-.39,49H875.13V623.75h16.16q39.4,0,63.45-23.09t24-61.24q0-38.55-23.83-60.64T891.29,456.69Z" style="fill:#fff"/><rect x="327.04" y="407.24" width="2.04" height="265.23" style="fill:#fff"/></g></svg>