<svg xmlns="http://www.w3.org/2000/svg" viewBox="0 0 1080 1080"><g id="Livello_12" data-name="Livello 12"><path d="M562,576.48c-9.12,8.6-20.47,12.56-35.79,12.56s-26.67-4-36-12.56a50,50,0,0,1-15.47-36.3c0-14.28,5.84-27.88,15.47-36.65S510.89,491,526.89,491c14.62,0,26.15,4.14,35.1,12.57,9.8,9,15.48,22.37,15.48,36.47s-5.65,27.53-15.46,36.48Zm-36.31-71.23c-20.14,0-34.07,14.11-34.07,34.75,0,20.82,13.94,34.76,34.58,34.76s34.58-13.94,34.58-34.58c0-21.17-13.91-34.93-35.09-34.93Z" style="fill:#fff"/><polygon points="158.03 492.94 136.01 492.94 105.55 546.63 73.03 492.94 52.38 492.94 52.38 587.05 66.67 587.05 66.67 512.03 104.69 576.22 141.86 512.03 141.86 587.05 158.03 587.05 158.03 492.94" style="fill:#fff"/><path d="M253.88,545c13.94-2.75,20.82-10.84,20.82-24.77,0-10.5-4.3-19.45-11.36-23.23-6-3.27-12.21-4.13-29.76-4.13H191.25V587h16.17V546.71h28.91L260.76,587H279Zm-13.59-12H207.42V506.62h32.87c8.43,0,11.87.52,15.14,2.58,3.27,1.9,5,6,5,10.5,0,4.65-1.89,8.6-5,10.5C252.16,532.26,248.37,532.94,240.29,532.94Z" style="fill:#fff"/><path d="M439.25,497.5c-5.5-3.44-11.87-4.64-24.78-4.64H368.34V587h16.17V546.88h29.94c13.25,0,18.76-1,24.61-4.81,7.05-4.48,11-12.39,11-22.2,0-9.63-4.17-18.06-10.86-22.37ZM415,533.12H384.53v-26.5H415c8.95,0,12.91.69,16.17,2.76,2.93,1.89,4.47,5.67,4.47,10.49,0,10-5,13.25-20.66,13.25Z" style="fill:#fff"/><path d="M669.05,545c13.94-2.75,20.82-10.84,20.82-24.77,0-10.5-4.3-19.45-11.36-23.23-6-3.27-12.21-4.13-29.76-4.13H606.42V587H622.6V546.71h28.9L675.93,587h18.21l-25.08-42Zm-13.6-12H622.59V506.62h32.86c8.43,0,11.87.52,15.14,2.58,3.27,1.9,5,6,5,10.5,0,4.65-1.89,8.6-5,10.5-3.25,2.06-7,2.74-15.14,2.74Z" style="fill:#fff"/><polygon points="714.58 492.86 714.58 506.62 750.36 506.62 750.36 586.97 766.55 586.97 766.55 506.62 802.33 506.62 802.33 492.86 714.58 492.86" style="fill:#fff"/><polygon points="847.45 573.21 847.45 545.85 888.75 545.85 888.75 532.08 847.45 532.08 847.45 506.62 907.15 506.62 907.15 492.86 831.29 492.86 831.29 586.97 910.93 586.97 910.93 573.21 847.45 573.21" style="fill:#fff"/><path d="M1002.53,545c13.93-2.75,20.82-10.84,20.82-24.77,0-10.5-4.31-19.45-11.36-23.23-6-3.27-12.22-4.13-29.77-4.13H939.9V587h16.18V546.71H985L1009.4,587h18.22l-25.12-42Zm-13.6-12H956.07V506.62h32.86c8.44,0,11.87.52,15.15,2.58,3.27,1.9,5,6,5,10.5,0,4.65-1.89,8.6-5,10.5C1000.83,532.26,997,532.94,988.93,532.94Z" style="fill:#fff"/></g></svg>