<svg xmlns="http://www.w3.org/2000/svg" viewBox="0 0 1080 1080"><g id="Livello_4" data-name="Livello 4"><g id="Ebene_2" data-name="Ebene 2"><g id="Ebene_1-2" data-name="Ebene 1-2"><rect x="270.88" y="435.16" width="33.47" height="83.14" style="fill:#fff"/><path d="M66.23,293V787h947.54V293ZM335.6,514.43a38.86,38.86,0,0,1-1.65,9.45,22,22,0,0,1-5.83,9.41c3.81,3.1,6.89,8.63,7.48,18.35v99.85c0,9.91-3.21,17.09-9.59,21.38a22.33,22.33,0,0,1-12.32,3.63h-74V403.39H313.1a20.81,20.81,0,0,1,16.29,7.25,25.92,25.92,0,0,1,6.21,17.69Zm167-49.4H471.42V435.21H439.1v48c2.54,4,15,23.1,56.48,86.06a41.25,41.25,0,0,1,7.05,22.66v59.66a26.49,26.49,0,0,1-6,17.71,20.66,20.66,0,0,1-16.41,7.29H430.59a21.16,21.16,0,0,1-16.34-7.22,25.67,25.67,0,0,1-6.38-17.78V615.38l31.23-.3v29.83h32.32V589.36c-3.25-5-22-33.84-55.82-85.55a41.86,41.86,0,0,1-7.73-23.31V428.33a26,26,0,0,1,6.22-17.76,20.66,20.66,0,0,1,16.22-7.25h49.63a21.15,21.15,0,0,1,16.33,7.25A25.24,25.24,0,0,1,502.63,428Zm172.89-29.82H639.8v241.4H608.6V435.21h-36V403.39H675.52ZM840.23,676.66H816.67L771.12,517.05V676.61H740.75V403.39h24.78l44.62,156v-156h30.08Z" style="fill:#fff"/><rect x="270.88" y="550.08" width="33.47" height="94.78" style="fill:#fff"/></g></g></g></svg>