<svg xmlns="http://www.w3.org/2000/svg" viewBox="0 0 1080 1080"><g id="Livello_5" data-name="Livello 5"><path d="M979.84,453l-31.43,87.53L937.23,453H889.72L862.52,539,850.82,453H797.71l6.46,36.92a75.14,75.14,0,0,0-13.51-17.86C775.3,457,755,449.36,730.35,449.36a97.65,97.65,0,0,0-41,8.67,88.31,88.31,0,0,0-32.16,25c-.85,1-1.66,2.07-2.45,3.13l3.56-22.89-3.73-2a107.33,107.33,0,0,0-23.74-9.13,103.8,103.8,0,0,0-25.13-3.05c-15.1,0-29,2.82-41.24,8.38A82.11,82.11,0,0,0,533.38,482a98.77,98.77,0,0,0-8,12.08,50.2,50.2,0,0,0-5.67-15.77,46.22,46.22,0,0,0-20.17-18.54,58.75,58.75,0,0,0-17.44-5.26c-6.4-1-15.72-1.45-28.48-1.45H407.52l-16,106.45L370,453H309.86L235.77,608.48l16-106.08H284.7L292.44,453H171.62l-1.39,8.87a79.55,79.55,0,0,0-14.5-7.78,71.87,71.87,0,0,0-26.89-5.18c-17.75,0-32.52,5.71-43.9,17s-17.18,25.9-17.18,43.46c0,10,2.65,18.71,7.88,25.83,5,6.89,13.85,13.7,27,20.86l2.76,1.51c14.94,8.2,15.7,13.09,15.7,14a7.3,7.3,0,0,1-2.59,6c-2,1.73-4.82,2.57-8.6,2.57a30.28,30.28,0,0,1-15.26-4.22c-5.27-3-11-7.93-17-14.71l-5.09-5.75-28,42.39,2.66,3.34a81.11,81.11,0,0,0,26.24,22.1,68.69,68.69,0,0,0,31.65,7.56c21.08,0,38.11-5.74,50.62-17.07,12.67-11.47,19.1-26.92,19.1-45.91,0-10.91-2.44-20.23-7.26-27.69s-12.8-14.29-24.4-21c-2.13-1.32-5.14-3-8.93-5-12.36-6.66-12.71-10.17-12.71-10.2a6.29,6.29,0,0,1,2.28-5,9.22,9.22,0,0,1,6.59-2.3,21.63,21.63,0,0,1,9.86,3,73.37,73.37,0,0,1,14,10.35l5.51,5,6.93-12.53h31.75L179.71,626.77H284.93l14.75-30.54h45.43l6.21,30.54h83l7.19-48,23.13,48h60.94L486.9,560.85A54.59,54.59,0,0,0,512,545.58c0,.32,0,.63,0,.95,0,25.1,7.21,45.61,21.42,61s33.56,23.35,57.14,23.35A149.91,149.91,0,0,0,612,629.42a106.25,106.25,0,0,0,18.46-4.28l3.4-1.15,6.6-43c.3.79.59,1.59.92,2.37A73.86,73.86,0,0,0,686.22,626a101.95,101.95,0,0,0,72.84-3.53,91,91,0,0,0,32.19-25.29,97.38,97.38,0,0,0,16.87-30.43,106.76,106.76,0,0,0,5.19-24.53l14.79,84.56h53.19l23.19-74,10.34,74h51.35L1035.42,453ZM747.73,566.94c-7.53,8.59-16.39,12.76-27.07,12.76-9.66,0-17.11-3-22.77-9.25-5.81-6.38-8.63-14.86-8.63-25.91,0-12.71,3.68-23,11.25-31.49,7.39-8.28,16.29-12.31,27.21-12.31,9.27,0,16.65,3.07,22.57,9.37s8.94,14.49,8.94,24.69C759.23,547.61,755.47,558.12,747.73,566.94Zm-273-56.81c0,5.67-1.5,9.78-4.58,12.55S462,527,455.34,527h-6.11l4.65-30.83h1c9.49,0,13.94,1.9,16,3.48C471.87,500.41,474.74,502.62,474.74,510.13ZM320.49,548.39,332,522.16l4.9,26.23Zm312.18,23.84a104.07,104.07,0,0,1-17.3,6,66.4,66.4,0,0,1-15.52,1.94c-11.15,0-19.41-2.95-25.26-9s-8.77-14.74-8.77-26.39c0-13.17,3.58-23.62,10.95-32,7.18-8.12,16.07-12.07,27.19-12.07a52.77,52.77,0,0,1,19.53,3.73A57.31,57.31,0,0,1,640,514.74a112.1,112.1,0,0,0-5.24,34.56,90.32,90.32,0,0,0,2.44,21Z" style="fill:#fff"/></g></svg>