<svg xmlns="http://www.w3.org/2000/svg" viewBox="0 0 1080 1080"><g id="Livello_21" data-name="Livello 21"><g id="pgZVdQ.tif"><path d="M943.73,941.19H293.79c0-3.2-2.74-4.48-4.56-6.27Q214.77,861.2,140.17,787.63c-1.82-1.8-3.16-4.5-6.34-4.48V140.86H782l161.72,160ZM604.79,329.94l-2.6.13q-12.78-54.78-25.51-109.38H523.21c-8.61,37-17.11,73.53-25.6,110l-2.27.06q-11.82-55-23.62-109.94H399.67c22.49,63.52,44.58,125.94,66.59,188.08h59.5l22.75-101.65,2.17.1q11,51,21.91,101.85h60.72c22.4-62.78,44.77-125.45,67.34-188.7H628.28ZM281.37,220.44,215.14,409h73.38c2.07-7.87,4-15.22,5.93-22.53h52.1c2.26,7.77,4.41,15.15,6.56,22.51h73.4c-22.94-63.58-45.49-126.06-68-188.51Zm154,360c20,0,38.9.86,57.67-.22,24.72-1.42,37-16.92,33.86-40.32-1.74-12.82-9.53-20-22-23.07a22.17,22.17,0,0,1,2.17-2.93c11-10.14,11.22-22.64,6.77-35.4-4.35-12.46-15.16-16.56-27.22-17.39-8.39-.58-16.85-.37-25.27-.22-8.63.15-17.33-.82-26,.66Zm-11.2-.13L378.85,461.49h-35L297.78,580.16h33.36c2.92-6.87,5.65-13.28,8.34-19.63h43.11l8,19.8ZM215.3,580.2h69.23c3.07-8.61,7.5-16.38,9.08-26.25h-47v-92.4H215.3Z" style="fill:#fff"/><path d="M943.73,941.19V300.89L782,140.86H133.83c.45-.62-1-2.11,1-2.05,2.69.09,5.4,0,8.1,0h802.8q0,396.63-.12,793.24C945.62,935,948,938.94,943.73,941.19Z" style="fill:#fff"/><path d="M133.83,783.15c3.18,0,4.52,2.68,6.34,4.48q74.6,73.57,149.06,147.29c1.82,1.79,4.59,3.07,4.56,6.27h-160Z" style="fill:#fff"/><path d="M306.93,341.62c3.66-20.4,7.94-39.1,12.49-57.74l2.4-.07c4.14,18.39,8.29,36.77,12.61,56C325.48,342.94,316.72,340.24,306.93,341.62Z" style="fill:#fff"/><path d="M466.63,556.21v-24c6.52-1.51,12.8-1.12,18.95-.06,6.4,1.09,9.93,5.39,10,11.89.11,6.16-3.37,10.21-9.14,11.6A45.88,45.88,0,0,1,466.63,556.21Z" style="fill:#fff"/><path d="M485.18,503.15c-5.07,5.26-11.3,5.09-18.08,4.15-1.71-7.06-.65-14-.76-21.76,7.23-1,13.59-1.44,18.89,4A14.07,14.07,0,0,1,485.18,503.15Z" style="fill:#fff"/><path d="M373.77,535.88c-9.33.19-17,.65-25.4-.4,3.87-12.12,7.56-23.87,12.93-36.62A358.69,358.69,0,0,1,373.77,535.88Z" style="fill:#fff"/></g></g></svg>