<svg xmlns="http://www.w3.org/2000/svg" viewBox="0 0 1080 1080"><g id="Livello_15" data-name="Livello 15"><path d="M492.42,581.32c0,7.95,2.38,14.5,7.35,18.68a26.36,26.36,0,0,0,17.28,6.55,24.85,24.85,0,0,0,17.29-6.95c5-4.57,7.35-10.73,7.35-18.28V443.05c0-7.55-2.58-13.7-7.55-18.27a24.2,24.2,0,0,0-16.89-6.56A26.32,26.32,0,0,0,500,424.78c-5,4.57-7.35,10.72-7.35,18.27V581.32Zm24.44-213A69.36,69.36,0,0,1,565.93,389c6.55,6.55,11.92,13.31,15.29,21.05,3.78,9.54,5.37,20.27,5.37,32.78V581.32c0,21.06-6.16,38.54-18.68,52.85A66,66,0,0,1,551,647.08c-9.94,5-21.86,6.95-35.17,6.16a30.11,30.11,0,0,1-23.24-13.71v72.71H446.93V439.08c0-19.07,6.95-36,21.05-49.67a69.89,69.89,0,0,1,21.46-14.9,66.07,66.07,0,0,1,27.42-6.15M422.09,648.67H376.6V443.85h45.49ZM332.1,391c14.1,13.71,21.06,29.8,21.06,48.87v208.8h-45.5V443.05a24.29,24.29,0,0,0-7.35-17.88A23.61,23.61,0,0,0,283,417.82a22.42,22.42,0,0,0-17.28,7.35,24.87,24.87,0,0,0-7.35,18.28V649.07H212.9v-208c0-19.08,7-36,21.06-49.67s30.59-20.66,48.87-20.66c19.07-.4,35.16,6.56,49.27,20.26m321.24,51.26A24.56,24.56,0,0,1,660.69,424a24,24,0,0,1,17.88-7.35A24.49,24.49,0,0,1,696.25,424a25.09,25.09,0,0,1,7.55,18.28v26H653.73v-26ZM748.5,511V438.88c0-18.67-7.35-35.16-21.46-48.87-14.1-13.91-30.59-20.86-49.27-20.86-20.26,0-37.15,6.56-50.06,19.87s-19.47,30.19-19.47,50.46v141c0,20.26,6.56,37.15,19.87,50.46,12.91,13.31,29.8,19.86,49.66,19.86,19.47,0,35.56-6.15,48.48-18.67,12.31-11.52,19.46-26.42,21-44.3h.4V544H701.81V585.3c-3,12.91-11.12,19.07-24.43,19.07A22.42,22.42,0,0,1,660.09,597a24.87,24.87,0,0,1-7.35-18.28V511ZM171.58,489.54c-13.71-12.71-30.2-19.47-49.66-20.66-7.36-.8-13.32-3.38-17.69-8.34a24.46,24.46,0,0,1-6.55-17.29,28.35,28.35,0,0,1,6.55-17.88c4.18-5.36,10.33-7.55,17.88-7.55,13.71,0,21.86,6.56,24.44,19.47H192c0-19.07-7.35-35.16-21.45-47.88s-30.4-18.67-48.28-18.67c-19.07,0-35.56,6.95-48.87,21.06-14.1,14.1-21.06,31.39-21.06,51.65S58.94,481,72.25,494.7a68.4,68.4,0,0,0,49.27,21.46c7.94,0,14.1,2,18.67,5.76,4.17,3.78,6.56,9.54,6.56,17.29v40.52A30.79,30.79,0,0,1,141,598c-3.78,5.36-10.33,7.55-19.07,7.55-12.32,0-19.87-6.16-23.25-17.88V544.77H52.38v42.11a73.27,73.27,0,0,0,22.85,45.9c13.31,12.91,29,19.86,46.29,19.86,21.06,0,38.14-6.55,51.25-19.86,12.92-12.92,19.47-29.8,19.47-49.67v-44.5c0-19.87-7-36.36-20.66-49.07m715.78-.6c-13.71-12.71-30.2-19.47-49.66-20.66-7.36-.79-13.31-3.37-17.69-8.34a24.5,24.5,0,0,1-6.55-17.28A28.31,28.31,0,0,1,820,424.78c4.18-5.37,10.34-7.55,17.88-7.55,13.71,0,21.86,6.55,24.44,19.47h45.49c0-19.08-7.35-35.17-21.45-47.88a70.5,70.5,0,0,0-48.48-18.68c-19.07,0-35.56,7-49.26,21.06-13.31,14.11-20.27,31.39-20.27,51.65s6.56,37.55,19.87,51.26a68.36,68.36,0,0,0,49.27,21.45c7.94,0,14.5,2,18.67,5.37,4.17,3.77,6.56,9.53,6.56,17.28v40.53A30.84,30.84,0,0,1,857,597c-3.78,5.36-10.33,7.55-19.08,7.55-12.31,0-20.26-6.16-23.24-18.28V544H768.76v42.12h.4A73.19,73.19,0,0,0,792,632c13.31,12.91,29,19.87,46.29,19.87,21.06,0,38.14-6.56,50.86-19.87,12.91-12.91,19.47-29.8,19.47-49.66V537.81c-.8-20.26-7.55-36.35-21.26-48.87" style="fill:#fff"/><path d="M1027.62,450.2a19.93,19.93,0,0,1-19.87,19.87H945a19.92,19.92,0,0,1-19.86-19.87V387.63A19.92,19.92,0,0,1,945,367.76h62.78a19.93,19.93,0,0,1,19.87,19.87ZM414.35,369.55a9.24,9.24,0,0,1,9.13,9.14v26a9.24,9.24,0,0,1-9.13,9.14H386.14a9.24,9.24,0,0,1-9.14-9.14v-26a9.24,9.24,0,0,1,9.14-9.14Z" style="fill:#fff"/></g></svg>