<svg xmlns="http://www.w3.org/2000/svg" viewBox="0 0 1080 1080"><g id="Livello_3" data-name="Livello 3"><path d="M374.21,451.75c19.44-3.66,32.75-6.83,46.25-8.5,9.93-1.22,20.66-2.52,30,.07,6.46,1.8,11.12,10.13,16.58,15.55-5.56,4.9-10.39,12.38-16.82,14.18-15,4.21-30.7,6.4-46.26,8.1-22.29,2.43-31.46,13-30.38,36.32,1.59,34.1.78,68.38-.76,102.51-.36,8.06-7.66,15.81-11.77,23.7-6.65-6.54-18.3-12.53-19.07-19.7-3-28.28-2.71-56.92-3.47-85.43-.26-10,0-20,0-35.79-30.19,12-56.55,21.56-82.16,32.83-20.92,9.2-41.2,20.07-59.62-3.27-17.79-22.55-.48-39.05,10.21-57.06q61.41-103.49,121.92-207.49c5.49-9.45,7.23-21.1,12.8-30.49,4.06-6.84,11.56-11.62,17.53-17.33,6.49,7.57,18.29,15,18.53,22.73.88,29.43-2.71,58.95-3.26,88.46C373.67,370.42,374.21,409.73,374.21,451.75ZM230.87,498.38l5,6.22C268,492.18,300.29,480.07,332.16,467c3.82-1.57,7.62-8.53,7.68-13.05.6-40,.35-80,.35-120l-6.95-2.17Q282,415.07,230.87,498.38Z" style="fill:#fff"/><path d="M577.08,236.39c-23.46,2.73-46.88,5.9-70.39,8-11.34,1-27.83,5.1-27.57-12.48.12-7.62,13.48-20.68,21.81-21.51,31.91-3.21,64.47-5.28,96.3-2.36,27.94,2.57,36.08,22.42,20.1,45.7-15.6,22.72-35.32,42.58-52.71,64.11-22.24,27.54-19.94,40.57,10,60.28,15.44,10.14,31.54,19.32,46.53,30.07,16.58,11.89,23.92,30.71,9.48,45.37-47.85,48.57-98.15,94.73-147.82,141.49-2.65,2.5-8.09,2.05-20.09,4.71,8.7-14.68,12.77-24.26,19.16-31.9,30.86-36.84,62.54-73,93.52-109.72,19.32-22.91,19.41-25.56-5.66-38.59-71.68-37.26-73.34-73.29-23.48-136C557.14,270,568.88,257,580.2,243.77Z" style="fill:#fff"/><path d="M891,455c-153.08,77.76-282.2,179.52-411.85,280.29-50.26,39.06-97.34,82.2-146,123.35-6.29,5.32-12.78,11-20.18,14.15-3.79,1.61-11.66-.54-14.26-3.75-2.16-2.68.42-9.46,1.47-14.3.32-1.48,2.54-2.56,3.92-3.78,160-141.18,320-282.22,509.57-384.08C835.9,455,858.23,445.42,891,455Z" style="fill:#fff"/></g></svg>