<svg xmlns="http://www.w3.org/2000/svg" xmlns:xlink="http://www.w3.org/1999/xlink" viewBox="0 0 1080 1080"><defs><mask id="mask" x="27.12" y="498.19" width="1025.77" height="83.61" maskUnits="userSpaceOnUse"><g id="b"><path id="a" d="M27.22,498.19H1052.89V581.7H27.22Z" style="fill:#fff;fill-rule:evenodd"/></g></mask></defs><g id="Livello_11" data-name="Livello 11"><g style="mask:url(#mask)"><path d="M652.22,581.81c24.29,0,43.33-16.51,43.33-41.81s-19-41.81-43.33-41.81S608.9,514.7,608.9,540,627.94,581.81,652.22,581.81Zm-625.1-2H38.44V519.45l46.25,60.34H96V500.57H84.69V560.9L38.44,500.57H27.12Zm98.55,0h56.17V568.27H137V545.94h37.72V534.42H137V512.09h44.84V500.57H125.67Zm103.7,0H240.7v-67.7h28.61V500.57H200.76v11.52h28.61Zm118.06,0h12.38L370,557.46h39.47l10.16,22.33H432l-36.2-79.22H383.64Zm177.86,0h11.32V545.94H569.9c14,0,23.35-8.79,23.35-22.69s-9.34-22.68-23.35-22.68H525.29Zm192.09,0h11.33V545.94h15.65c11.33,0,14.6,2.73,22.89,15.2l7.24,10.93a82.22,82.22,0,0,0,5.72,7.72h15.42v-.12c-3.86-3.32-6-5.82-11.45-14l-3-4.51c-9.11-13.3-9.81-15-15.07-18.29,10-2.61,15.65-10,15.65-20.19,0-14-9.34-22.09-23.47-22.09H717.38v79.22Zm111.65,0h11.32v-67.7H869V500.57H800.41v11.52H829Zm61.07,0h56.17V568.27H901.42V545.94h37.72V534.42H901.42V512.09h44.85V500.57H890.1Zm84.55,0H986V545.94h15.65c11.33,0,14.6,2.73,22.89,15.2l7.24,10.93a82.22,82.22,0,0,0,5.72,7.72h15.41v-.12c-3.85-3.32-6-5.82-11.44-14l-3-4.51c-9.11-13.3-9.81-15-15.07-18.29,10.05-2.61,15.65-10,15.65-20.19,0-14-9.34-22.09-23.47-22.09H974.65v79.22Zm-322.43-9c-18.1,0-31.41-12.35-31.41-30.76s13.31-30.76,31.41-30.76,31.42,12.35,31.42,30.76S670.44,570.76,652.22,570.76ZM536.61,534.54V512h32.58c7.36,0,12.15,3.68,12.15,11.28s-4.79,11.29-12.15,11.29Zm192.1,0V512h29.08c7.36,0,12,3.68,12,11.28s-4.67,11.29-12,11.29Zm257.26,0V512h29.08c7.36,0,12,3.68,12,11.28s-4.67,11.29-12,11.29Zm-610.74,11.4,14.48-31.71,14.48,31.71Zm-91.67,0H331.2V534.42H283.56Zm164.65,0h47.65V534.42H448.21Z" style="fill:#fff;fill-rule:evenodd"/></g></g></svg>