<svg xmlns="http://www.w3.org/2000/svg" viewBox="0 0 1080 1080"><g id="Livello_22" data-name="Livello 22"><path d="M741.56,610.84c-15.8,16.9-36.11,25.46-60.36,25.46s-44.53-8.56-60.32-25.46c-15.1-16.1-23.77-41.84-23.77-70.61,0-28.06,8.76-53.46,24-69.66,16-16.91,36.16-25.52,60.05-25.59s44.13,8.68,60.1,25.59c15.27,16.21,24,41.59,24,69.66,0,28.77-8.67,54.51-23.77,70.61ZM529.4,540.23c0,1.3.05,2.59.08,3.86-24.25-22-59.29-30.17-80.72-34.43-39.63-8.32-69.89-16-69.89-44.13,0-19.88,17.82-34.28,52.06-31.85C462.22,436,475.4,455,479,473.38c.51,3.05,1.93,5.23,5.38,5.25l56.27.51c.26,0,.48,0,.73-.05-7.94,18.43-12,39-12,61ZM433.69,643.37c-27.22,0-57.21-9.64-64.11-46.91-.61-3.55-2.28-5-5-5.1l-54.42-.71V494.83c7.21,28.08,30.84,47.51,82.07,59,34.29,8.17,93.73,13.37,93.73,48.42,0,24.43-18.06,41.7-52.24,41.13Zm-271-7c-43.89,0-84.1-34.43-84.1-96.07,0-48.38,30.13-95.25,84.4-95.25,23.49,0,83.06,8,83.06,95.25C246.06,627.75,183.86,636.37,162.7,636.37ZM831.42,516.75c12.5,16.6,35,28.89,71.65,37.1,34.28,8.16,93.83,13.37,93.83,48.43,0,24.38-18.06,41.7-52.24,41.09-27.19,0-57.22-9.64-64.11-46.92-.53-3.55-2.24-5-5-5.11l-50.53-.62a156.59,156.59,0,0,0,8-50.46,172,172,0,0,0-1.62-23.5ZM940.83,692.16c60.36,0,131.52-22.4,125.95-95-6.15-64.46-73.48-80.79-107.14-87.49-39.63-8.32-69.91-16-69.91-44.13,0-19.88,17.83-34.28,52.08-31.85,31.28,2.27,44.47,21.32,48.08,39.7.51,3.05,1.93,5.23,5.38,5.25l56.25.49c4.29,0,5.62-2.2,5.08-5.24-11-67-67.36-86-119.23-86s-114.15,14.5-118.58,78.66c-.15,2.49-.2,4.93-.2,7.32a152.6,152.6,0,0,0-35.46-46.63c-28.26-25.45-63.52-39.05-102-39.35H679.9a146,146,0,0,0-53.36,10,154.75,154.75,0,0,0-47.17,29.3,152,152,0,0,0-34.09,43.89c-12.28-64.75-67.67-83.23-118.79-83.23-47.54,0-104,12.25-116.36,64V400.47a5,5,0,0,0-5-5h-53a5,5,0,0,0-5,5v13.82c0,2.34-1.57,3.15-3.48,1.78-18.85-13.59-46.73-28.22-80.29-28.22a146.4,146.4,0,0,0-53.53,9.82,157.77,157.77,0,0,0-47.07,29.62c-16.54,15-29.12,32-37.44,50.81s-12.48,39.63-12.48,62.15c0,21,3.72,40.74,11,58.57a150.07,150.07,0,0,0,33.14,49c14.67,14.71,31.07,25.9,48.73,33.23a150.05,150.05,0,0,0,57.82,11.06c35.61,0,62.39-15.14,79.94-28.91,1.93-1.46,3.47-.68,3.47,1.72v14.56a5,5,0,0,0,5,5h53a5,5,0,0,0,5-5v-49c25.12,58.62,88.76,61.66,119.94,61.66,52.11,0,112.19-16.71,124.1-68a159,159,0,0,0,19.52,23.63c28.4,28.48,65.63,43.78,107.73,44.25H683a147.69,147.69,0,0,0,57.29-11.36,150.38,150.38,0,0,0,48.59-32.89A154.74,154.74,0,0,0,815.24,613c18.87,75.45,91.65,79.12,125.65,79.12Z" style="fill:#fff;fill-rule:evenodd"/></g></svg>