<svg xmlns="http://www.w3.org/2000/svg" viewBox="0 0 1080 1080"><g id="Livello_7" data-name="Livello 7"><path d="M664,544.14V600H646.22V479.57c19.67.76,39.77-3.07,59,4.16,9.77,3.66,16.82,10.65,18.1,22,1.36,12.07-2.86,21.59-13,28-5,3.19-10.88,5.07-16.88,7.79,23,12.65,34.61,33.29,40.85,58.56H717.24C703.75,553.09,692.24,540.71,664,544.14Zm.33-6.9c14-.78,28.89,3.88,37-11.46,5.78-10.88,5.73-22.93-1.86-32.7-9.12-11.72-22.7-7.73-35.18-7.84Z" style="fill:#fff"/><path d="M508.18,600.28H490.93V540.44H432V600H414.35V480H431.8v53.56h58.41V480.15h18Z" style="fill:#fff"/><path d="M761.33,599.72V480.26H834.2c.09.79.17,1.59.25,2.39-8,4.85-17.22,1.55-25.79,2.12-9.37.63-18.81.15-28.77.15V534h45.26l1.14,3.2c-2.34.88-4.68,2.48-7,2.53-13,.25-25.9.12-39.38.12v55.12c18.37.61,36.58-.29,54.65.5-.09,1.42-.18,2.85-.26,4.28Z" style="fill:#fff"/><path d="M1040.05,600.34h-18.43l-18.28-43.75H960.13c-7.52,14.27-11,31.28-19.6,45.36l-4.82-2.63c15.63-39.6,31.26-79.2,47.74-120.92,3,2,6.87,3.17,7.9,5.56,16.49,38,32.62,76.23,48.79,114.4C1040.34,598.83,1040.1,599.49,1040.05,600.34Zm-77.86-50.05h39.1c-6.56-16.22-12.83-31.7-19.77-48.83Z" style="fill:#fff"/><path d="M565.48,539.82v55.32c16.27,0,32.15-.09,48,.1,2.34,0,4.66,1.34,7,2.06l-.68,2.73h-72V480.13h72l.64,2.71c-2.36.69-4.71,2-7.08,2-15.65.18-31.31.09-47.63.09V534H612l.75,3.34c-2.3.82-4.6,2.31-6.92,2.35C592.59,539.94,579.35,539.82,565.48,539.82Z" style="fill:#fff"/><path d="M915.52,493.14l-4.34,4.63c-1.34-1.2-2.46-2-3.4-3.06-6.4-7-13.6-12-23.74-11.69-7.64.22-13.3,3.62-16.49,10-3.44,6.93-2.31,14.36,3.36,19.58,6.24,5.74,13.47,10.44,20.46,15.32,5.07,3.54,10.55,6.49,15.69,9.94,16.6,11.14,21.85,27.15,14.71,44.43-6.19,15-23.35,23.18-41.46,19.4-11-2.3-20.44-7.75-27.38-16.69-1.51-1.95-1.21-5.3-1.74-8l3-1.15c2.44,2.76,4.86,5.54,7.34,8.28,7.31,8.07,16.34,12.54,27.31,12.5,9.28,0,17.68-6.44,20.68-15.34,3.13-9.32,1.21-17.32-7.34-23.46-11.49-8.23-23.84-15.26-35.44-23.36-11.42-8-16.33-21.84-13-34.21,6.12-22.83,33.69-30.34,53.79-14.59C910.07,487.69,912.28,490.1,915.52,493.14Z" style="fill:#fff"/><path d="M357.56,600.28H339.71V484.85H302.45c-.22-.91-.45-1.81-.67-2.72,1.78-.87,3.57-2.49,5.36-2.5q41.21-.25,82.41,0c1.79,0,3.57,1.64,5.35,2.52-.22.81-.45,1.61-.67,2.42H357.56Z" style="fill:#fff"/><path d="M250.82,600.25h-17.7c0-15.81,0-31.38.06-47a6.9,6.9,0,0,1,1.36-3.17q21.36-35.1,42.8-70.22h18c-10.28,16.9-19.15,33.57-30,48.79-11.55,16.17-17,33.13-14.6,52.85C251.42,587.36,250.82,593.32,250.82,600.25Z" style="fill:#fff"/><path d="M158.87,480h16.71V600.09H158.87Z" style="fill:#fff"/><path d="M138.91,493.89c1.38,19.28,3.68,38-6.39,56-8.86,15.85-15,33.22-22.48,50.28H92Z" style="fill:#fff"/><path d="M39.78,494.83C64.67,526.41,55.5,563.72,57.22,600H39.78Z" style="fill:#fff"/><path d="M70.24,480.08c11,24.64,22.78,48.71,32.22,73.66,2.29,6-3.06,15-4.9,22.6l-2.67-.2c-14.09-31.75-28.17-63.49-42.63-96.06Z" style="fill:#fff"/><path d="M229.46,545.54c-12.45-21.5-24.89-43-37.87-65.45h18c9,15.52,19.09,31.12,27,47.74,2.05,4.31-2.62,11.83-4.2,17.87Z" style="fill:#fff"/></g></svg>