<svg xmlns="http://www.w3.org/2000/svg" viewBox="0 0 1080 1080"><g id="Livello_10" data-name="Livello 10"><path d="M756.22,539.2v-66c0-1.45.3-1.74,1.75-1.74h32.58c1.3,0,1.59.29,1.59,1.59v63a2,2,0,0,1,.29.87l.87-.44c.88-1,1.6-2,2.48-3.19,4.51-5.5,8.87-11,13.37-16.5a2.61,2.61,0,0,1,2.48-1.16H847.4a.81.81,0,0,1,.73.43c.14.15-.15.58-.3.72-2.18,2.75-4.51,5.36-6.68,8.11-6.69,8.11-13.38,16.37-20.07,24.48-1.6,2-3.2,3.91-4.94,5.93a1.24,1.24,0,0,0,0,1.89c4.79,5.65,9.59,11.45,14.39,17.09,6,7.1,11.78,14.06,17.6,21.15,2.76,3.33,5.67,6.66,8.43,10a2.18,2.18,0,0,1,.29.87,2,2,0,0,1-.88.29H817a2.06,2.06,0,0,1-1.74-.86c-6-7.1-11.78-14.34-17.75-21.44-1.31-1.59-2.62-3-3.78-4.64-.29-.29-.73-.43-1-.72a3.47,3.47,0,0,0-.29,1.16v25.2c0,1.16-.14,1.3-1.59,1.3H758.26c-1.89,0-1.89,0-1.89-1.88-.14-21.73-.14-43.6-.14-65.47ZM597,608.29a42.7,42.7,0,0,1-13.38-1.88,47,47,0,0,1-12.51-5.8,59.65,59.65,0,0,1-12.36-11,48.76,48.76,0,0,1-7.12-11.45A51.92,51.92,0,0,1,548,553.4a46.75,46.75,0,0,1,2.77-12.46,49.81,49.81,0,0,1,11.49-18,52.73,52.73,0,0,1,14.39-10.14,51.66,51.66,0,0,1,8.43-2.75,56.33,56.33,0,0,1,17-1.3,54.75,54.75,0,0,1,10.76,2,42.61,42.61,0,0,1,10.17,4.5,51.15,51.15,0,0,1,11.78,9.84,48.78,48.78,0,0,1,7.85,11.3A43.38,43.38,0,0,1,646.3,547a57,57,0,0,1,.58,19.84A45,45,0,0,1,643.24,579c-4.5,9.71-11.77,16.81-20.5,22.6A45.39,45.39,0,0,1,610,607,77.32,77.32,0,0,1,597,608.29Zm1.45-64.6a15.81,15.81,0,0,0-8.14,2,14.21,14.21,0,0,0-6.84,9.85,18.37,18.37,0,0,0,.73,9.27,10.15,10.15,0,0,0,7.71,6.95,22.46,22.46,0,0,0,10.32.14c4.51-.86,7.56-3.47,8.73-7.82a19.52,19.52,0,0,0-.58-13.47,9.29,9.29,0,0,0-6.11-5.5,44.18,44.18,0,0,0-5.82-1.45ZM223.74,559.77a41.4,41.4,0,0,1-1.89,12.31,48.36,48.36,0,0,1-8.29,16.08,53.7,53.7,0,0,1-22.1,17.09,49.7,49.7,0,0,1-22,3,47.07,47.07,0,0,1-12.65-2.9c-9.74-3.76-17.15-10.13-23.55-18.1a40.25,40.25,0,0,1-6.11-10.86,46,46,0,0,1-2.76-10.87,55.52,55.52,0,0,1-.44-11,47.86,47.86,0,0,1,3.49-14.78c3.2-8,8.57-14.48,15-20a45.73,45.73,0,0,1,11.63-7.09c8-3.48,16.43-4.35,25-3.62a45.25,45.25,0,0,1,11.48,2.46,48.4,48.4,0,0,1,16,9.56,51.43,51.43,0,0,1,11.2,13.75,61,61,0,0,1,3.63,8.41C223.15,547.75,223.74,553,223.74,559.77Zm-64.56-1.3c0,.58.14,1.74.29,2.9.73,5.21,3.49,8.83,8.58,10.13a21.12,21.12,0,0,0,13.38-.43,10.38,10.38,0,0,0,6.4-7.25,21.82,21.82,0,0,0,.29-10.57,11.24,11.24,0,0,0-9.74-9A23.21,23.21,0,0,0,167,545a11.34,11.34,0,0,0-6,4.77C159.47,552.24,159.18,555,159.18,558.47Zm121.71,49.82a43.56,43.56,0,0,1-13.38-1.88,46.43,46.43,0,0,1-12.79-5.94,56.38,56.38,0,0,1-16.16-15.93,46.23,46.23,0,0,1-5.37-11.15A51.76,51.76,0,0,1,231,554a48.77,48.77,0,0,1,2.76-12.9,52.18,52.18,0,0,1,11.93-18.24,44.83,44.83,0,0,1,14.39-10,55,55,0,0,1,12.65-3.62,46.72,46.72,0,0,1,11.92-.43,48.7,48.7,0,0,1,7.85,1.3,46.24,46.24,0,0,1,6.11,1.74,49.69,49.69,0,0,1,21.09,15.64,45.49,45.49,0,0,1,7.55,12.75,49.25,49.25,0,0,1,3.21,22.88,47.8,47.8,0,0,1-4.08,15.5A52.67,52.67,0,0,1,313,596.13a49.53,49.53,0,0,1-14.1,9,47.06,47.06,0,0,1-18,3.18Zm1.16-35.92c.58,0,1.16-.15,1.89-.15a13.61,13.61,0,0,0,7.13-2.46,11.84,11.84,0,0,0,4.36-7.53,21.72,21.72,0,0,0-.73-11c-1.45-4.07-4.51-6.23-8.57-7a23.28,23.28,0,0,0-11.79.59,10.79,10.79,0,0,0-7.41,8.1,19.8,19.8,0,0,0,0,10.14,10.37,10.37,0,0,0,3.78,6.08c3.34,2.75,7.27,3,11.34,3.19Z" style="fill:#fff"/><path d="M897.13,608.15a46.67,46.67,0,0,1-13.38-1.74A44.51,44.51,0,0,1,871,600.47a59.22,59.22,0,0,1-16.29-16.08,38.11,38.11,0,0,1-5.23-11,50,50,0,0,1-1.31-25.79,49.33,49.33,0,0,1,6.1-15.21A53.82,53.82,0,0,1,866,518.63a44.31,44.31,0,0,1,12.07-7.09c7.42-2.9,15.12-3.62,23-3.33a56.73,56.73,0,0,1,12.21,1.88,45.48,45.48,0,0,1,15.7,8.25,49.78,49.78,0,0,1,11.93,14.49c1.59,3,3.19,6.23,4.5,9.41a29.11,29.11,0,0,1,2,10.58c0,1.16-.29,1.45-1.45,1.59l-10.18,2.17c-3.06.58-6,1.31-9,1.89s-6.11,1.3-9.16,2-6,1.31-9,2l-9.74,2.17c-2.91.58-5.82,1.31-8.73,1.89l-4.36.87a.65.65,0,0,0-.58.43c.14.29.29.72.58.87,1.45,1.16,3.05,2.32,4.51,3.48,2.76,2.17,5.81,2.32,9,2a14.37,14.37,0,0,0,10.33-6.09c1.3-1.74,1.3-1.74,3.2-.43l10.9,7c4.8,3,9.74,6.23,14.54,9.27,1.6,1,1.6,1,.29,2.46-3.2,3.33-6.11,6.8-9.45,10a28.44,28.44,0,0,1-6.25,4.77,51.36,51.36,0,0,1-8.58,4.06,48.41,48.41,0,0,1-14.4,2.6,6,6,0,0,1-2.76.29Zm.87-66.92a29.42,29.42,0,0,0-4.94.87,15.19,15.19,0,0,0-8.14,5.93,26.16,26.16,0,0,0-2.48,4.36c-.14.28,0,.72,0,1s.44.14.58.14c3.35-.72,6.55-1.44,9.89-2.17l9.6-2.18c2-.43,3.92-.86,6-1.44.87-.29,1-.58.44-1.16-3.06-3.19-6.55-5.22-10.91-5.36ZM60.88,546.16c0-19.26-.14-38.38,0-57.64,0-5.65,2.77-10.15,7.42-13.33a19.5,19.5,0,0,1,11.64-3.33h48.71c2.76-.15,2.47.14,2.47,2.61V501.7c0,1.59-.15,1.88-1.89,1.88H105.38a11.35,11.35,0,0,0-4.51.72c-2.9,1-3.93,3.62-4.07,6.38-.15,4.34-.15,8.69-.15,12.89V526c0,.87.44,1.16,1.16,1.16h15.71c2,0,2,0,2,2v27.66c0,1.74-.15,1.89-1.89,1.89H97.81c-1.16,0-1.3.14-1.3,1.3v45.49c0,.87-.29,1.16-1.16,1.16H61.61c-.88,0-1-.44-1-1.16.29-19.85.29-39.55.29-59.39Zm290.53,22.16V545.43c0-1.3-.29-1.59-1.6-1.59H338.18c-1.16,0-1.31-.15-1.31-1.31V513.42c0-1,.29-1.3,1.31-1.3h11.49c1.45,0,1.6-.29,1.6-1.6v-29c0-1.31.14-1.45,1.45-1.45H385c1.45,0,1.6.14,1.6,1.59,0,5.36.15,10.87.15,16.22,0,4.21,0,8.26.14,12.46,0,1.59.29,1.74,1.89,1.74h10.33c1.16,0,1.45.28,1.45,1.45v28.82c0,1.16-.29,1.45-1.45,1.45H388.64c-1.46,0-1.6.29-1.6,1.59v20.86a10,10,0,0,0,1,5.35,5.88,5.88,0,0,0,4.65,3.34,17,17,0,0,0,2.76.15h9.89c1.59,0,1.74.14,1.74,1.74V605c0,1.3-.15,1.59-1.45,1.59H369.58a18.92,18.92,0,0,1-12.35-4.34,15.68,15.68,0,0,1-6-12.6C351.41,582.66,351.41,575.55,351.41,568.32Zm355.08,39.83a45.25,45.25,0,0,1-14-1.74,46.63,46.63,0,0,1-12.8-5.94,59.67,59.67,0,0,1-15.41-14.78,39.69,39.69,0,0,1-6.11-12.45,51.07,51.07,0,0,1-2-19.84,43.56,43.56,0,0,1,6.11-19.27,55.48,55.48,0,0,1,15.13-16.65,42.4,42.4,0,0,1,11.92-6.23,51.79,51.79,0,0,1,24.43-2,63.23,63.23,0,0,1,9,2A43.48,43.48,0,0,1,734.41,517a56.16,56.16,0,0,1,13.24,13.62c.43.58.43,1-.29,1.45-6.4,4-13,8.11-19.34,12.16-2.76,1.75-5.53,3.62-8.44,5.36-1.45.87-1.45.87-2.61-.43a28.31,28.31,0,0,0-3.78-3.48,10.41,10.41,0,0,0-7.13-1.74,21,21,0,0,0-6.69,1,11,11,0,0,0-6.83,6.37,18.89,18.89,0,0,0-.58,12,10.31,10.31,0,0,0,7,7.82,19.54,19.54,0,0,0,12.21.58,11.84,11.84,0,0,0,6-4.34c.15-.29.44-.43.58-.72a.75.75,0,0,1,1.16-.15c7.42,4.77,15,9.56,22.4,14.34l6.11,3.91c.72.43.72.86.29,1.44a54.77,54.77,0,0,1-16.44,15.79,42,42,0,0,1-16,5.65c-2.76.43-5.67.58-8.43.87-.3-.15-.3-.29-.3-.44Zm-232.79-76v-58.8c0-1.6.15-1.74,1.74-1.74h32c1.46,0,1.6.29,1.6,1.74v92.4a36.53,36.53,0,0,0,.29,3.91,6.82,6.82,0,0,0,5.53,5.51,30.28,30.28,0,0,0,3.63.14h23.71c1.16,0,1.3.29,1.3,1.59V605.4c0,.87-.29,1.3-1.3,1.3H489.7a18.55,18.55,0,0,1-9.6-2.46,12,12,0,0,1-5.24-6.37,25.38,25.38,0,0,1-1.45-9.27C473.7,569.77,473.7,550.94,473.7,532.11Zm483.62,33.16V528.33a38.63,38.63,0,0,1,.59-7.09c1.16-5.22,4.07-8.84,9.3-10.43a24.43,24.43,0,0,1,7.86-1h42.6c1.45,0,1.74.29,1.74,1.74v28.1c0,1.6-.14,1.74-1.74,1.74-5.38,0-10.62-.14-16,0a15,15,0,0,0-5.09.87c-2.48.87-3.35,3-3.64,5.5a15.17,15.17,0,0,0,0,2.61v55c0,.88-.29,1.17-1.16,1.17H958.93c-1.17,0-1.46-.29-1.46-1.31q-.39-20-.15-40Z" style="fill:#fff"/></g></svg>