<svg width="103" height="38" viewBox="0 0 103 38" fill="none" xmlns="http://www.w3.org/2000/svg">
<path d="M10.3125 37.4999C4.23001 37.1324 0.480006 34.0874 0.105005 29.2199L0.0525055 28.5749H2.89501H5.73751L5.86501 29.2274C6.17251 30.8324 7.20751 32.0399 8.75251 32.6024C9.89251 33.0149 11.34 33.1574 12.8925 33.0074C15.1425 32.7899 16.5375 32.1374 17.1375 31.0349C17.325 30.6899 17.3625 30.5399 17.385 29.9249C17.4225 28.9349 17.2575 28.4924 16.5825 27.8174C15.675 26.9099 14.565 26.5049 10.7625 25.6874C8.16751 25.1324 6.75751 24.7799 5.92501 24.4799C2.33251 23.1899 0.667505 21.0674 0.645005 17.7749C0.637505 16.5374 0.780006 15.8474 1.23001 14.8874C1.80001 13.6799 2.76001 12.6899 4.10251 11.9249C7.47751 9.98994 13.2675 9.68994 16.995 11.2424C19.83 12.4274 21.615 14.6174 22.1475 17.5724L22.26 18.1499H19.275H16.2975L16.245 17.8574C16.1625 17.3249 15.63 16.3949 15.1725 15.9749C14.175 15.0599 12.48 14.6099 10.5 14.7299C8.88001 14.8274 7.69501 15.2024 7.01251 15.8324C6.47251 16.3274 6.33751 16.6424 6.33751 17.3999C6.33751 18.1724 6.51751 18.5999 7.05751 19.1324C7.89001 19.9424 9.21001 20.4074 12.9375 21.1874C16.845 22.0124 18.645 22.6049 20.1225 23.5724C21.6075 24.5474 22.455 25.6724 22.8825 27.2624C23.13 28.1474 23.13 30.0524 22.89 31.0049C22.065 34.2674 19.155 36.4874 14.6625 37.2674C13.365 37.4924 11.715 37.5824 10.3125 37.4999Z" fill="white"/>
<path fill-rule="evenodd" clip-rule="evenodd" d="M57.975 35.19C59.6025 36.2625 61.395 36.9075 63.45 37.1625C64.4475 37.2825 65.94 37.2975 66.885 37.1925C71.1375 36.7275 74.535 34.4475 76.2 30.9525C76.5675 30.195 76.8975 29.2725 76.995 28.7625L77.04 28.5L74.37 28.515L71.6925 28.5375L71.4525 29.1C70.65 30.93 69.3675 32.0475 67.47 32.5725C66.9375 32.715 66.675 32.7375 65.4 32.73C64.1325 32.73 63.855 32.7075 63.3375 32.565C62.5425 32.3475 61.5 31.8225 60.9225 31.35C59.4525 30.1575 58.56 28.2075 58.38 25.8075L58.3275 25.125H67.86H77.4L77.4525 24.9225C77.565 24.495 77.5125 21.825 77.37 20.97C76.77 17.34 74.985 14.2425 72.345 12.2775C68.355 9.31499 62.58 9.20249 58.35 12.0075C57.3375 12.6825 55.845 14.19 55.1325 15.255C53.895 17.115 53.1075 19.26 52.7925 21.675C52.6725 22.5825 52.6725 24.8625 52.7925 25.8375C53.1 28.32 53.8425 30.4125 55.0575 32.25C55.6575 33.165 57.0975 34.6125 57.975 35.19ZM70.95 18.24C71.25 18.8775 71.625 20.055 71.625 20.37V20.55H65.025H58.4175L58.4625 20.2725C58.92 17.5725 60.69 15.4875 63.1875 14.73C63.8025 14.5425 63.975 14.52 65.1 14.52C66.525 14.5125 66.945 14.595 67.935 15.0825C69.2625 15.735 70.245 16.7625 70.95 18.24Z" fill="white"/>
<path d="M24.375 23.8125V10.875H27.1875H30V23.8125V36.75H27.1875H24.375V23.8125Z" fill="white"/>
<path d="M31.2825 34.785V32.8125L38.4375 24.15C42.375 19.3875 45.5925 15.465 45.5925 15.435C45.6 15.3975 42.375 15.375 38.4375 15.375H31.275V13.125V10.875H42.3H53.325V12.885V14.8875L45.9375 23.5425C41.8725 28.2975 38.55 32.22 38.55 32.2575C38.55 32.295 41.7225 32.325 45.975 32.325H53.4V34.5375V36.75H42.3375H31.275L31.2825 34.785Z" fill="white"/>
<path d="M84.45 32.6625V28.575H88.575H92.7V32.6625V36.75H88.575H84.45V32.6625Z" fill="white"/>
<path d="M84.45 24.2474C84.45 21.5249 84.705 20.4299 85.695 18.9149C86.4075 17.8199 87.6 16.7549 89.6325 15.3974C91.83 13.9199 92.6475 12.9149 92.8575 11.4224C93.2325 8.78988 91.2075 7.13238 88.2975 7.68738C86.2125 8.08488 85.065 9.65988 84.9225 12.3224L84.8775 13.1249H80.3025H75.735L75.7875 12.3599C76.0275 8.73738 77.19 5.90988 79.305 3.79488C81.0075 2.09238 83.1525 0.974883 85.7625 0.427383C87.0375 0.157383 87.96 0.0673828 89.5275 0.0673828C92.9025 0.0673828 95.85 0.884883 98.25 2.48238C99.12 3.05988 100.485 4.39488 101.002 5.17488C102.15 6.89238 102.63 8.55738 102.63 10.8374C102.622 13.5749 101.977 15.3524 100.357 17.0474C99.5475 17.8949 98.8275 18.4499 96.8625 19.7549C95.9175 20.3849 94.8825 21.1049 94.575 21.3524C93.3375 22.3349 92.88 23.3024 92.73 25.2599L92.6775 25.9499H88.5675H84.45V24.2474Z" fill="white"/>
<path d="M24.375 6.00005V3.30005H27.1875H30V6.00005V8.70005H27.1875H24.375V6.00005Z" fill="white"/>
</svg>
