<svg width="23" height="23" viewBox="0 0 23 23" fill="none" xmlns="http://www.w3.org/2000/svg">
<path fill-rule="evenodd" clip-rule="evenodd" d="M11.5 0C17.8513 0 23 5.14873 23 11.5C23 17.8513 17.8513 23 11.5 23C5.14873 23 0 17.8513 0 11.5C0 5.14873 5.14873 0 11.5 0ZM6.81854 14.1948C6.32748 14.6211 5.58305 14.6008 5.11612 14.1339C4.62796 13.6457 4.62796 12.8543 5.11612 12.3661L10.3661 7.11612L10.4315 7.05521C10.9225 6.62888 11.667 6.64919 12.1339 7.11612L17.3839 12.3661L17.4448 12.4315C17.8711 12.9225 17.8508 13.667 17.3839 14.1339L17.3185 14.1948C16.8275 14.6211 16.083 14.6008 15.6161 14.1339L11.25 9.7675L6.88388 14.1339L6.81854 14.1948Z" fill="#FF7523"/>
</svg>
