<svg width="168" height="24" viewBox="0 0 168 24" fill="none" xmlns="http://www.w3.org/2000/svg">
<path d="M93.2584 0.299316L97.5424 0.309816L97.4531 23.3967L93.1744 23.3757L93.2584 0.299316Z" fill="white"/>
<path d="M160.01 4.83265L160.023 0.540777L149.305 0.509277L149.234 19.299L149.218 23.5857L159.933 23.6224L159.949 19.3358L153.521 19.3122L153.542 14.1934L159.973 14.2223L159.986 9.93303L153.557 9.91465L153.573 4.80903L160.01 4.83265Z" fill="white"/>
<path d="M37.6924 0.0998535L48.4181 0.139229L48.4024 4.28935L41.9711 4.2631L41.9528 9.58135L48.3814 9.61548L48.3656 13.7577L41.937 13.7289L41.9003 23.1972L37.6084 23.1789L37.6924 0.0998535Z" fill="white"/>
<path d="M65.8035 0.196777L76.5135 0.244027L76.5082 4.39153L70.077 4.36003L70.0507 9.68353L76.482 9.71765L76.4715 13.852L70.0376 13.8363L70.0087 23.302L65.7195 23.2942L65.8035 0.196777Z" fill="white"/>
<path fill-rule="evenodd" clip-rule="evenodd" d="M1.13729 7.08386C2.94436 2.77393 7.17061 -0.0222657 11.844 1.87517e-05C18.2147 0.0303966 23.3578 5.21341 23.3389 11.5841C23.325 16.2576 20.4962 20.462 16.1724 22.2357C11.8486 24.0094 6.88212 23.0027 3.59031 19.6853C0.298496 16.368 -0.669782 11.3938 1.13729 7.08386ZM5.08615 14.2922C6.19958 17.0088 8.83989 18.787 11.7757 18.7976C13.7005 18.8053 15.5494 18.0479 16.9156 16.6921C18.2817 15.3362 19.0532 13.4931 19.0601 11.5684C19.0718 8.63255 17.3136 5.97881 14.6056 4.84477C11.8976 3.71074 8.77315 4.31977 6.68931 6.38784C4.60546 8.45591 3.97272 11.5757 5.08615 14.2922Z" fill="white"/>
<path d="M129.819 15.1881C128.314 18.2055 124.928 19.7884 121.647 19.0089C118.366 18.2293 116.054 15.2928 116.067 11.9207C116.079 8.54848 118.413 5.62902 121.699 4.87363C124.986 4.11823 128.359 5.72591 129.843 8.75426L134.426 8.77263C132.849 3.24118 127.441 -0.286475 121.743 0.498327C116.045 1.28313 111.793 6.14117 111.769 11.8931C111.746 17.6451 115.958 22.5377 121.65 23.369C127.341 24.2004 132.777 20.717 134.4 15.1986H129.814" fill="white"/>
<path fill-rule="evenodd" clip-rule="evenodd" d="M166.286 1.31245H165.832L165.834 2.73782H166.097V2.21282H166.333L166.617 2.73782H166.921L166.604 2.1577C166.776 2.10806 166.893 1.94624 166.884 1.76657C166.889 1.63121 166.831 1.50122 166.727 1.41482C166.597 1.32837 166.44 1.29199 166.286 1.31245ZM166.094 1.99495V1.54345L166.231 1.55395C166.325 1.54256 166.421 1.55242 166.512 1.58282C166.584 1.61839 166.629 1.69375 166.625 1.77445C166.626 1.84099 166.597 1.90452 166.546 1.94733C166.495 1.99013 166.427 2.00763 166.362 1.99495H166.186H166.094Z" fill="white"/>
<path fill-rule="evenodd" clip-rule="evenodd" d="M165 2.02741C165.002 1.30425 165.589 0.719274 166.312 0.719238C166.663 0.719221 166.998 0.859302 167.245 1.10829C167.491 1.35728 167.628 1.6945 167.625 2.04486C167.617 2.76798 167.027 3.34902 166.303 3.34421C165.58 3.3394 164.997 2.75056 165 2.02741ZM165.296 2.46335C165.467 2.8736 165.868 3.14055 166.312 3.13949V3.14999C166.604 3.1493 166.884 3.03231 167.089 2.8249C167.295 2.6175 167.409 2.33678 167.407 2.04486C167.408 1.60059 167.141 1.19952 166.731 1.02902C166.32 0.858511 165.848 0.95222 165.534 1.26637C165.219 1.58052 165.126 2.0531 165.296 2.46335Z" fill="white"/>
</svg>
