<svg xmlns="http://www.w3.org/2000/svg" viewBox="0 0 326.78 130.94"><defs><style>.cls-1{fill:#1e1e1e;}.cls-2{fill:#fff;}</style></defs><title>Asset 4</title><g id="Layer_2" data-name="Layer 2"><g id="Layer_1-2" data-name="Layer 1"><path class="cls-1" d="M0,130.94V0H326.78V130.94ZM86.6,87V60.39l27.72,28.72V49.42h-5.67V75.36L81.14,46.79V87ZM252.72,68.32c-.13,12.31,10.51,19.64,20.11,19.47A19.92,19.92,0,0,0,292.6,66.51c-.64-9.89-9.87-18.39-20.46-18.14A19.7,19.7,0,0,0,252.72,68.32ZM33.68,68A19.55,19.55,0,0,0,53.43,87.81a19.93,19.93,0,0,0,20.18-19.6c.14-10.75-9-19.82-19.92-19.84A19.64,19.64,0,0,0,33.68,68Zm207.14,4.65c-.41,4.85-4.6,9-9.59,9.83-5.28.93-12.14-3.07-14.53-8.48-2.69-6.09-1.07-13.41,4.46-17.24a19.84,19.84,0,0,1,8.51-2.94c5-.65,8.64,2.41,11.79,5.93l3.67-4c-4.77-5.75-11-8.25-18.45-7.1-8.07,1.25-13.61,6-16,13.73s-.39,14.87,5.71,20.51a19.08,19.08,0,0,0,21.49,2.9A17.54,17.54,0,0,0,247,67.64H231.55v5ZM148.09,49.55c3.63,6.32,7.25,12.38,10.61,18.59A14.21,14.21,0,0,1,160.25,74c.22,4.3.07,8.62.07,12.93h5.58c0-4.64-.13-9.07.06-13.49a12,12,0,0,1,1.41-5.06c3.49-6.3,7.18-12.48,10.84-18.79-5.78-1.1-6.1-1-8.67,3.64-.31.56-.61,1.11-.93,1.66l-5.48,9.4c-2.34-4.07-4.36-7.59-6.39-11.1C154.11,48.63,153.78,48.49,148.09,49.55ZM195.44,93V45.9h-5.35V93Zm-59.29,0V46h-5.21V93Z"/><path class="cls-2" d="M86.84,87.18H81.38V47l27.51,28.57V49.61h5.66V89.3c-9.27-9.62-18.23-18.89-27.71-28.73Z"/><path class="cls-2" d="M253,68.5a19.69,19.69,0,0,1,19.42-19.94c10.58-.25,19.81,8.24,20.46,18.13A19.93,19.93,0,0,1,273.07,88C263.47,88.15,252.83,80.81,253,68.5Zm34-.4a13.9,13.9,0,0,0-14.22-14.22,14.13,14.13,0,0,0-14.17,14.38c0,7.84,6.55,14.5,14.19,14.49A14.34,14.34,0,0,0,287,68.1Z"/><path class="cls-2" d="M33.92,68.17a19.63,19.63,0,0,1,20-19.61c11,0,20.07,9.09,19.93,19.83A19.93,19.93,0,0,1,53.67,88,19.54,19.54,0,0,1,33.92,68.17ZM39.68,68c0,8.11,6.09,14.64,13.85,14.75a14.58,14.58,0,0,0,14.61-14.4A14.22,14.22,0,0,0,54,53.88,13.93,13.93,0,0,0,39.68,68Z"/><path class="cls-2" d="M241.05,72.82h-9.26v-5h15.47a17.56,17.56,0,0,1-9.09,18.11,19.09,19.09,0,0,1-21.5-2.9c-6.09-5.64-8.07-12.67-5.7-20.52S218.85,50,226.92,48.8c7.46-1.15,13.67,1.34,18.45,7.1l-3.67,4c-3.15-3.53-6.78-6.58-11.8-5.93a19.83,19.83,0,0,0-8.5,2.93c-5.53,3.83-7.15,11.16-4.46,17.25,2.39,5.4,9.24,9.41,14.53,8.48C236.46,81.77,240.65,77.67,241.05,72.82Z"/><path class="cls-2" d="M148.33,49.74c5.68-1.07,6-.92,8.65,3.61,2,3.52,4,7,6.38,11.1,2-3.41,3.74-6.4,5.48-9.39.32-.55.63-1.11.93-1.66,2.58-4.6,2.89-4.74,8.68-3.65-3.66,6.31-7.35,12.5-10.84,18.8a11.87,11.87,0,0,0-1.41,5c-.19,4.42-.06,8.86-.06,13.5h-5.59c0-4.31.16-8.63-.07-12.93a14.28,14.28,0,0,0-1.54-5.85C155.58,62.12,152,56.06,148.33,49.74Z"/><path class="cls-2" d="M195.68,93.19h-5.35V46.09h5.35Z"/><path class="cls-2" d="M136.39,93.2h-5.22V46.13h5.22Z"/><path class="cls-1" d="M287,68.1a14.34,14.34,0,0,1-14.2,14.65c-7.64,0-14.15-6.65-14.19-14.49a14.13,14.13,0,0,1,14.17-14.38A13.9,13.9,0,0,1,287,68.1Z"/><path class="cls-1" d="M39.68,68A13.93,13.93,0,0,1,54,53.88,14.22,14.22,0,0,1,68.14,68.36a14.58,14.58,0,0,1-14.61,14.4C45.77,82.65,39.64,76.12,39.68,68Z"/></g></g></svg>