<svg width="65" height="30" viewBox="0 0 65 30" fill="none" xmlns="http://www.w3.org/2000/svg">
<path fill-rule="evenodd" clip-rule="evenodd" d="M0.329749 0.100989C0.229749 0.121489 0.119999 0.155489 0.0854988 0.176739C0.0367488 0.206989 0.0229988 3.40624 0.0229988 14.8052V29.395L0.145249 29.475C0.253749 29.5462 0.734499 29.5535 4.449 29.5405L8.6305 29.526L9.0415 29.3225C9.482 29.1047 9.73325 28.8675 10.036 28.384C10.3702 27.85 10.3552 28.1712 10.3515 21.614C10.348 15.2425 10.343 15.1082 10.0955 14.8292C10.0452 14.7725 9.9685 14.6552 9.9245 14.5685C9.88075 14.4815 9.81175 14.383 9.7715 14.3495C9.7185 14.3057 9.70775 14.2347 9.73325 14.0957C9.76725 13.9092 9.82075 13.8032 10.077 13.414C10.373 12.9642 10.4022 12.4037 10.4017 7.19799C10.401 2.03049 10.3922 1.87049 10.0772 1.39424C10.0107 1.29374 9.9125 1.13899 9.85875 1.05024C9.67475 0.746739 9.2195 0.432989 8.7015 0.252739L8.2195 0.0849893L4.36525 0.0742393C2.24575 0.0684893 0.429499 0.0804893 0.329749 0.100989ZM20.5525 0.107489C19.897 0.184239 18.8312 0.696489 18.831 0.934489C18.831 0.951739 18.7692 1.05574 18.6938 1.16574C18.6182 1.27574 18.4737 1.57374 18.3725 1.82799L18.1885 2.29049V5.55374V8.81674L18.36 9.43349C18.4543 9.77249 18.5872 10.1322 18.6555 10.2327C18.7237 10.3332 18.7795 10.4347 18.7795 10.4582C18.7795 10.5325 19.2487 11.2992 19.3505 11.3912C19.4037 11.4397 19.4478 11.5045 19.4478 11.5355C19.4478 11.5985 19.7847 12.1255 19.9765 12.3625C20.045 12.4472 20.1425 12.5977 20.1927 12.6965C20.243 12.7955 20.3387 12.9417 20.4055 13.0217C20.4722 13.1015 20.5267 13.1962 20.5267 13.232C20.5267 13.268 20.5755 13.3412 20.635 13.3952C20.6945 13.449 20.7902 13.5855 20.8475 13.6985C20.905 13.8117 21.0007 13.9647 21.0605 14.039C21.1202 14.1132 21.2153 14.25 21.2717 14.3432C21.3282 14.4365 21.444 14.6205 21.5287 14.752C21.6135 14.8835 21.7292 15.0675 21.7857 15.1607C21.8422 15.254 21.9373 15.391 21.997 15.465C22.0565 15.5392 22.1465 15.681 22.197 15.7797C22.2475 15.8787 22.333 16.0175 22.387 16.0882C22.441 16.1587 22.5868 16.3785 22.7108 16.5762C22.835 16.7742 23.007 17.0307 23.0935 17.1465C23.1798 17.2625 23.2502 17.375 23.2502 17.3967C23.2502 17.4182 23.3312 17.5465 23.43 17.6812C23.529 17.816 23.61 17.9462 23.61 17.9707C23.61 17.9952 23.67 18.0845 23.7432 18.1692C23.8165 18.254 23.9125 18.3927 23.9565 18.4777C24.0002 18.5625 24.0907 18.7032 24.1572 18.7907C24.2235 18.8782 24.278 18.9685 24.278 18.9912C24.278 19.0142 24.3482 19.1275 24.434 19.2435C24.52 19.3592 24.6875 19.6025 24.8065 19.784L25.023 20.114L25.0387 23.0285L25.0542 25.9427L24.9117 26.0547C24.7032 26.2187 21.7487 26.2007 21.6272 26.0347C21.5688 25.9542 21.5545 25.663 21.5545 24.5395C21.5545 23.2327 21.5483 23.1385 21.4565 23.0555C21.3235 22.9352 18.392 22.9505 18.2452 23.0722C18.096 23.1962 18.1435 27.4365 18.2972 27.7275C18.357 27.8405 18.4355 28.0255 18.4718 28.1385C18.6455 28.6817 19.452 29.394 20.014 29.5005C20.3372 29.5617 26.3608 29.5667 26.6742 29.506C27.1887 29.4062 27.8075 28.8507 28.1397 28.19C28.4247 27.623 28.4375 27.4325 28.4377 23.7447C28.438 20.303 28.405 19.5675 28.2337 19.187C28.1725 19.0512 28.0893 18.8312 28.0487 18.6982C28.0082 18.5652 27.9522 18.4422 27.924 18.4247C27.8958 18.4072 27.8037 18.256 27.719 18.0885C27.6345 17.921 27.5467 17.784 27.5243 17.784C27.5015 17.784 27.4425 17.699 27.393 17.5952C27.3438 17.4915 27.2572 17.347 27.2007 17.2742C27.0265 17.0482 26.8563 16.7907 26.7397 16.5762C26.6782 16.4632 26.5617 16.2947 26.4807 16.202C26.3997 16.109 26.3335 16.0027 26.3335 15.9657C26.3335 15.9287 26.2847 15.8545 26.2253 15.8005C26.1657 15.7467 26.07 15.6102 26.0127 15.4972C25.9552 15.384 25.8595 15.231 25.7997 15.1567C25.74 15.0825 25.645 14.9457 25.5885 14.8525C25.5317 14.7592 25.4163 14.5752 25.3315 14.4437C25.2467 14.3122 25.131 14.1282 25.0745 14.035C25.018 13.9417 24.923 13.8047 24.8633 13.7307C24.8037 13.6565 24.7137 13.515 24.6635 13.416C24.613 13.317 24.5152 13.1667 24.446 13.082C24.3767 12.9972 24.2188 12.766 24.095 12.568C23.9713 12.3702 23.822 12.139 23.7632 12.0542C23.7043 11.9695 23.555 11.7382 23.4312 11.5402C23.3075 11.3425 23.1467 11.108 23.074 11.0195C23.0015 10.9307 22.942 10.8397 22.942 10.8172C22.942 10.7592 22.588 10.214 22.3895 9.96624C22.2978 9.85149 22.2222 9.73099 22.222 9.69849C22.2218 9.66574 22.1407 9.53749 22.0422 9.41324C21.9435 9.28924 21.8627 9.16324 21.8627 9.13349C21.8627 9.10374 21.7992 9.01299 21.7215 8.93199L21.5802 8.78449L21.5655 6.26374C21.5525 4.05024 21.5605 3.72799 21.6307 3.62049L21.711 3.49824L23.2642 3.49974C25.2477 3.50199 25.0195 3.30499 25.0375 5.02924C25.0455 5.78399 25.0623 6.44974 25.0747 6.50849C25.119 6.71374 25.2867 6.73549 26.8228 6.73549H28.2835L28.3655 6.57749C28.4373 6.43849 28.4452 6.14974 28.431 4.19599L28.4147 1.97299L28.1835 1.52549C27.974 1.11999 27.8123 0.917739 27.4045 0.551239C27.3295 0.483739 27.0403 0.351239 26.7622 0.256739L26.2565 0.0847393L23.5842 0.0749893C22.1145 0.0694893 20.7502 0.0842393 20.5525 0.107489ZM36.097 0.121739L35.9687 0.186739L35.955 1.74774C35.9427 3.14549 35.9505 3.31849 36.0272 3.40349C36.1075 3.49199 36.2262 3.49824 37.83 3.49824C39.5285 3.49824 39.7027 3.51349 39.809 3.67299C39.8297 3.70399 39.8472 9.49149 39.8475 16.534L39.8485 29.3387L39.9837 29.4452C40.1815 29.6007 42.964 29.6117 43.1035 29.4577C43.1822 29.3707 43.1885 28.4147 43.1885 16.7465C43.1885 9.80699 43.2037 4.01924 43.222 3.88499C43.2742 3.50374 43.3032 3.49824 45.1935 3.49824C46.5247 3.49824 46.816 3.48524 46.9425 3.41974L47.094 3.34149V1.77274V0.204239L46.9157 0.129739C46.668 0.0262393 36.3012 0.0184893 36.097 0.121739ZM54.2882 0.0909893C54.0752 0.166989 54.0828 -0.364511 54.0828 14.8017C54.0828 27.8617 54.0908 29.3347 54.1628 29.4375C54.2598 29.5757 57.006 29.618 57.2687 29.4852L57.3973 29.4202L57.423 21.5315C57.4475 13.977 57.4528 13.6365 57.5433 13.4982C57.6717 13.3022 57.7127 13.362 57.8312 13.9172C57.8867 14.1762 57.9692 14.46 58.0145 14.548C58.06 14.6357 58.1313 14.8852 58.1727 15.1022C58.2142 15.3195 58.3035 15.6357 58.3708 15.8055C58.4383 15.975 58.5098 16.2295 58.5298 16.3707C58.5498 16.512 58.619 16.7552 58.6838 16.911C58.7485 17.0667 58.8285 17.344 58.8618 17.527C58.895 17.71 58.975 17.987 59.0397 18.143C59.1048 18.2987 59.1838 18.58 59.2158 18.768C59.248 18.956 59.32 19.2132 59.376 19.34C59.432 19.4665 59.5112 19.7447 59.552 19.9582C59.5928 20.1715 59.6635 20.4182 59.709 20.506C59.7545 20.594 59.8358 20.872 59.8895 21.124C59.9432 21.376 60.0247 21.6542 60.07 21.7422C60.1155 21.83 60.1868 22.0795 60.2283 22.2965C60.2697 22.5137 60.3582 22.83 60.425 22.9997C60.4915 23.1692 60.5625 23.4237 60.5825 23.565C60.6025 23.7062 60.6725 23.9495 60.7378 24.1052C60.8032 24.261 60.8835 24.5385 60.916 24.722C60.9485 24.9052 61.0295 25.194 61.0962 25.3635C61.163 25.5332 61.2433 25.8152 61.2747 25.9907C61.3063 26.166 61.3773 26.4117 61.4328 26.537C61.488 26.662 61.5665 26.9385 61.6073 27.1515C61.648 27.3642 61.727 27.6387 61.783 27.7615C61.8387 27.884 61.91 28.1347 61.9415 28.3182C62.0042 28.6865 62.2298 29.321 62.348 29.4617C62.4735 29.6112 64.5463 29.5965 64.7392 29.4447L64.8752 29.3377L64.8618 14.8012C64.849 0.92924 64.8442 0.260239 64.7567 0.172739C64.6187 0.0347393 61.7955 0.00273933 61.6833 0.137989C61.622 0.211739 61.607 1.43699 61.5853 8.14374C61.5713 12.499 61.5397 16.103 61.5155 16.1522C61.4395 16.3075 61.389 16.2522 61.3278 15.9467C61.2952 15.7842 61.2225 15.5125 61.166 15.343C61.1097 15.1735 61.0303 14.896 60.9893 14.7262C60.9482 14.5567 60.8672 14.2792 60.8092 14.1097C60.7513 13.9402 60.652 13.5817 60.5887 13.3132C60.5255 13.0447 60.4373 12.7557 60.3927 12.6707C60.348 12.586 60.2762 12.328 60.2327 12.0972C60.1893 11.8667 60.1183 11.6092 60.0747 11.5252C60.0312 11.441 59.95 11.163 59.8942 10.907C59.8385 10.6512 59.7593 10.377 59.7183 10.2975C59.6775 10.218 59.604 9.95624 59.5555 9.71599C59.5068 9.47574 59.4245 9.19599 59.3727 9.09424C59.321 8.99224 59.2513 8.74949 59.218 8.55449C59.1847 8.35974 59.1048 8.07274 59.0397 7.91674C58.975 7.76099 58.895 7.48374 58.8618 7.30074C58.8285 7.11799 58.7485 6.84074 58.6838 6.68499C58.619 6.52899 58.5498 6.28599 58.5298 6.14474C58.5098 6.00324 58.4383 5.74899 58.3708 5.57924C58.3035 5.40974 58.2142 5.09324 58.1727 4.87624C58.1313 4.65924 58.06 4.40974 58.0145 4.32174C57.9692 4.23399 57.8877 3.95574 57.834 3.70374C57.7803 3.45174 57.7 3.17574 57.656 3.09074C57.612 3.00549 57.5425 2.76174 57.502 2.54924C57.4613 2.33674 57.3807 2.05624 57.3232 1.92599C57.2658 1.79574 57.192 1.53724 57.1598 1.35124C57.1273 1.16549 57.0493 0.895989 56.986 0.752739C56.9227 0.609239 56.8545 0.416739 56.8345 0.324489C56.8143 0.232489 56.755 0.134239 56.7028 0.106239C56.6048 0.0537393 54.4308 0.0399893 54.2882 0.0909893ZM6.81275 3.55049C6.96375 3.59249 7.00525 3.63274 7.03125 3.76224C7.07675 3.98924 7.0695 12.1965 7.024 12.265C6.91825 12.4232 6.74225 12.4395 5.14125 12.4395C3.592 12.4395 3.51875 12.4352 3.468 12.3402C3.36625 12.1505 3.397 3.70549 3.49975 3.59224C3.598 3.48349 6.44325 3.44799 6.81275 3.55049ZM6.93025 16.092L7.06325 16.2502V21.1012V25.9522L6.924 26.0432C6.73775 26.1655 3.64425 26.184 3.49975 26.0637C3.39425 25.9762 3.36675 16.3952 3.471 16.0957L3.5275 15.934H5.16225H6.79725L6.93025 16.092Z" fill="white"/>
</svg>
