<svg width="89" height="50" viewBox="0 0 89 50" fill="none" xmlns="http://www.w3.org/2000/svg">
<path fill-rule="evenodd" clip-rule="evenodd" d="M21.5831 0.468262C15.2068 2.06181 13.454 10.655 17.9802 18.13C23.1903 26.7347 20.5044 40.2472 13.1596 42.3825C3.0478 45.3222 -1.29255 30.6799 7.0007 21.6058C8.5785 19.8796 11.8268 17.6403 14.0798 16.7261C15.5767 16.1185 16.0569 15.5305 15.737 14.6972C15.0878 13.0049 9.6278 15.6835 5.63885 19.6511C1.28415 23.9823 -0.687405 30.3194 0.519395 36.1063C2.40835 45.1636 12.4344 48.1526 18.6473 41.511C19.6178 40.4736 20.6664 39.6294 21.1211 39.5199C21.5551 39.4156 22.5099 39.0302 23.2431 38.6638L24.5763 37.9974L24.8839 38.6729C25.5318 40.0949 27.2356 40.1544 28.6762 38.8052C29.2757 38.2434 29.2852 38.2431 29.5753 38.7852C30.318 40.173 32.0988 40.1408 33.9804 38.7058L34.8537 38.0397L35.1683 38.7306C35.4494 39.3473 36.4672 39.97 37.1945 39.97C38.2973 39.97 41.4589 35.7238 44.856 29.68C46.5811 26.6108 46.5647 26.6269 47.3459 27.2184C47.8362 27.5905 47.8002 27.7224 46.5972 29.9397C43.8546 34.9947 43.421 38.5395 45.388 39.8282C46.3337 40.4477 47.3742 40.1257 48.6955 38.8045C49.7717 37.7282 49.7819 37.7251 50.0258 38.3666C50.8049 40.4159 54.1621 40.3175 56.6692 38.1713L57.8137 37.1917L58.2484 38.2991C59.5612 41.6409 63.3654 39.4562 66.6743 33.46C67.5402 31.8909 67.8391 31.57 68.4337 31.57C69.0102 31.57 69.1085 31.6655 68.937 32.06C66.3208 38.0873 68.3154 42.0927 72.444 39.102C73.5742 38.2833 74.1048 38.3036 74.1258 39.166C74.1401 39.7635 75.7736 39.9801 76.8918 39.5325C81.7376 37.5938 87.6218 22.05 83.51 22.05C82.6882 22.05 82.25 22.9106 82.25 24.5255C82.25 27.9097 80.1017 33.3207 77.7416 35.8809C75.6017 38.2018 75.6963 37.1112 78.2222 30.3422C79.4773 26.9787 79.555 26.1299 78.6352 25.838C77.805 25.5745 77.2565 25.9581 76.9104 27.0448C75.8383 30.409 71.456 37.45 70.434 37.45C69.1562 37.45 70.819 32.9073 74.0953 27.447C76.2058 23.9291 76.4473 23.101 75.5079 22.5984C74.6242 22.1252 74.2802 22.3986 72.9638 24.6225C71.0654 27.8295 67.9623 30.5795 68.8366 28.28C69.3416 26.9514 69.2842 24.2081 68.7333 23.3674C67.2049 21.0346 63.8218 23.1259 60.8636 28.2317C56.7868 35.2681 54.215 38.0338 52.3971 37.3362C51.3002 36.9152 52.3509 32.3176 54.3154 28.9436C56.6709 24.8983 59.1594 23.3499 57.4224 27.0109C56.8452 28.2271 57.1753 28.91 58.3404 28.91C60.1419 28.91 61.097 24.654 59.626 23.1829C57.2498 20.8068 53.4898 24.1794 50.4322 31.43C49.3076 34.0963 47.0074 37.5994 46.6291 37.2211C46.1884 36.7804 46.907 34.7077 48.8085 30.9372C50.9621 26.6665 50.9512 26.7876 49.28 25.6581C48.5485 25.1636 47.9066 24.7261 47.8541 24.6851C47.8012 24.6445 48.3367 23.4552 49.0441 22.0423C50.9775 18.1797 50.6933 15.7832 48.2286 15.1644C44.5095 14.2313 41.867 19.6616 44.0706 23.7086L44.745 24.9476L43.0171 28.0486C36.7815 39.2402 34.8197 39.6028 40.3641 28.539C41.7504 25.7729 42.4553 24.0618 42.3479 23.7233C42.1417 23.0734 41.2608 22.7668 40.6238 23.1231C40.2759 23.3177 39.9346 23.2337 39.3662 22.8133C37.1105 21.1456 32.9507 25.39 30.282 32.0827C29.54 33.9426 28.8848 35.0717 28.0063 36.0027L26.7725 37.31L26.9283 36.19C27.104 34.9258 30.5483 25.5468 33.5996 18.0239L35.63 13.0182L40.39 13.1894C50.2001 13.5418 60.7113 15.3006 69.2349 18.0155L71.6866 18.7967L72.2043 18.1573C73.0506 17.1122 72.4913 16.5791 69.5635 15.6415C61.3455 13.0088 50.9236 11.2455 41.72 10.9305C36.499 10.752 36.52 10.7604 37.4664 9.20811C38.1223 8.13221 38.0908 7.26561 37.38 6.82006C36.6159 6.34091 36.0146 6.88131 34.9846 8.97186L34.0595 10.85L32.1846 10.8524C29.386 10.8556 21.6496 11.8282 19.7407 12.4166C18.2945 12.8621 19.1523 14.9726 20.65 14.6534C23.878 13.966 32.6056 12.9122 32.8713 13.1778C32.9294 13.2359 32.2756 14.9723 31.4188 17.0366C30.562 19.1009 28.8456 23.499 27.6048 26.81C26.3637 30.121 25.1177 33.2829 24.8356 33.8366C24.0114 35.4546 21.3335 37.5431 21.9079 36.12C24.066 30.773 23.3145 22.5792 20.1642 17.1052C16.8136 11.2833 17.0828 5.47326 20.7998 3.36801C23.598 1.78321 27.0735 3.45096 27.0858 6.38396C27.0931 8.12346 28.7791 8.79931 29.3517 7.29256C30.7223 3.68826 25.844 -0.596788 21.5831 0.468262ZM47.9822 17.9728C48.1565 18.4268 46.8146 21.5978 46.25 22.0664C45.7936 22.4451 45.4083 20.7721 45.6918 19.6427C46.1188 17.9417 47.5653 16.8868 47.9822 17.9728ZM85.7839 21.42C85.9841 22.2533 86.1133 22.4892 86.2704 22.3065C86.7555 21.7444 86.689 20.65 86.17 20.65C85.6894 20.65 85.6285 20.7714 85.7839 21.42ZM88.263 20.9415C88.1639 21.1015 87.8416 21.1561 87.5465 21.0626C87.1129 20.9251 87.01 21.0301 87.01 21.6111C87.01 22.0066 87.136 22.33 87.29 22.33C87.444 22.33 87.57 22.204 87.57 22.05C87.57 21.6471 88.3368 21.7045 88.5045 22.12C88.5822 22.3125 88.6557 22.0605 88.6679 21.56C88.6907 20.6185 88.5734 20.4393 88.263 20.9415ZM37.9718 26.4547C37.2865 30.1458 34.1439 35.8946 32.1513 37.1024C30.0016 38.4051 33.5146 29.5235 36.3961 26.3711C38.0117 24.6032 38.3124 24.619 37.9718 26.4547ZM66.7614 26.2566C66.5539 28.0077 66.368 28.3433 65.8451 27.9093C65.2708 27.4326 65.3615 26.1709 66.0209 25.4628C66.8461 24.577 66.9473 24.6858 66.7614 26.2566ZM64.5319 32.4873C64.036 33.4001 62.9111 34.9216 62.0322 35.8683L60.4348 37.59L60.4222 36.5312C60.4075 35.2702 61.2412 32.6858 62.4088 30.373L63.2537 28.6993L64.344 29.7636L65.4339 30.828L64.5319 32.4873ZM38.5521 47.1047C37.7349 48.9072 37.6568 49.8946 38.4139 48.8596C38.6106 48.5901 39.1219 48.37 39.55 48.37C39.978 48.37 40.4894 48.5901 40.6861 48.8596C41.3728 49.7983 41.4305 48.9464 40.7858 47.391C39.7726 44.9463 39.544 44.9172 38.5521 47.1047ZM54.6 45.5784C53.5542 45.9991 53.7582 47.1366 54.95 47.53C55.5033 47.7127 55.93 48.0403 55.93 48.2828C55.93 48.622 55.7238 48.6738 54.95 48.5285C54.3956 48.4246 53.97 48.4589 53.97 48.6073C53.97 48.9377 54.6605 49.21 55.4984 49.21C57.0024 49.21 57.1133 47.3606 55.6276 47.0634C55.16 46.97 54.81 46.7201 54.81 46.48C54.81 46.1625 55.0154 46.1009 55.65 46.228C56.2796 46.354 56.49 46.2924 56.49 45.983C56.49 45.7558 56.3741 45.57 56.2327 45.57C56.0913 45.57 55.8078 45.515 55.6027 45.4475C55.3976 45.3803 54.9465 45.4391 54.6 45.5784ZM32.69 47.39C32.69 48.4165 32.8121 49.21 32.97 49.21C33.124 49.21 33.25 48.958 33.25 48.65C33.25 48.2706 33.4365 48.09 33.8285 48.09C34.762 48.09 35.49 47.558 35.49 46.8762C35.49 45.9627 34.9681 45.57 33.754 45.57H32.69V47.39ZM44.17 47.3753C44.17 48.8194 44.2592 49.21 44.59 49.21C44.821 49.21 45.01 48.979 45.01 48.6965C45.01 47.8166 45.3617 47.7739 46.1776 48.5555C47.0571 49.3983 47.4855 49.302 46.9192 48.3885C46.613 47.8947 46.6137 47.7533 46.9224 47.5611C47.9636 46.9129 47.1688 45.7135 45.64 45.6253L44.17 45.5406V47.3753ZM50.33 47.39C50.33 48.4165 50.4521 49.21 50.61 49.21C50.7678 49.21 50.89 48.4165 50.89 47.39C50.89 46.3634 50.7678 45.57 50.61 45.57C50.4521 45.57 50.33 46.3634 50.33 47.39ZM34.8162 46.4523C35.0374 46.8104 34.14 47.5926 33.6812 47.4418C33.5212 47.3893 33.3497 47.0725 33.3004 46.7379C33.201 46.0624 34.4319 45.8304 34.8162 46.4523ZM46.55 46.69C46.55 46.9399 46.2385 47.1457 45.78 47.1985C45.1531 47.2706 45.01 47.1761 45.01 46.69C45.01 46.2038 45.1531 46.1093 45.78 46.1814C46.2385 46.2343 46.55 46.4401 46.55 46.69ZM39.9658 47.46C39.9679 47.6525 39.781 47.81 39.55 47.81C39.0939 47.81 39.0309 47.5538 39.3088 46.8293C39.5038 46.3214 39.957 46.7568 39.9658 47.46ZM25.2115 47.7379C26.2577 47.7918 27.8957 47.7914 28.8515 47.7368C29.8077 47.6826 28.952 47.6381 26.95 47.6388C24.948 47.6392 24.1657 47.684 25.2115 47.7379ZM58.7954 47.6885C59.0135 47.9069 65.7111 47.9223 65.9284 47.705C66.0247 47.6087 64.4234 47.53 62.37 47.53C60.3165 47.53 58.7079 47.6014 58.7954 47.6885Z" fill="white"/>
</svg>
