<svg width="188" height="24" viewBox="0 0 188 24" fill="none" xmlns="http://www.w3.org/2000/svg">
<path fill-rule="evenodd" clip-rule="evenodd" d="M155.524 0.697593C153.16 1.56459 151.988 3.34909 151.997 6.06659C152.008 9.08659 153.053 10.2156 159.712 14.3971C162.779 16.3236 163.506 18.9781 161.569 21.1846C159.61 23.4151 156.307 23.0906 153.621 20.4041C152.273 19.0566 151.96 18.8806 151.625 19.2841C151.124 19.8876 152.822 21.7691 154.778 22.7766C163.276 27.1546 169.406 16.3026 161.292 11.2441C155.15 7.41559 154.306 6.59359 154.306 4.44359C154.306 1.12009 159.155 0.279093 161.713 3.15859C162.418 3.95259 163.232 4.09759 163.232 3.42959C163.232 1.55809 158.118 -0.254407 155.524 0.697593ZM2.78901 0.810093C2.70601 0.946593 4.25651 4.70259 6.23501 9.15709C8.21351 13.6116 9.99651 17.6266 10.197 18.0791L10.562 18.9016L11.0175 18.0791C12.4345 15.5196 12.4715 15.7061 8.99451 7.83559L5.78151 0.562093H4.36051C3.57901 0.562093 2.87201 0.673593 2.78901 0.810093ZM22.405 11.9671V23.3721H24.058H25.7105V11.9671V0.562093H24.058H22.405V11.9671ZM28.8195 1.09409C29.0835 1.78209 35.254 12.5256 35.583 12.8701C35.71 13.0026 36.1635 12.4721 36.59 11.6906L37.3665 10.2696L34.574 5.49859L31.7815 0.727593L30.191 0.625093C28.797 0.535093 28.627 0.593093 28.8195 1.09409ZM41.894 5.10759C40.3805 7.60759 38.5 10.7106 37.7155 12.0036L36.2895 14.3541V18.8631V23.3721H37.942H39.595L39.6005 18.8266L39.606 14.2811L43.6925 7.60159C48.1215 0.361593 48.055 0.562093 46.032 0.562093H44.6455L41.894 5.10759ZM49.182 1.05809C49.182 1.46709 49.788 1.55359 52.653 1.55359H56.124V12.4631V23.3721H57.777H59.43V12.4631V1.55359H62.901C65.766 1.55359 66.372 1.46709 66.372 1.05809C66.372 0.630093 65.1965 0.562093 57.777 0.562093C50.357 0.562093 49.182 0.630093 49.182 1.05809ZM70.244 0.767093C70.1145 0.896593 70.0085 6.03609 70.0085 12.1876V23.3721H71.661H73.314V17.5871V11.8016H78.761H84.2075L84.298 17.5041L84.3885 23.2066L85.9585 23.3076L87.529 23.4081V11.9671V0.526093L85.9585 0.626593L84.3885 0.727593L84.3315 5.68609L84.2745 10.6446L78.803 10.7351L73.3315 10.8261L73.24 5.77659L73.149 0.727593L71.8145 0.629093C71.0805 0.575093 70.374 0.637093 70.244 0.767093ZM95.022 0.782593C94.901 0.903593 94.8015 6.03609 94.8015 12.1876V23.3721H101.579C107.382 23.3721 108.356 23.3006 108.356 22.8761C108.356 22.4566 107.565 22.3801 103.223 22.3801H98.0905L98.1815 17.1736L98.2725 11.9671L102.677 11.8746C108.824 11.7456 108.657 11.0141 102.452 10.8831L98.089 10.7906L98.181 6.25509L98.2725 1.71909L103.314 1.62809C107.494 1.55209 108.356 1.45309 108.356 1.04909C108.356 0.536593 95.525 0.279593 95.022 0.782593ZM113.314 11.9206V23.3721H114.967H116.62V17.8711V12.3706L118.444 12.5586C122.233 12.9496 124.647 15.8766 126.204 21.9671L126.563 23.3721H128.176H129.79L129.455 22.1321C128.469 18.4831 125.939 14.7696 123.296 13.0936L121.847 12.1746L123.219 11.8051C127.51 10.6496 129.175 5.70359 126.226 2.86909C124.551 1.25809 123.108 0.877093 117.86 0.658593L113.314 0.469593V11.9206ZM135.022 0.782593C134.901 0.903593 134.802 6.03609 134.802 12.1876V23.3721H141.579C147.382 23.3721 148.356 23.3006 148.356 22.8761C148.356 22.4566 147.566 22.3801 143.232 22.3801H138.108V17.1006V11.8211L142.406 11.7286C144.99 11.6731 146.705 11.5046 146.705 11.3061C146.705 11.1071 144.99 10.9386 142.406 10.8831L138.108 10.7906V6.17209V1.55359H143.232C147.566 1.55359 148.356 1.47759 148.356 1.05809C148.356 0.537093 135.532 0.272093 135.022 0.782593ZM175.518 2.29759C175.158 3.25209 173.719 6.93409 172.32 10.4796C166.766 24.5521 167.153 23.4256 167.914 23.3101C168.45 23.2291 168.931 22.3566 170.161 19.2396L171.728 15.2726L175.909 15.1801C178.209 15.1296 180.091 15.1296 180.092 15.1801C180.092 15.2311 180.822 17.0581 181.714 19.2396L183.336 23.2066L185.179 23.3056L187.022 23.4046L185.927 20.8261C176.136 -2.23291 176.788 -1.07291 175.518 2.29759ZM122.21 2.30509C124.189 3.24409 124.911 7.37809 123.47 9.51659C122.437 11.0486 121.462 11.4606 118.851 11.4661L116.62 11.4711V6.46509V1.45909L118.987 1.67859C120.288 1.79959 121.739 2.08159 122.21 2.30509ZM18.3995 4.19859C18.106 4.83459 16.1935 9.14909 14.15 13.7851C12.1065 18.4216 10.292 22.4836 10.1175 22.8116C9.82801 23.3561 9.95201 23.3991 11.542 23.3076L13.283 23.2066L15.0465 19.2396C19.386 9.47709 19.134 10.2861 19.0285 6.47109L18.934 3.04159L18.3995 4.19859ZM0.183007 13.4546L0.275007 23.3721H1.91851H3.56201V17.0496V10.7271L2.02701 7.13209C1.18301 5.15509 0.402007 3.53709 0.291507 3.53709C0.181007 3.53709 0.132507 7.99959 0.183007 13.4546ZM179.43 13.8561C179.43 13.9991 177.868 14.1156 175.959 14.1156C171.852 14.1156 172 14.4216 173.847 9.77059C174.595 7.88759 175.351 5.97509 175.528 5.52059C175.812 4.78909 179.43 12.5176 179.43 13.8561Z" fill="white"/>
</svg>
