<svg width="23" height="23" viewBox="0 0 23 23" fill="none" xmlns="http://www.w3.org/2000/svg">
<path fill-rule="evenodd" clip-rule="evenodd" d="M11.5 23C17.8513 23 23 17.8513 23 11.5C23 5.14873 17.8513 0 11.5 0C5.14873 0 0 5.14873 0 11.5C0 17.8513 5.14873 23 11.5 23ZM6.81854 8.80521C6.32748 8.37888 5.58305 8.39919 5.11612 8.86612C4.62796 9.35427 4.62796 10.1457 5.11612 10.6339L10.3661 15.8839L10.4315 15.9448C10.9225 16.3711 11.667 16.3508 12.1339 15.8839L17.3839 10.6339L17.4448 10.5685C17.8711 10.0775 17.8508 9.33305 17.3839 8.86612L17.3185 8.80521C16.8275 8.37888 16.083 8.39919 15.6161 8.86612L11.25 13.2325L6.88388 8.86612L6.81854 8.80521Z" fill="#FF7523"/>
</svg>
