<svg xmlns="http://www.w3.org/2000/svg" viewBox="0 0 223.73 223.88"><defs><style>.cls-1{fill:#1e1e1e;}.cls-2{fill:#fff;}</style></defs><title>Asset 5</title><g id="Layer_2" data-name="Layer 2"><g id="Layer_1-2" data-name="Layer 1"><path class="cls-1" d="M0,222.82V0H222.83c.08.93.23,1.87.23,2.8q0,108.66,0,217.31c0,2.95,0,2.95-2.95,2.95H2.81C1.88,223.05.94,222.9,0,222.82Zm108-91.23c1.74.34,3.21.92,4.65.85,4.94-.25,8.81-3.69,9-8.66.29-8.33.17-16.68,0-25a8.79,8.79,0,0,0-2-4.67,10.11,10.11,0,0,0-11.51-3.44,10.59,10.59,0,0,0-7.06,10c0,12.92,0,25.84,0,38.77a15,15,0,0,0,.21,1.66c1.74,0,3.4-.05,5,0,1.33.06,1.8-.47,1.76-1.78C108,136.73,108.05,134.12,108.05,131.59Zm37.77-20.17c0-4,.11-7.68,0-11.29a10.58,10.58,0,0,0-10.23-9.92c-5.64-.15-10.25,3.48-10.5,9.1-.35,7.89-.32,15.82,0,23.71a9.63,9.63,0,0,0,9.37,9.16c5.51.33,10.11-2.81,11.06-8,.47-2.57.08-5.3.08-7.94-6.31-1.21-6.79-.86-6.91,5-.05,2.34-1.06,3.54-3.09,3.67a3.43,3.43,0,0,1-3.73-3.42c-.11-3.25,0-6.51,0-10ZM73.47,131.65v-2.83q0-13,0-25.92c0-.94-.15-2.1.33-2.75a6.28,6.28,0,0,1,3-2.34c1.56-.46,2.81.6,3.34,2.11a8.32,8.32,0,0,1,.33,2.78c0,8.79,0,17.57,0,26.35,0,.84.07,1.68.11,2.58h6.72a9.09,9.09,0,0,0,.23-1.37c0-9.73.09-19.46-.07-29.18a12.26,12.26,0,0,0-1.65-5.74,10.26,10.26,0,0,0-11.68-4.6,10.63,10.63,0,0,0-7.6,10.05c-.06,9.8,0,19.6,0,29.4a8.7,8.7,0,0,0,.24,1.46Zm74.82-15.6a60.79,60.79,0,0,0,.43,7.62,10.69,10.69,0,0,0,11.51,8.48c5.39-.54,9-4.68,9.1-10.35q0-3.26,0-6.53a10.16,10.16,0,0,0-9-10.27c-.64-.1-1.29-.2-1.93-.32a3.33,3.33,0,0,1-2.94-3.28,3.17,3.17,0,0,1,2.24-3.58c1.68-.46,3.32-.3,4.33,1.54a1.9,1.9,0,0,0,1.19,1c2,.1,4,0,6,0,0-.62.08-.91.06-1.19-.32-4.38-4.16-8.1-9.12-8.85a10.51,10.51,0,0,0-11,6.76c-2.74,7.35,2,14.52,9.85,15,2.41.16,3.24,1,3.32,3.35,0,2,.07,3.93,0,5.88-.11,2.41-1.35,3.66-3.43,3.64s-3.22-1.29-3.26-3.74c0-1.71,0-3.42,0-5.2Zm-98.48.41c-6.26-1.5-7.19-.79-7.09,5.14,0,.29,0,.58,0,.87a10.84,10.84,0,0,0,11.07,9.79c5.72-.15,9.76-4.32,9.9-10.26.06-2.11,0-4.21,0-6.32-.07-5.32-3-9-8.21-10.35-1.12-.28-2.3-.33-3.39-.67a3.25,3.25,0,0,1-2.36-3.5,3.19,3.19,0,0,1,2.35-3.29,3.31,3.31,0,0,1,4.12,1.56c.23.41.6,1,.93,1.07,2.12.09,4.24,0,6.36,0a10,10,0,0,0-8.94-10,10.33,10.33,0,0,0-11.45,7.56c-2,7.22,2.43,13.4,10,14.08,2.58.23,3.47,1.09,3.5,3.47,0,2,.08,4.07,0,6.09a3.18,3.18,0,0,1-3.5,3.32c-2.06,0-3.22-1.24-3.27-3.49C49.78,119.86,49.81,118.14,49.81,116.46Zm40.82,15.3c1.86,0,3.38-.1,4.89,0,1.71.15,2.24-.46,2.22-2.19-.08-7.85,0-15.7,0-23.55,0-5,0-5-5.15-4.94-1.55,0-2,.52-2,2,.06,7.63,0,15.26,0,22.89Z"/><path class="cls-2" d="M0,222.82c.93.08,1.87.23,2.8.23H220.12c2.95,0,2.95,0,2.95-2.95q0-108.66,0-217.31c0-.93-.15-1.87-.23-2.8.29.15.78.24.83.45a5.83,5.83,0,0,1,0,1.51V223.69q-111,0-221.95,0C1.21,223.65-.13,224.55,0,222.82Z"/><path class="cls-2" d="M108.05,131.59c0,2.53,0,5.14,0,7.74,0,1.31-.43,1.84-1.76,1.78-1.65-.07-3.31,0-5,0a15,15,0,0,1-.21-1.66c0-12.93,0-25.85,0-38.77a10.59,10.59,0,0,1,7.06-10,10.11,10.11,0,0,1,11.51,3.44,8.79,8.79,0,0,1,2,4.67c.2,8.33.32,16.68,0,25-.18,5-4,8.41-9,8.66C111.26,132.51,109.79,131.93,108.05,131.59Zm0-20.4c0,3.33,0,6.67,0,10,0,2.69,1.09,3.9,3.28,4s3.58-1.28,3.61-3.93q.09-9.8,0-19.59c0-2.47-1.4-3.87-3.48-3.89s-3.35,1.31-3.4,3.87C108,104.8,108.06,108,108.06,111.19Z"/><path class="cls-2" d="M145.82,111.42h-14c0,3.53-.08,6.79,0,10a3.43,3.43,0,0,0,3.73,3.42c2-.13,3-1.33,3.09-3.67.12-5.86.6-6.21,6.91-5,0,2.64.39,5.37-.08,7.94-.95,5.22-5.55,8.36-11.06,8a9.63,9.63,0,0,1-9.37-9.16c-.31-7.89-.34-15.82,0-23.71.25-5.62,4.86-9.25,10.5-9.1a10.58,10.58,0,0,1,10.23,9.92C145.93,103.74,145.82,107.37,145.82,111.42Zm-14-6.67H136c3.12,0,3.12,0,2.93-3.15a8,8,0,0,0-.14-1.08,3.38,3.38,0,0,0-3.71-2.92,3.28,3.28,0,0,0-3.26,3.17A32.34,32.34,0,0,0,131.82,104.75Z"/><path class="cls-2" d="M73.47,131.65h-6.7a8.7,8.7,0,0,1-.24-1.46c0-9.8,0-19.6,0-29.4a10.63,10.63,0,0,1,7.6-10.05,10.26,10.26,0,0,1,11.68,4.6,12.26,12.26,0,0,1,1.65,5.74c.16,9.72.08,19.45.07,29.18a9.09,9.09,0,0,1-.23,1.37H80.59c0-.9-.11-1.74-.11-2.58,0-8.78,0-17.56,0-26.35a8.32,8.32,0,0,0-.33-2.78c-.53-1.51-1.78-2.57-3.34-2.11a6.28,6.28,0,0,0-3,2.34c-.48.65-.33,1.81-.33,2.75q0,13,0,25.92Z"/><path class="cls-2" d="M148.29,116.05h7.29c0,1.78,0,3.49,0,5.2,0,2.45,1.17,3.72,3.26,3.74s3.32-1.23,3.43-3.64c.09-1.95.07-3.92,0-5.88-.08-2.39-.91-3.19-3.32-3.35-7.89-.51-12.59-7.68-9.85-15a10.51,10.51,0,0,1,11-6.76c5,.75,8.8,4.47,9.12,8.85,0,.28,0,.57-.06,1.19-2,0-4,.06-6,0a1.9,1.9,0,0,1-1.19-1c-1-1.84-2.65-2-4.33-1.54a3.17,3.17,0,0,0-2.24,3.58,3.33,3.33,0,0,0,2.94,3.28c.64.12,1.29.22,1.93.32a10.16,10.16,0,0,1,9,10.27q0,3.27,0,6.53c-.06,5.67-3.71,9.81-9.1,10.35a10.69,10.69,0,0,1-11.51-8.48A60.79,60.79,0,0,1,148.29,116.05Z"/><path class="cls-2" d="M49.81,116.46c0,1.68,0,3.4,0,5.13,0,2.25,1.21,3.46,3.27,3.49a3.18,3.18,0,0,0,3.5-3.32c.1-2,0-4.06,0-6.09,0-2.38-.92-3.24-3.5-3.47-7.55-.68-11.93-6.86-10-14.08a10.33,10.33,0,0,1,11.45-7.56,10,10,0,0,1,8.94,10c-2.12,0-4.24,0-6.36,0-.33,0-.7-.66-.93-1.07a3.31,3.31,0,0,0-4.12-1.56,3.19,3.19,0,0,0-2.35,3.29,3.25,3.25,0,0,0,2.36,3.5c1.09.34,2.27.39,3.39.67,5.2,1.31,8.14,5,8.21,10.35,0,2.11.05,4.21,0,6.32-.14,5.94-4.18,10.11-9.9,10.26a10.84,10.84,0,0,1-11.07-9.79c0-.29,0-.58,0-.87C42.62,115.67,43.55,115,49.81,116.46Z"/><path class="cls-2" d="M90.63,131.76V126c0-7.63,0-15.26,0-22.89,0-1.5.41-2,2-2,5.15,0,5.15-.11,5.15,4.94,0,7.85,0,15.7,0,23.55,0,1.73-.51,2.34-2.22,2.19C94,131.66,92.49,131.76,90.63,131.76Z"/><path class="cls-1" d="M108.06,111.19c0-3.19,0-6.39,0-9.58,0-2.56,1.27-3.89,3.4-3.87s3.45,1.42,3.48,3.89q.09,9.8,0,19.59c0,2.65-1.37,4-3.61,3.93s-3.24-1.26-3.28-4C108,117.86,108.06,114.52,108.06,111.19Z"/><path class="cls-1" d="M131.82,104.75a32.34,32.34,0,0,1,0-4,3.28,3.28,0,0,1,3.26-3.17,3.38,3.38,0,0,1,3.71,2.92,8,8,0,0,1,.14,1.08c.19,3.14.19,3.14-2.93,3.15Z"/></g></g></svg>